<svg xmlns="http://www.w3.org/2000/svg" xmlns:xlink="http://www.w3.org/1999/xlink" width="400" zoomAndPan="magnify" viewBox="0 0 300 412.499988" height="550" preserveAspectRatio="xMidYMid meet" version="1.0"><defs><clipPath id="1cb281fe4d"><path d="M 0.179688 0 L 299.816406 0 L 299.816406 412 L 0.179688 412 Z M 0.179688 0 " clip-rule="nonzero"/></clipPath><clipPath id="4301eefaa4"><path d="M 0.179688 0 L 299.816406 0 L 299.816406 412 L 0.179688 412 Z M 0.179688 0 " clip-rule="nonzero"/></clipPath><clipPath id="8e8145891a"><path d="M 33.230469 -18.363281 L 270.863281 -18.363281 C 291.960938 -18.363281 309.066406 -1.257812 309.066406 19.839844 L 309.066406 396.800781 C 309.066406 417.898438 291.960938 435.003906 270.863281 435.003906 L 33.230469 435.003906 C 12.132812 435.003906 -4.972656 417.898438 -4.972656 396.800781 L -4.972656 19.839844 C -4.972656 -1.257812 12.132812 -18.363281 33.230469 -18.363281 Z M 33.230469 -18.363281 " clip-rule="nonzero"/></clipPath><clipPath id="8ae905a401"><path d="M 0.179688 264 L 299.816406 264 L 299.816406 412 L 0.179688 412 Z M 0.179688 264 " clip-rule="nonzero"/></clipPath></defs><g clip-path="url(#1cb281fe4d)"><path fill="#ffffff" d="M 0.179688 0 L 299.820312 0 L 299.820312 412 L 0.179688 412 Z M 0.179688 0 " fill-opacity="1" fill-rule="nonzero"/><path fill="#ffffff" d="M 0.179688 0 L 299.820312 0 L 299.820312 412 L 0.179688 412 Z M 0.179688 0 " fill-opacity="1" fill-rule="nonzero"/></g><g clip-path="url(#4301eefaa4)"><g clip-path="url(#8e8145891a)"><rect x="-30" width="360" fill="#fbfaf4" y="-41.249999" height="494.999985" fill-opacity="1"/></g></g><g clip-path="url(#8ae905a401)"><path fill="#c8d5b9" d="M 314.609375 369.28125 C 313.160156 330.222656 282.75 306.625 278.402344 303.601562 C 257.40625 288.992188 231.808594 283.113281 206.550781 285.839844 C 191.683594 287.457031 176.988281 290.738281 162.039062 290.992188 C 114.417969 291.886719 72.933594 253.683594 23.867188 268.292969 C -4.628906 276.769531 -34.0625 306.371094 -36.191406 337.972656 C -37.765625 361.144531 -20.941406 377.925781 -9.144531 396.070312 C 10.960938 427.035156 10.152344 464.304688 3.125 499.445312 C -0.582031 517.929688 -3.90625 537.3125 1.25 555.457031 C 7 575.644531 28.082031 589.660156 48.910156 588.296875 C 73.1875 586.71875 88.265625 561.929688 112.714844 556.988281 C 133.628906 552.773438 151.945312 562.695312 172.515625 563.507812 C 187.894531 564.101562 203.140625 558.4375 215.410156 549.152344 C 233.851562 535.140625 243.648438 517.546875 245.777344 495.015625 C 247.480469 476.957031 246.417969 457.746094 262.773438 445.777344 C 269.757812 440.667969 277.808594 437.214844 284.964844 432.320312 C 305.578125 418.261719 315.503906 393.730469 314.609375 369.28125 Z M 314.609375 369.28125 " fill-opacity="1" fill-rule="nonzero"/></g></svg>