<svg xmlns="http://www.w3.org/2000/svg" xmlns:xlink="http://www.w3.org/1999/xlink" width="400" zoomAndPan="magnify" viewBox="0 0 300 412.499988" height="550" preserveAspectRatio="xMidYMid meet" version="1.0"><defs><clipPath id="f36297fdfb"><path d="M 0.179688 0 L 299.816406 0 L 299.816406 412 L 0.179688 412 Z M 0.179688 0 " clip-rule="nonzero"/></clipPath><clipPath id="8f320fabe4"><path d="M 0.179688 0 L 299.816406 0 L 299.816406 412 L 0.179688 412 Z M 0.179688 0 " clip-rule="nonzero"/></clipPath><clipPath id="6c9a111f91"><path d="M 0.160156 0 L 293.492188 0 C 295.679688 0 297.773438 0.867188 299.320312 2.414062 C 300.863281 3.957031 301.734375 6.054688 301.734375 8.238281 L 301.734375 419.914062 C 301.734375 422.101562 300.863281 424.195312 299.320312 425.742188 C 297.773438 427.289062 295.679688 428.15625 293.492188 428.15625 L 0.160156 428.15625 C -2.023438 428.15625 -4.121094 427.289062 -5.667969 425.742188 C -7.210938 424.195312 -8.078125 422.101562 -8.078125 419.914062 L -8.078125 8.238281 C -8.078125 6.054688 -7.210938 3.957031 -5.667969 2.414062 C -4.121094 0.867188 -2.023438 0 0.160156 0 Z M 0.160156 0 " clip-rule="nonzero"/></clipPath><clipPath id="d365eddb62"><path d="M 3 298 L 299.816406 298 L 299.816406 412 L 3 412 Z M 3 298 " clip-rule="nonzero"/></clipPath><clipPath id="0e9c697bf1"><path d="M 301.980469 542.542969 L -10.953125 497.804688 L 21.589844 270.148438 L 334.527344 314.886719 Z M 301.980469 542.542969 " clip-rule="nonzero"/></clipPath><clipPath id="ed9981892a"><path d="M 301.980469 542.542969 L -10.953125 497.804688 L 21.589844 270.148438 L 334.527344 314.886719 Z M 301.980469 542.542969 " clip-rule="nonzero"/></clipPath></defs><g clip-path="url(#f36297fdfb)"><path fill="#ffffff" d="M 0.179688 0 L 299.820312 0 L 299.820312 412 L 0.179688 412 Z M 0.179688 0 " fill-opacity="1" fill-rule="nonzero"/><path fill="#ffffff" d="M 0.179688 0 L 299.820312 0 L 299.820312 412 L 0.179688 412 Z M 0.179688 0 " fill-opacity="1" fill-rule="nonzero"/></g><g clip-path="url(#8f320fabe4)"><g clip-path="url(#6c9a111f91)"><rect x="-30" width="360" fill="#fbfaf4" y="-41.249999" height="494.999985" fill-opacity="1"/></g></g><g clip-path="url(#d365eddb62)"><g clip-path="url(#0e9c697bf1)"><g clip-path="url(#ed9981892a)"><path fill="#68b0ab" d="M 161.683594 301.273438 C 176.015625 303.445312 191.59375 307.167969 206.355469 308.722656 C 222.039062 310.347656 237.695312 307.28125 253.367188 307.03125 C 280.898438 307.144531 303 328.683594 314.347656 352.160156 C 322.78125 368.851562 324.011719 388.367188 319.285156 406.410156 C 318.019531 412.488281 314.722656 417.519531 311.664062 422.65625 C 307.578125 429.535156 303.164062 436.234375 297.328125 441.8125 C 278.265625 459.183594 253.535156 468.269531 231.835938 481.714844 C 229.726562 482.945312 228.132812 484.710938 226.714844 486.6875 C 218.886719 498.277344 210.679688 510.949219 196.519531 515.191406 C 173.171875 524.113281 145.308594 516.59375 129.179688 497.480469 C 125.171875 492.625 122.027344 487.15625 117.945312 482.382812 C 106.257812 467.96875 95.121094 450.863281 76.953125 444.214844 C 57.371094 439.667969 44.953125 452.929688 24.652344 443.191406 C 4.859375 434.839844 1.316406 409.921875 4.945312 390.980469 C 8.941406 373.929688 18.226562 358.484375 29.574219 345.316406 C 65.851562 306.457031 109.46875 292.84375 161.683594 301.273438 Z M 161.683594 301.273438 " fill-opacity="1" fill-rule="nonzero"/></g></g></g></svg>