<svg xmlns="http://www.w3.org/2000/svg" xmlns:xlink="http://www.w3.org/1999/xlink" width="400" zoomAndPan="magnify" viewBox="0 0 300 412.499988" height="550" preserveAspectRatio="xMidYMid meet" version="1.0"><defs><clipPath id="997235e049"><path d="M 0.179688 0 L 299.816406 0 L 299.816406 412 L 0.179688 412 Z M 0.179688 0 " clip-rule="nonzero"/></clipPath><clipPath id="2e725f4039"><path d="M 0.179688 0 L 299.816406 0 L 299.816406 389.585938 L 0.179688 389.585938 Z M 0.179688 0 " clip-rule="nonzero"/></clipPath><clipPath id="b70829cbc3"><path d="M 28.78125 -11.789062 L 265.640625 -11.789062 C 275.773438 -11.789062 285.492188 -7.761719 292.65625 -0.597656 C 299.820312 6.566406 303.847656 16.285156 303.847656 26.417969 L 303.847656 350.824219 C 303.847656 360.957031 299.820312 370.671875 292.65625 377.835938 C 285.492188 385 275.773438 389.027344 265.640625 389.027344 L 28.78125 389.027344 C 18.648438 389.027344 8.929688 385 1.765625 377.835938 C -5.398438 370.671875 -9.421875 360.957031 -9.421875 350.824219 L -9.421875 26.417969 C -9.421875 16.285156 -5.398438 6.566406 1.765625 -0.597656 C 8.929688 -7.761719 18.648438 -11.789062 28.78125 -11.789062 Z M 28.78125 -11.789062 " clip-rule="nonzero"/></clipPath><clipPath id="8ec5d15367"><path d="M 0.179688 268 L 299.816406 268 L 299.816406 412 L 0.179688 412 Z M 0.179688 268 " clip-rule="nonzero"/></clipPath><clipPath id="d29b07681d"><path d="M 104.082031 650.960938 L -59.957031 353.050781 L 220.890625 198.402344 L 384.929688 496.3125 Z M 104.082031 650.960938 " clip-rule="nonzero"/></clipPath><clipPath id="0a7c3fc971"><path d="M 104.082031 650.960938 L -59.957031 353.050781 L 220.890625 198.402344 L 384.929688 496.3125 Z M 104.082031 650.960938 " clip-rule="nonzero"/></clipPath></defs><g clip-path="url(#997235e049)"><path fill="#ffffff" d="M 0.179688 0 L 299.820312 0 L 299.820312 412 L 0.179688 412 Z M 0.179688 0 " fill-opacity="1" fill-rule="nonzero"/><path fill="#ffffff" d="M 0.179688 0 L 299.820312 0 L 299.820312 412 L 0.179688 412 Z M 0.179688 0 " fill-opacity="1" fill-rule="nonzero"/></g><g clip-path="url(#2e725f4039)"><g clip-path="url(#b70829cbc3)"><path fill="#fbfaf4" d="M -9.421875 -11.789062 L 303.847656 -11.789062 L 303.847656 389.585938 L -9.421875 389.585938 Z M -9.421875 -11.789062 " fill-opacity="1" fill-rule="nonzero"/></g></g><g clip-path="url(#8ec5d15367)"><g clip-path="url(#d29b07681d)"><g clip-path="url(#0a7c3fc971)"><path fill="#8fc0a9" d="M 332.609375 401.828125 C 341.152344 417.347656 341.980469 432.816406 342.660156 449.300781 C 343.105469 460.46875 341.566406 476.320312 337.898438 487.367188 L 335.878906 493.042969 C 334.03125 498.847656 328.09375 510.488281 324.484375 515.652344 C 323.949219 516.417969 323.660156 516.996094 323.171875 517.683594 C 317.035156 526.535156 310.09375 534.3125 301.46875 541.023438 C 298.925781 542.984375 293.433594 546.691406 290.867188 547.632812 C 289.585938 548.105469 284.769531 550.664062 282.164062 551.703125 L 273.871094 554.773438 C 266.214844 557.46875 255.734375 560.011719 247.636719 560.289062 C 246.757812 560.304688 245.960938 560.417969 245.042969 560.457031 C 240.914062 560.601562 236.792969 560.625 232.675781 560.371094 L 220.960938 558.542969 C 218.304688 558.136719 212.386719 556.4375 209.644531 555.308594 C 208.121094 554.671875 206.703125 554.210938 205.167969 553.515625 C 198.503906 550.453125 191.945312 547.167969 185.902344 542.941406 L 179.722656 538.675781 C 178.402344 537.765625 177.058594 536.847656 175.714844 535.8125 L 155.488281 520.179688 C 148.734375 515.085938 142.402344 510.550781 134.539062 507.398438 L 128.886719 505.363281 C 126.316406 504.441406 123.636719 503.691406 120.9375 503.242188 C 116.164062 502.433594 111.347656 502.09375 106.519531 501.902344 L 91.644531 501.671875 C 80.351562 501.460938 69.03125 500.867188 57.875 499.320312 L 49.621094 497.835938 C 48.066406 497.519531 46.550781 496.929688 44.972656 496.652344 C 43.808594 496.453125 42.703125 496.007812 41.570312 495.652344 C 39.292969 494.875 37.066406 494.226562 34.867188 493.242188 C 27.261719 489.828125 20.671875 485.71875 14.152344 479.699219 C 10.761719 476.558594 3.863281 468.53125 1.457031 464.03125 C 0.816406 462.863281 0.386719 462.472656 -0.207031 461.394531 C -2.164062 457.839844 -3.871094 453.847656 -5.066406 450.019531 C -6.0625 446.804688 -6.664062 442.738281 -7.054688 439.609375 C -7.15625 438.703125 -7.226562 437.855469 -7.304688 436.988281 C -7.773438 431.257812 -7.902344 425.582031 -6.285156 420.035156 C -5.382812 416.917969 -4.535156 414 -3.289062 410.949219 L -1.046875 404.195312 C -0.820312 403.417969 -0.710938 402.726562 -0.605469 401.894531 C -0.136719 398.714844 -0.335938 395.339844 -0.46875 392.117188 C -0.539062 390.378906 -0.652344 388.808594 -0.671875 387.082031 C -0.710938 381.957031 -1.277344 376.988281 -1.898438 371.90625 C -2.03125 370.902344 -2.074219 370.273438 -2.316406 369.234375 C -2.90625 366.589844 -3.519531 364.121094 -3.90625 361.503906 C -4.460938 357.695312 -4.894531 353.980469 -4.714844 350.140625 L -3.332031 339.441406 C -2.582031 335.542969 -0.675781 331.785156 1.296875 328.40625 C 1.734375 327.625 2.089844 327.082031 2.515625 326.328125 C 7.773438 317.40625 13.441406 312.710938 22.789062 307.566406 C 29.753906 303.730469 43.699219 302.316406 51.808594 301.753906 C 53.179688 301.65625 54.253906 301.738281 55.644531 301.675781 L 61.523438 301.691406 C 73.835938 301.925781 86.195312 302.25 98.523438 301.753906 C 102.488281 301.605469 106.539062 301.363281 110.460938 300.628906 L 114.644531 299.820312 C 116.101562 299.488281 117.324219 299.167969 118.792969 298.777344 C 121.667969 298.015625 124.460938 297.015625 127.378906 295.992188 C 128.980469 295.414062 130.214844 294.945312 131.84375 294.285156 C 139.625 291.054688 146.933594 286.746094 154.515625 282.550781 L 159.152344 280.230469 C 160.492188 279.683594 162.242188 278.835938 163.523438 278.316406 C 174.289062 274.09375 177.253906 273.394531 188.941406 271.238281 C 196.394531 269.867188 205.414062 268.625 213.058594 268.667969 C 215.660156 268.679688 218.195312 268.738281 220.75 268.964844 L 237.574219 271.695312 C 240.875 272.636719 243.222656 273.121094 246.5 274.402344 C 247.714844 274.875 248.695312 275.253906 249.898438 275.824219 C 254.617188 278.0625 258.746094 280.9375 262.800781 285.113281 C 265.085938 287.476562 268.039062 290.972656 269.910156 294.035156 C 272.828125 298.785156 275.332031 302.78125 277.351562 308.058594 C 279.25 312.953125 280.878906 317.480469 282.316406 322.507812 C 285.703125 334.390625 288.042969 347.433594 294.128906 358.488281 C 297.269531 364.195312 300.066406 367.144531 304.382812 371.128906 C 307.664062 374.160156 310.796875 377.132812 313.984375 380.242188 C 320.992188 387.066406 327.609375 392.75 332.609375 401.828125 Z M 332.609375 401.828125 " fill-opacity="1" fill-rule="evenodd"/></g></g></g></svg>