<svg xmlns="http://www.w3.org/2000/svg" xmlns:xlink="http://www.w3.org/1999/xlink" width="300" zoomAndPan="magnify" viewBox="0 0 224.87999 225" height="300" preserveAspectRatio="xMidYMid meet" version="1.0"><defs><clipPath id="9f13b99f55"><path d="M 18 44 L 181 44 L 181 169 L 18 169 Z M 18 44 " clip-rule="nonzero"/></clipPath><clipPath id="979b7c4267"><path d="M 39.492188 187.246094 L 15.785156 68.148438 L 168.699219 37.707031 L 192.410156 156.804688 Z M 39.492188 187.246094 " clip-rule="nonzero"/></clipPath><clipPath id="38de4f8c51"><path d="M 39.492188 187.246094 L 15.785156 68.148438 L 168.699219 37.707031 L 192.410156 156.804688 Z M 39.492188 187.246094 " clip-rule="nonzero"/></clipPath></defs><g clip-path="url(#9f13b99f55)"><g clip-path="url(#979b7c4267)"><g clip-path="url(#38de4f8c51)"><path fill="#C8D5B9" d="M 139.460938 44.152344 C 142.6875 43.953125 145.304688 45.226562 147.777344 47.105469 C 153.019531 51.085938 156.699219 56.238281 159.371094 62.195312 C 162.378906 68.902344 167.324219 74.230469 171.929688 79.804688 C 176.082031 84.828125 179.109375 90.40625 180.113281 96.945312 C 180.566406 99.878906 179.5625 102.550781 178.636719 105.214844 C 176.707031 110.777344 173.527344 115.71875 170.78125 120.882812 C 165.910156 130.035156 159.578125 138.230469 153.707031 146.703125 C 148.546875 154.148438 142.648438 161.050781 135.066406 166.296875 C 132.351562 168.175781 129.582031 169.273438 126.464844 167.777344 C 123.015625 166.125 121.6875 163.089844 121.894531 159.378906 C 122.203125 153.882812 124.140625 148.804688 126.242188 143.820312 C 129.203125 136.789062 132.992188 130.167969 137.109375 123.765625 C 140.824219 117.992188 145.152344 112.660156 150.195312 107.953125 C 149.855469 107.582031 149.453125 107.8125 149.074219 107.832031 C 142.523438 110.886719 136.171875 114.335938 129.773438 117.691406 C 115.6875 125.066406 101.902344 133.015625 87.367188 139.515625 C 79.503906 143.03125 71.507812 146.136719 63.222656 148.527344 C 56.957031 150.339844 50.6875 151.816406 44.101562 150.738281 C 38.886719 149.882812 34.898438 146.21875 34.304688 141.386719 C 33.878906 137.898438 35.203125 134.816406 37.3125 132.109375 C 40.46875 128.0625 44.761719 125.378906 49.035156 122.710938 C 59.476562 116.191406 70.730469 111.402344 82.261719 107.195312 C 90.945312 104.027344 99.753906 101.3125 109.261719 99.054688 C 106.390625 98.574219 103.984375 98.808594 101.601562 98.804688 C 85.972656 98.773438 70.335938 98.839844 54.71875 98.0625 C 45.359375 97.59375 36.222656 95.902344 27.796875 91.46875 C 24.207031 89.578125 21.230469 87.046875 19.554688 83.226562 C 18.136719 79.996094 19.367188 76.191406 22.433594 74.394531 C 24.40625 73.242188 26.5625 72.539062 28.761719 72.019531 C 38.28125 69.773438 47.921875 68.542969 57.71875 68.535156 C 66.011719 68.527344 74.3125 68.460938 82.539062 69.65625 C 93.9375 71.316406 105.242188 73.515625 116.421875 76.285156 C 124.730469 78.34375 132.996094 80.582031 141.28125 82.734375 C 141.867188 82.886719 142.464844 82.988281 143.554688 83.214844 C 141.972656 81.730469 140.640625 80.691406 139.570312 79.433594 C 133.335938 72.097656 129.5 63.851562 130.25 53.957031 C 130.558594 49.953125 135.15625 44.421875 139.460938 44.152344 Z M 139.460938 44.152344 " fill-opacity="1" fill-rule="nonzero"/></g></g></g></svg>