<svg xmlns="http://www.w3.org/2000/svg" xmlns:xlink="http://www.w3.org/1999/xlink" width="300" zoomAndPan="magnify" viewBox="0 0 224.87999 225" height="300" preserveAspectRatio="xMidYMid meet" version="1.0"><defs><clipPath id="df0b96a5fd"><path d="M 13 9 L 193 9 L 193 223 L 13 223 Z M 13 9 " clip-rule="nonzero"/></clipPath><clipPath id="fe92990fe2"><path d="M 152.632812 -29.089844 L 240.738281 189.980469 L 81.476562 254.035156 L -6.628906 34.964844 Z M 152.632812 -29.089844 " clip-rule="nonzero"/></clipPath><clipPath id="3c361722fe"><path d="M 152.632812 -29.089844 L 240.738281 189.980469 L 81.476562 254.035156 L -6.628906 34.964844 Z M 152.632812 -29.089844 " clip-rule="nonzero"/></clipPath></defs><g clip-path="url(#df0b96a5fd)"><g clip-path="url(#fe92990fe2)"><g clip-path="url(#3c361722fe)"><path fill="#faf3dd" d="M 49.175781 151.722656 C 45.222656 141.652344 41.804688 130.195312 37.296875 120.074219 C 32.484375 109.335938 24.652344 100.367188 18.632812 90.335938 C 8.417969 72.503906 14.074219 50.175781 25.003906 34.070312 C 32.632812 22.382812 44.785156 14.292969 58.210938 10.605469 C 62.609375 9.152344 67.089844 9.402344 71.554688 9.457031 C 77.523438 9.527344 83.5 9.875 89.285156 11.5625 C 107.632812 17.386719 122.746094 29.96875 139.542969 38.964844 C 141.125 39.871094 142.863281 40.238281 144.671875 40.414062 C 155.082031 41.140625 166.339844 41.710938 174.371094 49.273438 C 188.859375 61.023438 194.414062 81.835938 188.09375 99.398438 C 186.453125 103.804688 184.097656 107.878906 182.539062 112.300781 C 177.59375 125.238281 170.699219 138.824219 173.191406 153.050781 C 177.574219 167.402344 190.785156 170.46875 192.078125 187.222656 C 194.078125 203.132812 179.304688 214.734375 165.710938 219.46875 C 153.199219 223.257812 139.75 223.03125 127 220.621094 C 88.339844 211.703125 63.242188 188.609375 49.175781 151.722656 Z M 49.175781 151.722656 " fill-opacity="1" fill-rule="nonzero"/></g></g></g></svg>