<svg xmlns="http://www.w3.org/2000/svg" xmlns:xlink="http://www.w3.org/1999/xlink" width="150" zoomAndPan="magnify" viewBox="0 0 112.5 225" height="300" preserveAspectRatio="xMidYMid meet" version="1.0"><defs><clipPath id="835bd6649d"><path d="M 9 2 L 108 2 L 108 218 L 9 218 Z M 9 2 " clip-rule="nonzero"/></clipPath><clipPath id="3b2b2b5673"><path d="M 140.648438 197.53125 L 30.890625 234.238281 L -38.257812 27.460938 L 71.503906 -9.242188 Z M 140.648438 197.53125 " clip-rule="nonzero"/></clipPath><clipPath id="8c3f8d9d48"><path d="M 140.648438 197.53125 L 30.890625 234.238281 L -38.257812 27.460938 L 71.503906 -9.242188 Z M 140.648438 197.53125 " clip-rule="nonzero"/></clipPath></defs><g clip-path="url(#835bd6649d)"><g clip-path="url(#3b2b2b5673)"><g clip-path="url(#8c3f8d9d48)"><path fill="#faf3dd" d="M 9.589844 170.429688 C 8.042969 164.742188 11.550781 159.023438 17.773438 158.898438 C 20.898438 158.832031 23.859375 159.433594 26.628906 160.84375 C 30.347656 162.742188 34.375 163.832031 38.230469 165.367188 C 42.359375 167.015625 46.113281 169.246094 49.816406 171.625 C 56.390625 175.851562 63.078125 179.890625 69.824219 183.84375 C 75.1875 186.988281 80.671875 189.984375 85.351562 194.179688 C 87.800781 196.371094 89.1875 199.328125 91.007812 201.960938 C 92.019531 203.417969 91.871094 205.285156 91.359375 206.945312 C 89.953125 211.53125 87.574219 215.296875 82.390625 216.652344 C 79.15625 218.054688 75.699219 217.660156 72.273438 216.890625 C 64.609375 215.164062 57.714844 211.65625 51.035156 207.628906 C 45.117188 204.066406 39.15625 200.566406 33.824219 196.160156 C 26.714844 190.28125 19.664062 184.347656 13.832031 177.089844 C 12.144531 174.984375 10.332031 173.160156 9.589844 170.429688 Z M 37.59375 121.644531 C 40.449219 121.765625 43.296875 121.46875 46.164062 122.050781 C 53.585938 123.558594 61.09375 124.507812 68.679688 124.683594 C 73.925781 124.808594 79.148438 124.335938 84.359375 123.753906 C 90.398438 123.078125 96.148438 121.566406 101.328125 118.15625 C 109.769531 112.597656 109.0625 103.082031 104.785156 96.566406 C 102.875 93.652344 99.679688 93.503906 96.59375 93.34375 C 90.714844 93.035156 84.941406 94.242188 79.121094 94.714844 C 71.472656 95.34375 63.804688 95.792969 56.167969 96.671875 C 50.640625 97.304688 45.25 98.347656 40.246094 99.78125 C 37.582031 100.828125 35.15625 101.671875 32.632812 101.363281 C 29.34375 100.964844 24.449219 104.472656 23.28125 108.167969 C 22.691406 110.039062 22.433594 111.976562 23.550781 113.828125 C 26.742188 119.121094 31.59375 121.382812 37.59375 121.644531 Z M 14.585938 60.03125 C 14.957031 60.859375 15.921875 61.050781 16.5 61.695312 C 18.273438 63.660156 20.996094 63.84375 22.835938 62.007812 C 24.691406 60.15625 26.492188 58.226562 28.148438 56.195312 C 35.996094 46.574219 41.273438 35.488281 46.058594 24.160156 C 47.957031 19.667969 49.324219 14.96875 48.628906 9.910156 C 48.078125 5.90625 45.632812 3.253906 41.667969 2.605469 C 39.246094 2.210938 36.953125 2.785156 34.667969 3.332031 C 31.628906 4.054688 29.542969 5.933594 28.300781 8.851562 C 27.265625 11.28125 26.5625 13.804688 25.8125 16.316406 C 24.453125 20.839844 21.914062 24.898438 20.550781 29.378906 C 18.277344 36.84375 16.292969 44.402344 14 51.871094 C 13.390625 53.855469 12.824219 56.039062 13.992188 58.28125 C 14.148438 58.761719 14.316406 59.417969 14.585938 60.03125 Z M 34.363281 147.546875 C 40.265625 148.0625 45.816406 150.410156 51.765625 150.726562 C 55.0625 150.90625 58.335938 151.476562 61.519531 150 C 64.136719 149.425781 66.351562 148.230469 67.085938 145.386719 C 67.90625 142.226562 66.617188 139.8125 63.140625 138.085938 C 55.503906 134.300781 47.34375 133.222656 38.933594 133.574219 C 37.539062 133.632812 36.144531 133.894531 34.75 133.882812 C 32.929688 133.867188 31.414062 134.625 30.300781 135.855469 C 27.792969 138.621094 28.371094 141.242188 30.367188 144.589844 C 31.234375 146.039062 32.503906 147.382812 34.363281 147.546875 Z M 42.003906 60.101562 C 37.925781 61.464844 34.707031 63.449219 31.378906 66.671875 C 29.535156 68.457031 27.605469 70.117188 25.472656 71.574219 C 21.726562 74.132812 21.289062 79.402344 24.449219 82.527344 C 24.699219 82.777344 24.917969 83.082031 25.0625 83.398438 C 26.304688 86.128906 28.695312 86.964844 31.097656 85.332031 C 35.441406 82.378906 40.265625 80.382812 44.941406 78.070312 C 48.421875 76.347656 51.6875 74.300781 53.273438 70.488281 C 54.058594 68.601562 54.582031 66.589844 53.625 64.648438 C 51.671875 60.699219 46.308594 58.660156 42.003906 60.101562 Z M 42.003906 60.101562 " fill-opacity="1" fill-rule="nonzero"/></g></g></g></svg>