<svg xmlns="http://www.w3.org/2000/svg" xmlns:xlink="http://www.w3.org/1999/xlink" width="940" zoomAndPan="magnify" viewBox="0 0 705 591.000005" height="788" preserveAspectRatio="xMidYMid meet" version="1.0"><defs><clipPath id="baf6ecdf52"><path d="M 71 251 L 690 251 L 690 590 L 71 590 Z M 71 251 " clip-rule="nonzero"/></clipPath><clipPath id="9951913030"><path d="M 2.210938 384.246094 L 572.535156 150.914062 L 742.359375 566.011719 L 172.035156 799.339844 Z M 2.210938 384.246094 " clip-rule="nonzero"/></clipPath><clipPath id="1cc5986754"><path d="M 572.726562 150.835938 L 2.40625 384.167969 L 172.230469 799.261719 L 742.554688 565.929688 Z M 572.726562 150.835938 " clip-rule="nonzero"/></clipPath><clipPath id="d6ea2bd58d"><path d="M 24 414 L 416 414 L 416 590 L 24 590 Z M 24 414 " clip-rule="nonzero"/></clipPath><clipPath id="69fb3a535b"><path d="M 0.597656 430.15625 L 400.480469 381.628906 L 435.75 672.25 L 35.867188 720.78125 Z M 0.597656 430.15625 " clip-rule="nonzero"/></clipPath><clipPath id="54c0d30b41"><path d="M 0.597656 430.15625 L 400.480469 381.628906 L 435.75 672.25 L 35.867188 720.78125 Z M 0.597656 430.15625 " clip-rule="nonzero"/></clipPath></defs><g clip-path="url(#baf6ecdf52)"><g clip-path="url(#9951913030)"><g clip-path="url(#1cc5986754)"><path fill="#4a7c59" d="M 422.277344 673.359375 C 448.328125 662.445312 475.992188 648.015625 503.148438 638.058594 C 532.007812 627.535156 563.050781 625.894531 592.773438 618.921875 C 644.742188 605.625 676.265625 554.425781 686.554688 504.675781 C 694.5625 469.132812 687.613281 431.675781 670.105469 399.828125 C 664.828125 388.945312 656.214844 381.007812 647.996094 372.75 C 637.003906 361.695312 625.484375 351.136719 611.804688 343.371094 C 567.535156 319.605469 516.492188 314.1875 469.101562 299.09375 C 464.527344 297.773438 460.675781 295.1875 457.058594 292.128906 C 436.761719 273.949219 415.234375 253.90625 386.464844 252.617188 C 338.113281 246.855469 289.035156 274.296875 267.644531 318.074219 C 262.382812 329.15625 259.035156 340.980469 253.589844 351.941406 C 238.355469 384.726562 225.445312 422.339844 194.273438 443.535156 C 159.429688 461.429688 129.667969 442.273438 95.9375 470.3125 C 62.503906 495.5 67.652344 544.265625 83.507812 578.332031 C 99.160156 608.648438 124.042969 633.421875 151.738281 652.914062 C 238.742188 709.097656 327.628906 714.097656 422.277344 673.359375 Z M 422.277344 673.359375 " fill-opacity="1" fill-rule="nonzero"/></g></g></g><g clip-path="url(#d6ea2bd58d)"><g clip-path="url(#69fb3a535b)"><g clip-path="url(#54c0d30b41)"><path fill="#afcc66" d="M 252.761719 680.285156 C 234.429688 682.355469 214.058594 682.933594 195.398438 685.898438 C 175.589844 689.085938 157.359375 698.03125 138.1875 703.519531 C 104.3125 712.480469 70.03125 693.316406 48.328125 668.214844 C 32.441406 650.492188 24.480469 626.914062 24.324219 603.179688 C 23.871094 595.289062 26.257812 588.019531 28.316406 580.691406 C 31.066406 570.886719 34.273438 561.199219 39.605469 552.414062 C 57.289062 524.761719 84.675781 505.421875 106.898438 481.726562 C 109.089844 479.515625 110.460938 476.816406 111.550781 473.921875 C 117.339844 457.089844 123.238281 438.800781 139.238281 428.90625 C 164.980469 410.226562 201.710938 410.257812 227.847656 428.414062 C 234.375 433.058594 240.050781 438.738281 246.644531 443.253906 C 265.773438 457.105469 285.113281 474.445312 309.636719 476.613281 C 335.210938 475.722656 346.085938 455.324219 374.25 460.578125 C 401.339844 464.300781 413.929688 493.75 415.730469 518.230469 C 416.457031 540.503906 410.148438 562.554688 400.5625 582.492188 C 368.824219 642.238281 319.71875 673.386719 252.761719 680.285156 Z M 252.761719 680.285156 " fill-opacity="1" fill-rule="nonzero"/></g></g></g></svg>