<svg xmlns="http://www.w3.org/2000/svg" xmlns:xlink="http://www.w3.org/1999/xlink" width="300" zoomAndPan="magnify" viewBox="0 0 224.87999 225" height="300" preserveAspectRatio="xMidYMid meet" version="1.0"><defs><clipPath id="8b2cbf9e19"><path d="M 71 26 L 147 26 L 147 190 L 71 190 Z M 71 26 " clip-rule="nonzero"/></clipPath><clipPath id="3835c18eaa"><path d="M 171.308594 174.636719 L 88.132812 202.449219 L 35.832031 46.050781 L 119.007812 18.238281 Z M 171.308594 174.636719 " clip-rule="nonzero"/></clipPath><clipPath id="7818e45dbd"><path d="M 171.308594 174.636719 L 88.132812 202.449219 L 35.832031 46.050781 L 119.007812 18.238281 Z M 171.308594 174.636719 " clip-rule="nonzero"/></clipPath></defs><g clip-path="url(#8b2cbf9e19)"><g clip-path="url(#3835c18eaa)"><g clip-path="url(#7818e45dbd)"><path fill="#4a7c59" d="M 72.113281 154.121094 C 70.941406 149.816406 73.59375 145.488281 78.304688 145.390625 C 80.671875 145.34375 82.914062 145.796875 85.007812 146.867188 C 87.820312 148.304688 90.871094 149.128906 93.789062 150.289062 C 96.914062 151.535156 99.757812 153.222656 102.558594 155.027344 C 107.535156 158.226562 112.597656 161.28125 117.703125 164.273438 C 121.761719 166.652344 125.914062 168.921875 129.457031 172.097656 C 131.308594 173.753906 132.359375 175.996094 133.738281 177.988281 C 134.503906 179.089844 134.390625 180.503906 134.003906 181.757812 C 132.941406 185.230469 131.136719 188.082031 127.214844 189.105469 C 124.765625 190.167969 122.148438 189.871094 119.558594 189.285156 C 113.757812 187.980469 108.539062 185.324219 103.480469 182.277344 C 99.003906 179.578125 94.488281 176.929688 90.453125 173.59375 C 85.074219 169.148438 79.734375 164.65625 75.320312 159.160156 C 74.042969 157.566406 72.675781 156.1875 72.113281 154.121094 Z M 93.308594 117.195312 C 95.46875 117.289062 97.625 117.0625 99.792969 117.503906 C 105.414062 118.644531 111.09375 119.363281 116.835938 119.496094 C 120.808594 119.589844 124.761719 119.234375 128.703125 118.792969 C 133.273438 118.28125 137.628906 117.136719 141.546875 114.554688 C 147.9375 110.347656 147.402344 103.144531 144.164062 98.214844 C 142.71875 96.007812 140.300781 95.894531 137.964844 95.773438 C 133.515625 95.539062 129.144531 96.453125 124.742188 96.8125 C 118.949219 97.285156 113.144531 97.625 107.367188 98.292969 C 103.183594 98.773438 99.101562 99.5625 95.316406 100.648438 C 93.300781 101.4375 91.460938 102.078125 89.554688 101.84375 C 87.0625 101.542969 83.355469 104.195312 82.472656 106.996094 C 82.027344 108.410156 81.832031 109.878906 82.679688 111.28125 C 85.09375 115.285156 88.765625 116.996094 93.308594 117.195312 Z M 75.894531 70.558594 C 76.171875 71.1875 76.902344 71.332031 77.339844 71.816406 C 78.683594 73.304688 80.742188 73.445312 82.136719 72.054688 C 83.539062 70.65625 84.90625 69.195312 86.160156 67.65625 C 92.097656 60.375 96.09375 51.980469 99.714844 43.410156 C 101.152344 40.007812 102.1875 36.453125 101.660156 32.621094 C 101.246094 29.59375 99.394531 27.585938 96.390625 27.09375 C 94.558594 26.792969 92.820312 27.230469 91.09375 27.640625 C 88.792969 28.191406 87.214844 29.613281 86.273438 31.820312 C 85.488281 33.660156 84.957031 35.570312 84.390625 37.46875 C 83.363281 40.894531 81.4375 43.96875 80.40625 47.355469 C 78.6875 53.007812 77.183594 58.730469 75.449219 64.382812 C 74.988281 65.886719 74.558594 67.535156 75.441406 69.234375 C 75.5625 69.597656 75.6875 70.097656 75.894531 70.558594 Z M 90.863281 136.800781 C 95.332031 137.191406 99.53125 138.96875 104.035156 139.207031 C 106.53125 139.34375 109.007812 139.777344 111.417969 138.65625 C 113.398438 138.222656 115.074219 137.316406 115.628906 135.167969 C 116.25 132.773438 115.273438 130.945312 112.644531 129.640625 C 106.863281 126.773438 100.6875 125.957031 94.320312 126.222656 C 93.265625 126.269531 92.210938 126.46875 91.15625 126.457031 C 89.777344 126.445312 88.628906 127.019531 87.785156 127.949219 C 85.890625 130.046875 86.324219 132.027344 87.835938 134.5625 C 88.492188 135.660156 89.453125 136.675781 90.863281 136.800781 Z M 96.648438 70.613281 C 93.558594 71.644531 91.121094 73.144531 88.601562 75.585938 C 87.207031 76.9375 85.746094 78.195312 84.132812 79.296875 C 81.296875 81.234375 80.964844 85.21875 83.355469 87.585938 C 83.546875 87.773438 83.714844 88.007812 83.820312 88.246094 C 84.761719 90.3125 86.570312 90.945312 88.390625 89.710938 C 91.675781 87.476562 95.332031 85.964844 98.867188 84.214844 C 101.503906 82.910156 103.976562 81.359375 105.175781 78.476562 C 105.769531 77.046875 106.167969 75.523438 105.441406 74.054688 C 103.964844 71.066406 99.902344 69.523438 96.648438 70.613281 Z M 96.648438 70.613281 " fill-opacity="1" fill-rule="nonzero"/></g></g></g></svg>