<svg xmlns="http://www.w3.org/2000/svg" xmlns:xlink="http://www.w3.org/1999/xlink" width="392" zoomAndPan="magnify" viewBox="0 0 294 198.749996" height="265" preserveAspectRatio="xMidYMid meet" version="1.0"><defs><g/><clipPath id="e88db3c91c"><path d="M 38.601562 168.871094 L 255.078125 168.871094 L 255.078125 170.371094 L 38.601562 170.371094 Z M 38.601562 168.871094 " clip-rule="nonzero"/></clipPath><clipPath id="eb69347bb0"><path d="M 96 7 L 199 7 L 199 117.601562 L 96 117.601562 Z M 96 7 " clip-rule="nonzero"/></clipPath><clipPath id="b25ae524f7"><path d="M 91.402344 11 L 167 11 L 167 114 L 91.402344 114 Z M 91.402344 11 " clip-rule="nonzero"/></clipPath></defs><g clip-path="url(#e88db3c91c)"><path fill="#4a7c59" d="M 38.601562 168.871094 L 255.078125 168.871094 L 255.078125 170.371094 L 38.601562 170.371094 Z M 38.601562 168.871094 " fill-opacity="1" fill-rule="nonzero"/></g><g clip-path="url(#eb69347bb0)"><path fill="#c8d5b9" d="M 147.925781 117.660156 C 192.027344 98.390625 159.75 69.101562 183.816406 33.496094 C 185.945312 50.566406 190.222656 69.085938 180.757812 87.136719 C 190.4375 71.875 195.125 39.792969 181.398438 25.640625 C 177.824219 21.957031 173.652344 18.699219 168.964844 16.035156 C 143.878906 1.828125 112.371094 9.378906 96.324219 32.691406 C 112.03125 8.199219 144.347656 0.00390625 169.96875 14.53125 C 175.191406 17.484375 179.738281 21.167969 183.566406 25.375 C 184.765625 26.679688 185.890625 28.039062 186.929688 29.453125 C 199.777344 46.484375 202.066406 70.175781 190.882812 89.910156 C 181.613281 106.246094 165.296875 116.050781 147.925781 117.660156 " fill-opacity="1" fill-rule="evenodd"/></g><g clip-path="url(#b25ae524f7)"><path fill="#4a7c59" d="M 118.382812 19.484375 C 118.222656 20.269531 118.472656 21.058594 118.832031 21.542969 C 119.152344 21.433594 119.582031 21.09375 119.832031 20.863281 C 119.816406 20.34375 119.601562 20.308594 119.386719 19.894531 C 119.082031 19.339844 119.046875 19.449219 118.382812 19.484375 Z M 116.398438 21.113281 C 116.828125 21.328125 117.257812 21.328125 117.488281 20.863281 C 117.828125 19.679688 116.542969 19.339844 115.988281 20.128906 C 115.664062 20.613281 115.988281 20.898438 116.398438 21.113281 Z M 115.914062 28.144531 C 116.023438 27.714844 116.148438 28.054688 116.058594 27.070312 C 115.449219 26.875 114.984375 26.964844 114.554688 27.429688 C 113.894531 28.144531 114.429688 28.269531 114.214844 28.878906 C 113.679688 28.949219 113.75 28.753906 113.160156 28.949219 C 112.75 30.039062 113.679688 29.953125 114.144531 30.34375 C 114.324219 30.488281 114.394531 30.632812 114.554688 30.757812 C 116.503906 30.472656 115.808594 28.574219 115.914062 28.144531 Z M 119.457031 26.335938 C 118.902344 26.175781 118.277344 25.800781 117.257812 26.371094 C 116.792969 26.605469 116.738281 27.859375 116.738281 28.378906 L 116.773438 28.964844 L 117.703125 29.023438 C 118.042969 27.625 117.902344 28.429688 118.761719 27.785156 C 119.0625 27.535156 119.027344 27.339844 119.207031 27.070312 C 119.492188 26.640625 119.476562 26.910156 119.457031 26.335938 Z M 119.0625 23.472656 C 119.0625 24.441406 119.027344 24.582031 119.441406 25.246094 L 123.96875 24.65625 C 124.539062 24.601562 125.792969 25.066406 125.792969 23.167969 C 125.792969 22.652344 125.289062 22.363281 124.664062 22.363281 C 123.609375 22.363281 122.410156 23.707031 121.265625 23.332031 C 120.65625 23.136719 121.285156 23.222656 120.386719 23.117188 L 120.316406 23.097656 L 120.191406 23.0625 C 120.441406 22.507812 120.65625 23.242188 120.65625 22.4375 C 120.65625 21.917969 120.046875 21.898438 119.566406 21.882812 C 119.027344 21.863281 118.5625 21.792969 118.117188 21.847656 C 117.5625 21.933594 117.703125 22.507812 118.042969 22.8125 C 118.347656 23.082031 118.847656 23.082031 119.0625 23.472656 Z M 113.929688 23.636719 C 113.75 24.386719 113.875 24.726562 114.839844 25.390625 C 115.054688 25.550781 115.433594 25.605469 115.773438 25.515625 C 116.542969 25.316406 116.46875 24.90625 116.488281 24.761719 L 117.472656 25.476562 C 118.421875 25.210938 118.8125 24.871094 118.3125 23.992188 L 117.453125 23.921875 C 117.132812 23.332031 117.042969 22.453125 116.058594 23.082031 C 115.359375 23.527344 114.984375 23.636719 113.929688 23.636719 Z M 107.039062 26.800781 C 107.308594 27.839844 109.207031 28.289062 110.226562 27.785156 C 110.976562 27.429688 110.796875 26.980469 111.515625 26.765625 C 112.105469 26.605469 111.816406 26.660156 112.230469 26.355469 C 112.460938 26.175781 112.855469 26.085938 113.050781 25.925781 C 113.035156 25.15625 112.925781 25.226562 112.425781 24.941406 C 112.535156 24.65625 112.515625 24.761719 112.445312 24.242188 C 111.136719 24.191406 111.765625 24.886719 111.261719 25.800781 L 110.082031 25.136719 C 109.582031 24.746094 109.472656 24.601562 108.847656 25.066406 C 108.277344 25.496094 107.273438 26.195312 107.039062 26.800781 Z M 130.585938 82.054688 C 129.835938 81.625 127.636719 81.300781 127.332031 83.234375 C 127.847656 83.324219 127.832031 83.164062 128.332031 83.378906 C 129.246094 83.734375 130.480469 83.359375 131.015625 82.964844 C 131.015625 82.605469 130.960938 82.269531 130.585938 82.054688 Z M 127.152344 81.285156 C 126.742188 81.140625 126.488281 80.890625 126.042969 80.65625 C 125.648438 80.460938 125.183594 80.28125 124.824219 80.101562 C 121.585938 78.5625 121.820312 79.40625 120.65625 79.421875 L 120.65625 80.390625 C 122.320312 80.265625 122.625 80.210938 124.46875 81.195312 C 125.523438 81.765625 125.09375 81.890625 125.757812 81.945312 L 125.988281 81.964844 C 126.113281 82 127.0625 82.910156 127.152344 81.285156 Z M 160.039062 38.21875 C 160.503906 38.109375 160.609375 37.964844 160.984375 38.484375 C 160.914062 38.789062 161.109375 38.628906 160.59375 38.753906 C 160.914062 40.472656 161.003906 39.148438 161.074219 40.203125 C 161.683594 40.328125 161.503906 40.1875 161.683594 40.828125 C 163.1875 41.042969 162.542969 41.347656 163.3125 41.347656 C 163.8125 41.347656 164.707031 40.9375 165.03125 40.722656 C 165.476562 40.4375 165.976562 39.808594 166.351562 39.667969 C 166.351562 38.753906 166.191406 38.289062 165.691406 37.769531 C 164.386719 36.429688 164.671875 37.429688 164.046875 37.429688 L 161.753906 37.429688 C 161.21875 37.429688 161.84375 37.035156 160.683594 36.894531 C 160.304688 37.394531 160.144531 37.359375 160.039062 38.21875 Z M 140.160156 26.320312 C 140.355469 27.484375 139.28125 27.589844 140.085938 28.574219 C 140.855469 28.519531 140.550781 28.144531 141.449219 28.054688 C 141.554688 28.234375 141.589844 28.234375 141.679688 28.429688 C 141.804688 28.734375 141.664062 28.664062 141.875 28.878906 C 142.179688 29.199219 142.683594 28.839844 142.414062 29.738281 C 141.714844 29.664062 142.003906 29.253906 141.339844 29.253906 C 139.695312 29.253906 140.300781 31.902344 141.125 31.902344 C 141.679688 31.902344 141.949219 31.707031 142.378906 31.527344 C 142.378906 31.078125 142.34375 31.078125 142.164062 30.773438 L 142.699219 30.773438 C 143.308594 32.652344 141.609375 32.242188 141.285156 33.136719 C 141.214844 33.351562 141.019531 33.511719 141.019531 33.796875 C 141.054688 38.378906 141.195312 35.640625 141.609375 37.394531 C 141.699219 37.789062 141.789062 38.46875 141.824219 38.953125 C 142.394531 38.914062 142.558594 38.683594 143.039062 38.84375 C 143.023438 39.148438 142.699219 39.253906 142.699219 39.828125 C 142.699219 41.042969 142.824219 41.257812 143.59375 42.152344 C 143.828125 42.421875 144.078125 42.546875 144.183594 42.816406 C 144.453125 43.585938 143.988281 43.566406 145.0625 43.816406 C 146.941406 44.265625 146.90625 45.820312 148.390625 44.695312 C 148.40625 43.601562 148.765625 43.300781 148.800781 42.441406 C 148.835938 41.382812 149.015625 41.007812 149.675781 40.578125 C 149.675781 39.898438 149.625 39.308594 149.804688 38.71875 C 150.070312 37.894531 150.214844 38.398438 150.449219 37.394531 C 151.554688 37.179688 152.253906 37.214844 153.09375 36.589844 C 154.132812 35.800781 154.5625 34.746094 154.9375 34.460938 C 154.957031 34.441406 155.152344 34.316406 155.1875 34.300781 C 155.726562 33.976562 156.460938 33.921875 157.175781 33.761719 C 159.929688 33.207031 158.320312 32.617188 159.984375 32.617188 C 160.164062 32.277344 160.378906 32.082031 160.554688 31.757812 C 160.769531 31.363281 160.71875 31.0625 161.058594 30.808594 L 160.734375 29.828125 C 160.609375 29.109375 160.539062 29.609375 160.253906 29.09375 C 160.144531 28.679688 160.414062 27.785156 160.378906 27.554688 C 160.289062 27.054688 160.089844 27.605469 160.089844 27.015625 C 160.089844 26.585938 160.234375 26.695312 160.304688 26.625 C 160.46875 26.445312 160.519531 26.425781 160.503906 26.445312 C 160.59375 26.335938 160.484375 26.460938 160.59375 26.28125 C 160.734375 26.050781 160.644531 26.121094 160.84375 25.890625 C 161.878906 24.53125 160.898438 24.761719 160.734375 23.902344 C 161.234375 23.957031 161.128906 24.296875 161.664062 24.492188 C 162.023438 24.136719 162.132812 24.046875 162.078125 23.367188 C 160.539062 23.007812 161.398438 23.136719 160.484375 22.347656 C 160.429688 22.3125 158.625 21.078125 159.769531 21.078125 C 160.234375 21.078125 160.394531 21.382812 160.824219 21.078125 C 161.234375 20.558594 160.144531 20.039062 159.949219 19.878906 C 159.554688 19.59375 158.980469 19.289062 158.980469 18.679688 C 158.980469 16.980469 160.394531 16.496094 160.414062 15.191406 C 155.347656 13.597656 157.136719 14.902344 156.191406 14.976562 L 156.226562 13.992188 C 154.757812 13.492188 155.527344 13.777344 154.382812 14.257812 C 154.132812 13.9375 154.347656 14.046875 154.152344 13.667969 C 154.007812 13.382812 153.988281 13.492188 153.847656 13.257812 C 153.722656 13.078125 153.6875 12.882812 153.597656 12.773438 C 153.4375 12.558594 153.308594 12.597656 153.203125 12.417969 L 160.808594 14.707031 C 156.796875 13.148438 152.574219 12.078125 148.175781 11.558594 C 148.191406 11.574219 148.210938 11.574219 148.210938 11.574219 C 147.746094 12.558594 146.777344 11.773438 146.332031 11.773438 C 145.507812 11.773438 146.136719 12.003906 145.203125 12.113281 C 143.523438 12.328125 141.859375 12.292969 140.195312 12.183594 C 139.300781 12.132812 138.761719 12.542969 137.832031 12.398438 C 137.1875 12.292969 136.671875 12.023438 135.9375 12.113281 C 133.96875 12.382812 132.285156 12.792969 130.355469 13.113281 C 128.457031 13.4375 127.1875 14.421875 125.164062 14.421875 C 124.789062 14.832031 125.074219 14.921875 124.34375 14.976562 C 123.824219 15.027344 123.554688 15.117188 123.394531 15.546875 C 123.644531 16.066406 123.824219 15.746094 124.019531 16.265625 C 123.089844 16.28125 123.554688 16.03125 123 16.03125 L 122.160156 16.03125 C 121.925781 16.175781 120.550781 17.480469 120.335938 17.695312 C 119.941406 18.125 120.101562 18.375 120.351562 18.929688 C 120.960938 20.234375 121.265625 19.878906 122 19.574219 C 122.375 20.003906 122.285156 19.84375 122.265625 20.789062 C 121.945312 21.023438 121.515625 21.273438 121.230469 21.59375 C 121.246094 21.613281 121.335938 21.738281 121.371094 21.773438 C 122.035156 22.507812 124.503906 21.847656 124.96875 21.417969 C 125.503906 21.667969 125.453125 21.808594 126.1875 21.558594 C 127.902344 20.933594 126.9375 20.683594 127.582031 19.503906 C 127.976562 18.804688 128.027344 18.949219 128.617188 18.820312 C 129.28125 18.660156 129.621094 16.746094 131.160156 15.996094 C 132.109375 15.546875 132.429688 15.242188 133.253906 14.5625 C 133.878906 14.0625 133.808594 14.3125 133.824219 13.347656 C 134.34375 13.3125 134.792969 13.382812 135.4375 13.1875 C 135.847656 13.0625 136.472656 12.828125 136.957031 13.0625 C 136.9375 13.492188 136.992188 13.3125 136.3125 13.542969 C 135.507812 13.8125 134.917969 14.242188 134.128906 14.472656 L 134.148438 15.226562 C 134.542969 15.242188 134.773438 15.28125 134.96875 15.546875 C 134.773438 15.976562 134.703125 15.566406 134.363281 16.265625 C 132.859375 16.265625 132.714844 16.890625 131.554688 17.230469 C 131.085938 17.371094 130.765625 17.175781 130.765625 17.640625 C 130.765625 19.59375 132.609375 18.285156 134.128906 18.769531 C 133.71875 19.859375 132.285156 19.035156 131.660156 19.199219 C 131.410156 19.269531 131.265625 19.429688 131.085938 19.554688 C 131.140625 20.574219 131.390625 20.109375 131.875 20.34375 C 132.160156 20.46875 132.25 21.003906 132.410156 21.292969 C 133.753906 21.113281 135.078125 20.914062 136.4375 20.914062 C 137.3125 20.914062 138.636719 22.382812 138.941406 23.042969 C 139.121094 23.4375 139.015625 23.207031 139.230469 23.492188 C 139.460938 23.832031 140.105469 26.035156 140.160156 26.320312 Z M 125.71875 31.203125 C 126.238281 31.597656 126.507812 32.367188 126.507812 33.171875 C 127.027344 33.171875 127.847656 33.226562 127.847656 33.726562 C 127.492188 34.046875 126.6875 33.761719 126.132812 33.976562 C 125.71875 34.246094 125.542969 35.640625 126.722656 35.550781 C 127.796875 35.460938 127.847656 34.515625 128.582031 34.566406 C 128.691406 36.445312 128.117188 35.550781 127.617188 37.074219 C 127.527344 37.359375 127.582031 37.535156 127.527344 37.894531 C 125.828125 37.984375 125.164062 38.054688 125.164062 39.503906 C 126.722656 40.007812 126.222656 39.648438 127.6875 39.273438 C 129.511719 40.6875 128.0625 40.882812 131.105469 42.242188 C 131.785156 42.546875 132.035156 42.796875 132.664062 42.421875 C 132.484375 41.132812 131.25 41.152344 131.175781 40.507812 C 132.109375 40.578125 132.714844 41.222656 133.644531 41.4375 C 134.289062 39.59375 133.773438 39.558594 133.164062 38.84375 C 132.214844 37.734375 132 37.859375 132.054688 36.355469 C 133.378906 36.570312 132.929688 38.269531 134.363281 38.234375 C 135.398438 38.21875 135.847656 35.785156 135.8125 35.710938 C 135.542969 35.085938 135.273438 35.445312 134.828125 35.085938 L 133.949219 34.300781 C 132.285156 32.902344 132.375 33.921875 132.359375 32.617188 C 132.644531 32.597656 132.699219 32.582031 132.839844 32.492188 C 132.839844 32.421875 132.554688 30.417969 132.410156 30.648438 C 132.394531 30.683594 132.324219 30.613281 132.269531 30.578125 C 131.714844 30.273438 131.980469 30.398438 131.625 30.058594 C 131.140625 29.628906 131.140625 30.023438 130.660156 29.574219 C 129.78125 28.753906 130.246094 28.394531 128.816406 28.679688 C 128.65625 28.449219 128.492188 28.324219 128.277344 28.089844 C 127.992188 27.75 127.671875 27.035156 127.457031 26.605469 C 127.1875 26.070312 127.277344 26.550781 127.292969 25.835938 C 125.773438 25.460938 127.132812 25.566406 124.664062 25.566406 C 124.21875 25.566406 124.519531 25.765625 123.714844 25.800781 C 123.5 25.820312 123.464844 25.78125 123.269531 25.851562 C 123 25.945312 123.339844 25.90625 122.855469 26.105469 C 121.855469 24.832031 120.066406 27.089844 119.601562 28.109375 C 119.457031 28.378906 119.207031 29.253906 119.082031 29.46875 C 119.691406 29.953125 119.761719 29.609375 120.261719 30.328125 C 119.886719 30.953125 119.90625 30.558594 119.636719 31.542969 C 121.03125 31.867188 123.054688 31.882812 124.558594 31.707031 C 125.46875 31.578125 125.183594 31.417969 125.71875 31.203125 Z M 117.078125 49.398438 C 118.097656 49.757812 119.011719 50.277344 119.90625 50.847656 C 120.746094 51.386719 121.445312 50.902344 122 51.546875 C 122.304688 52.246094 121.496094 54.175781 122.625 54.785156 L 123.519531 55.304688 C 124.789062 54.679688 123.714844 53.730469 123.714844 52.746094 L 123.878906 51.761719 C 124.054688 51.1875 123.804688 51.511719 124.359375 51.296875 C 125.039062 51.0625 124.824219 50.972656 125.148438 50.332031 C 125.488281 49.667969 125.417969 49.792969 125.253906 48.953125 C 124.988281 47.449219 124.054688 47.128906 124.558594 46.5 C 125.039062 45.894531 125.003906 46.234375 124.988281 45.140625 C 124.988281 44.550781 125.003906 43.960938 124.988281 43.371094 C 124.988281 41.921875 124.484375 42.207031 128.207031 42.242188 C 128.457031 42.617188 129.15625 43.371094 129.460938 43.585938 C 129.890625 43.851562 130.015625 43.675781 130.230469 44.175781 C 130.855469 45.605469 130.03125 46.375 129.980469 46.914062 C 130.355469 46.914062 130.640625 46.789062 130.875 46.859375 C 131.535156 47.039062 131.5 47.664062 132.394531 46.714844 C 133.179688 45.894531 132.609375 45.589844 133.074219 45.015625 C 133.699219 44.246094 134.238281 45.554688 134.433594 46 C 134.738281 46.625 135.09375 47.144531 135.347656 47.808594 C 135.382812 47.898438 135.417969 47.984375 135.453125 48.113281 C 135.542969 48.328125 135.597656 48.34375 135.632812 48.46875 C 135.828125 49.148438 134.882812 49.148438 136.078125 50.082031 C 136.457031 50.367188 136.652344 50.707031 136.957031 51.0625 L 138.261719 51.136719 L 138.710938 52.136719 C 138.746094 52.246094 138.800781 52.421875 138.871094 52.511719 C 139.230469 52.980469 138.835938 52.53125 139.15625 52.726562 C 139.390625 52.871094 139.300781 52.765625 139.445312 52.960938 C 139.980469 53.640625 139.746094 54.804688 139.746094 55.769531 C 139.746094 56.378906 139.355469 56.074219 139.445312 57.039062 C 140.035156 57.253906 139.980469 57.21875 140.730469 57.238281 C 140.945312 57.757812 140.929688 57.414062 141.035156 58.167969 C 141.109375 58.6875 141.234375 58.703125 141.519531 59.042969 C 141.984375 59.597656 141.914062 60.476562 141.019531 60.277344 C 139.621094 59.972656 139.945312 59.222656 136.9375 59.222656 C 137.082031 58.703125 137.367188 58.417969 137.566406 57.933594 C 137.816406 57.328125 138.40625 56.289062 138.351562 55.734375 C 137.351562 55.519531 137.296875 56.019531 137.207031 56.433594 C 136.921875 56.46875 135.042969 56.699219 134.882812 56.808594 C 135.007812 56.96875 135.167969 56.984375 135.417969 56.984375 L 135.398438 57.953125 C 133.914062 57.953125 134.34375 57.933594 133.699219 57.148438 C 133.253906 56.59375 132.375 56.914062 131.785156 57.164062 C 130.835938 57.542969 130.820312 57.503906 130.355469 58.347656 C 129.960938 59.042969 129.296875 59.117188 129.246094 59.886719 C 130.140625 59.796875 130.015625 58.9375 131.085938 58.238281 C 131.515625 57.953125 132.554688 57.289062 133.128906 57.503906 C 134.253906 57.917969 132.644531 58.6875 133.789062 59.667969 C 134.039062 59.867188 134.378906 59.921875 134.648438 60.0625 C 135.453125 60.421875 135.9375 60.296875 136.777344 60.117188 C 136.777344 61.15625 136.8125 60.976562 136.257812 61.53125 C 135.828125 61.925781 135.632812 62.015625 134.96875 62.121094 C 134.378906 62.210938 134.289062 62.53125 133.824219 62.855469 C 133.253906 63.25 133.253906 63.230469 132.410156 63.230469 C 132.234375 62.226562 132.75 62.730469 132.75 61.980469 C 131.679688 61.90625 132.25 62.246094 131.375 62.480469 C 130.890625 62.605469 130.660156 62.640625 130.300781 62.960938 L 129.496094 63.714844 C 129.296875 64.035156 129.476562 64.609375 129.476562 65.074219 C 128.886719 65.269531 128.332031 65.46875 127.847656 65.84375 C 127.152344 66.363281 127.257812 66.542969 126.882812 67.382812 C 126.632812 67.953125 126.382812 68.4375 126.167969 69.171875 C 125.59375 71.121094 125.773438 70.476562 124.753906 71.496094 C 124.179688 72.070312 123.144531 72.535156 122.730469 73.234375 C 121.890625 74.699219 123.574219 75.273438 123.554688 77.652344 L 123.539062 78.0625 C 123.234375 78.0625 122.910156 78.0625 122.679688 77.972656 C 122.265625 77.8125 121.820312 76.648438 121.660156 76.183594 C 121.015625 74.449219 121.015625 74.074219 117.632812 74.484375 L 117.488281 75.09375 C 116.273438 75.273438 116.253906 74.609375 115.183594 74.609375 C 114.589844 74.609375 113.285156 75.683594 113.285156 76.203125 C 113.285156 79.726562 112.980469 78.777344 114 80.710938 C 114.269531 81.210938 114.484375 81.785156 115.074219 81.929688 C 116.378906 82.234375 117.347656 81.445312 117.542969 80.136719 C 118.722656 80.136719 118.511719 80.011719 119.316406 80.496094 C 119.261719 81.5 118.976562 81.640625 118.976562 83.539062 C 119.617188 83.933594 120.675781 84.003906 121.425781 84.324219 C 122.320312 84.71875 122.035156 85.953125 122.035156 87.132812 C 122.179688 87.386719 122.515625 87.6875 122.714844 87.832031 C 123.160156 88.207031 123.199219 88.082031 123.75 88.03125 C 125.488281 87.832031 124.753906 88.28125 125.917969 88.566406 C 126.382812 88.28125 126.5625 87.726562 127.242188 87.421875 C 127.527344 87.3125 127.886719 87.226562 128.1875 87.117188 C 129.261719 86.722656 127.722656 85.773438 130.925781 87.332031 L 131.804688 87.796875 C 132.804688 88.261719 134.59375 87.636719 135.238281 88.03125 C 135.652344 88.28125 135.363281 88.351562 135.6875 88.621094 C 135.9375 88.796875 136.546875 88.886719 137.101562 89.300781 C 137.511719 89.605469 138.636719 90.625 138.941406 90.695312 C 140.425781 91.054688 142.039062 90.445312 143.148438 92.71875 C 143.988281 94.488281 142.808594 93.96875 144.847656 94.363281 C 145.277344 94.433594 145.527344 94.542969 145.972656 94.683594 C 147.675781 95.203125 147.386719 95.542969 148.621094 95.367188 C 149.589844 95.222656 151.984375 96.511719 152.878906 96.832031 C 152.878906 98.925781 152.664062 98.605469 151.449219 99.75 C 151 100.160156 150.5 100.390625 150.304688 100.804688 C 150.179688 101 150 102.128906 149.855469 102.539062 C 149.535156 103.453125 148.855469 104.578125 148.050781 105.097656 C 147.621094 105.382812 146.492188 105.007812 144.667969 106.207031 C 144.167969 106.546875 144.132812 107.425781 142.683594 108.585938 C 142.414062 108.800781 142.269531 108.820312 142.074219 109.035156 C 141.679688 109.464844 142.054688 109.375 141.394531 109.519531 C 139.265625 109.929688 140.105469 110.664062 138.421875 110.878906 C 137.90625 110.949219 137.0625 111.144531 136.707031 111.359375 C 135.8125 111.914062 135.382812 112.703125 134.613281 113.132812 C 134.417969 113.238281 134.59375 113.132812 134.417969 113.257812 C 134.289062 113.347656 133.933594 113.632812 133.144531 113.238281 C 132.644531 113.007812 132.054688 113.1875 131.480469 113.042969 C 131.425781 112.164062 131.070312 112.988281 131.425781 112.148438 C 131.625 111.664062 131.625 111.449219 131.320312 111.128906 C 130.515625 110.289062 130.53125 110.289062 131 109.195312 C 131.535156 107.90625 130.785156 107.925781 131.105469 107.03125 C 131.214844 106.78125 131.214844 106.996094 131.25 106.53125 L 131.300781 103.503906 C 131.230469 103.128906 131.320312 103.46875 131.125 103.203125 C 130.710938 102.664062 130.890625 102.648438 130.175781 102.359375 C 127.921875 101.429688 127.761719 100.984375 126.398438 99.15625 C 126.203125 98.890625 126.113281 98.695312 125.933594 98.480469 C 123.125 94.933594 124.484375 96.742188 124.21875 94.578125 C 124.179688 94.183594 124.179688 93.789062 124.199219 93.378906 C 124.648438 92.984375 125.792969 91.859375 125.792969 91.195312 C 125.792969 90.550781 125.21875 89.210938 124.558594 89.210938 C 122.570312 89.210938 123.679688 89.730469 121.75 88.601562 C 120.621094 87.921875 120.085938 86.152344 118.886719 85.722656 C 118.457031 85.578125 118.457031 85.578125 118.082031 85.382812 C 117.652344 85.148438 117.527344 85.273438 117.203125 85.128906 C 116.898438 84.988281 116.988281 84.828125 116.578125 84.613281 C 116.113281 84.34375 116.253906 84.484375 115.898438 84.128906 C 115.433594 83.644531 114.753906 83.789062 114.125 83.734375 C 113.554688 83.679688 113.179688 83.269531 112.625 83.039062 C 111.03125 82.359375 109.511719 81.460938 109.027344 79.746094 C 108.703125 78.582031 107.863281 77.902344 107.21875 76.972656 L 104.804688 73.125 C 104.535156 72.765625 104.769531 72.964844 104.445312 72.875 C 104.320312 73.25 104.355469 73.304688 104.570312 73.574219 C 105.109375 74.269531 104.644531 74.269531 105.089844 74.628906 L 105.574219 75.378906 C 105.734375 75.753906 105.914062 76.042969 106.164062 76.453125 C 106.539062 77.0625 107.792969 77.742188 106.84375 78.492188 C 105.894531 78.367188 105.160156 76.363281 104.660156 75.664062 C 104.285156 75.164062 104.054688 74.59375 103.785156 74.054688 C 103.285156 73.070312 103.050781 71.246094 102.15625 70.566406 C 101.191406 69.867188 99.578125 66.433594 99.578125 65.574219 C 99.578125 64.269531 99.417969 62.960938 99.703125 61.636719 C 99.792969 61.171875 99.992188 61.246094 99.742188 60.707031 C 99.3125 59.8125 99.917969 59.707031 99.113281 58.722656 C 97.988281 57.34375 98.972656 56.898438 98.328125 55.664062 C 98.167969 55.359375 98.09375 55.195312 97.808594 54.984375 C 97.308594 54.605469 98.558594 53.210938 96.699219 53.210938 C 96.699219 52.496094 96.25 51.707031 96.164062 50.957031 C 96.109375 50.546875 96.234375 50.6875 96.019531 50.367188 L 95.410156 49.488281 C 95 49.113281 94.875 49.308594 94.589844 49.542969 C 94.160156 49.902344 94.355469 49.652344 93.996094 49.8125 C 93.640625 49.953125 93.515625 50.492188 93.390625 50.847656 C 93.011719 51.976562 93.566406 52.890625 92.371094 53.195312 C 92.011719 52.566406 92.421875 52.011719 92.066406 51.636719 C 91.851562 52.800781 91.617188 52.171875 91.4375 52.980469 C 92.421875 47.84375 94.175781 42.976562 96.574219 38.484375 C 96.503906 38.664062 96.484375 38.808594 96.503906 38.898438 C 96.878906 39.128906 97.308594 38.683594 97.753906 38.539062 C 98.34375 38.359375 98.738281 38.414062 99.453125 38.378906 C 99.617188 38.109375 99.632812 37.949219 99.792969 37.679688 C 99.957031 37.414062 100.152344 37.25 100.3125 37.054688 C 101.046875 36.230469 101.191406 36.464844 102.15625 36.464844 C 102.730469 36.464844 103.605469 35.800781 104.140625 35.785156 C 104.554688 35.785156 105.375 36 105.804688 36.195312 C 106.128906 36.320312 106.074219 36.285156 106.269531 36.464844 L 106.183594 37.304688 C 106.398438 37.414062 107.203125 37.035156 108.097656 37.035156 C 108.527344 37.035156 108.4375 37.394531 108.757812 37.609375 C 108.902344 37.714844 108.917969 37.699219 109.117188 37.734375 C 109.132812 36.929688 109.296875 37.019531 108.828125 36.5 C 108.417969 36.035156 108.652344 36.140625 107.988281 36.140625 C 107.558594 36.140625 107.703125 36.730469 106.988281 35.945312 C 106.398438 35.28125 106.484375 35.710938 105.824219 35.371094 C 105.699219 34.710938 106.058594 34.476562 106.574219 34.335938 C 107.34375 34.136719 107.183594 34.210938 107.648438 33.691406 C 107.023438 33.386719 106.933594 33.921875 106.058594 33.746094 C 105.804688 33.402344 106.058594 33.726562 105.929688 33.457031 L 105.464844 32.671875 C 105.199219 33.066406 105.035156 33.011719 104.679688 33.386719 C 104.355469 33.746094 104.230469 33.816406 103.605469 33.691406 C 103.550781 32.421875 104.660156 30.503906 105.539062 29.558594 C 105.878906 29.199219 106.808594 29.09375 107.363281 29.09375 C 107.882812 29.09375 108.6875 29.773438 108.957031 30.003906 C 109.242188 30.238281 109.382812 30.398438 109.636719 30.59375 L 109.976562 30.882812 C 110.242188 31.167969 109.886719 31.078125 110.386719 31.167969 C 110.40625 31.148438 110.421875 31.097656 110.421875 31.113281 C 110.476562 31.3125 110.476562 30.988281 110.476562 30.953125 C 110.707031 30.257812 110.761719 29.539062 111.085938 28.859375 C 111.351562 28.339844 112.660156 27.25 112.660156 28.484375 C 112.660156 28.949219 112.335938 29.269531 111.925781 29.378906 C 111.925781 30.023438 111.890625 30.773438 111.925781 31.402344 C 111.980469 32.726562 113.375 31.828125 112.980469 33.207031 C 112.890625 33.546875 112.675781 33.617188 112.425781 33.796875 C 112.714844 35.265625 112.015625 34.871094 111.371094 35.085938 L 111.15625 35.175781 L 111.085938 35.210938 L 110.960938 35.28125 L 110.886719 35.320312 C 110.886719 35.320312 110.851562 35.335938 110.835938 35.355469 C 110.960938 35.625 111.390625 35.839844 111.640625 36.085938 L 112.890625 36.070312 C 113.285156 35.660156 113.535156 35.480469 113.804688 34.816406 C 114.074219 34.15625 114.035156 33.816406 114.539062 33.277344 C 115.539062 33.277344 114.894531 33.546875 115.503906 33.746094 C 115.808594 33.746094 116.363281 33.78125 116.164062 33.332031 C 116.09375 33.15625 115.449219 32.992188 115.449219 32.546875 C 115.449219 30.648438 115.824219 31.097656 116.164062 30.503906 C 116.503906 29.914062 116.128906 30.058594 117.167969 30.058594 C 117.597656 30.058594 117.867188 31.382812 117.867188 31.8125 C 117.867188 32.617188 117.597656 32.1875 118.042969 32.902344 C 118.332031 33.367188 118.242188 33.691406 118.421875 34.121094 C 118.8125 33.996094 118.992188 33.441406 119.101562 33.027344 C 119.171875 33.101562 119.207031 33.117188 119.226562 33.117188 C 119.226562 33.136719 119.226562 33.171875 119.277344 33.261719 C 119.316406 33.351562 119.332031 33.476562 119.367188 33.566406 C 119.691406 33.53125 119.601562 33.457031 119.851562 33.582031 C 119.851562 34.15625 119.476562 34.925781 119.726562 35.496094 C 120.066406 35.605469 120.136719 35.535156 120.425781 35.390625 C 120.496094 35.015625 120.476562 34.65625 120.640625 34.335938 C 120.816406 33.941406 121.050781 33.886719 121.230469 33.582031 C 121.410156 32.851562 120.566406 31.453125 123.5 32.652344 C 123.519531 33.15625 123.394531 33.671875 123.394531 34.101562 C 123.394531 35.410156 123.839844 35.460938 122.820312 36.429688 C 122.5 36.714844 122.570312 36.894531 122.125 37.339844 C 122.179688 37.734375 122.25 37.625 122.230469 37.929688 C 122.195312 38.253906 122.089844 38.179688 122.035156 38.574219 C 122.554688 39.238281 123.625 39.792969 123.484375 40.828125 C 122.839844 41.167969 122.714844 40.652344 121.835938 40.5625 C 121.660156 41.277344 121.730469 41.097656 120.90625 41.207031 C 120.386719 41.277344 119.886719 41.007812 119.816406 40.597656 C 119.691406 39.988281 120.261719 39.953125 120.261719 39.414062 C 120.261719 39.003906 120.210938 38.773438 119.976562 38.59375 C 119.457031 39.09375 120.386719 39.414062 118.527344 40.667969 C 116.917969 41.761719 118.007812 42.171875 116.898438 42.582031 C 115.628906 43.066406 116.378906 42.886719 115.398438 44.640625 C 114.894531 45.554688 114.464844 46.105469 115.074219 47.34375 C 115.683594 47.683594 115.574219 47.128906 115.789062 47.96875 C 116.003906 48.898438 116.183594 49.113281 117.078125 49.398438 " fill-opacity="1" fill-rule="evenodd"/></g><g fill="#2a2a2a" fill-opacity="1"><g transform="translate(27.671656, 153.047892)"><g><path d="M 12.46875 -10.203125 C 12.070312 -11.035156 11.492188 -11.679688 10.734375 -12.140625 C 9.984375 -12.609375 9.101562 -12.84375 8.09375 -12.84375 C 7.09375 -12.84375 6.191406 -12.609375 5.390625 -12.140625 C 4.585938 -11.679688 3.953125 -11.019531 3.484375 -10.15625 C 3.023438 -9.300781 2.796875 -8.3125 2.796875 -7.1875 C 2.796875 -6.0625 3.023438 -5.070312 3.484375 -4.21875 C 3.953125 -3.375 4.585938 -2.71875 5.390625 -2.25 C 6.191406 -1.789062 7.09375 -1.5625 8.09375 -1.5625 C 9.5 -1.5625 10.65625 -1.976562 11.5625 -2.8125 C 12.46875 -3.65625 13 -4.789062 13.15625 -6.21875 L 7.421875 -6.21875 L 7.421875 -7.75 L 15.140625 -7.75 L 15.140625 -6.3125 C 15.035156 -5.125 14.664062 -4.039062 14.03125 -3.0625 C 13.40625 -2.082031 12.578125 -1.304688 11.546875 -0.734375 C 10.515625 -0.160156 9.363281 0.125 8.09375 0.125 C 6.757812 0.125 5.539062 -0.1875 4.4375 -0.8125 C 3.34375 -1.4375 2.476562 -2.304688 1.84375 -3.421875 C 1.207031 -4.535156 0.890625 -5.789062 0.890625 -7.1875 C 0.890625 -8.59375 1.207031 -9.851562 1.84375 -10.96875 C 2.476562 -12.09375 3.34375 -12.96875 4.4375 -13.59375 C 5.539062 -14.21875 6.757812 -14.53125 8.09375 -14.53125 C 9.625 -14.53125 10.972656 -14.148438 12.140625 -13.390625 C 13.316406 -12.640625 14.175781 -11.578125 14.71875 -10.203125 Z M 12.46875 -10.203125 "/></g></g></g><g fill="#2a2a2a" fill-opacity="1"><g transform="translate(47.87287, 153.047892)"><g><path d="M 9.15625 0 L 5.734375 -5.875 L 3.46875 -5.875 L 3.46875 0 L 1.59375 0 L 1.59375 -14.359375 L 6.21875 -14.359375 C 7.3125 -14.359375 8.226562 -14.171875 8.96875 -13.796875 C 9.71875 -13.429688 10.28125 -12.929688 10.65625 -12.296875 C 11.03125 -11.671875 11.21875 -10.953125 11.21875 -10.140625 C 11.21875 -9.148438 10.929688 -8.273438 10.359375 -7.515625 C 9.785156 -6.765625 8.929688 -6.265625 7.796875 -6.015625 L 11.390625 0 Z M 3.46875 -7.375 L 6.21875 -7.375 C 7.238281 -7.375 8.003906 -7.625 8.515625 -8.125 C 9.023438 -8.625 9.28125 -9.296875 9.28125 -10.140625 C 9.28125 -10.992188 9.023438 -11.648438 8.515625 -12.109375 C 8.015625 -12.578125 7.25 -12.8125 6.21875 -12.8125 L 3.46875 -12.8125 Z M 3.46875 -7.375 "/></g></g></g><g fill="#2a2a2a" fill-opacity="1"><g transform="translate(64.569797, 153.047892)"><g><path d="M 3.46875 -12.84375 L 3.46875 -8.03125 L 8.703125 -8.03125 L 8.703125 -6.484375 L 3.46875 -6.484375 L 3.46875 -1.546875 L 9.3125 -1.546875 L 9.3125 0 L 1.59375 0 L 1.59375 -14.390625 L 9.3125 -14.390625 L 9.3125 -12.84375 Z M 3.46875 -12.84375 "/></g></g></g><g fill="#2a2a2a" fill-opacity="1"><g transform="translate(79.308435, 153.047892)"><g><path d="M 3.46875 -12.84375 L 3.46875 -8.03125 L 8.703125 -8.03125 L 8.703125 -6.484375 L 3.46875 -6.484375 L 3.46875 -1.546875 L 9.3125 -1.546875 L 9.3125 0 L 1.59375 0 L 1.59375 -14.390625 L 9.3125 -14.390625 L 9.3125 -12.84375 Z M 3.46875 -12.84375 "/></g></g></g><g fill="#2a2a2a" fill-opacity="1"><g transform="translate(94.047071, 153.047892)"><g><path d="M 12.875 0 L 11 0 L 3.46875 -11.4375 L 3.46875 0 L 1.59375 0 L 1.59375 -14.390625 L 3.46875 -14.390625 L 11 -2.96875 L 11 -14.390625 L 12.875 -14.390625 Z M 12.875 0 "/></g></g></g><g fill="#2a2a2a" fill-opacity="1"><g transform="translate(112.702273, 153.047892)"><g/></g></g><g fill="#2a2a2a" fill-opacity="1"><g transform="translate(122.369991, 153.047892)"><g><path d="M 6.140625 0.140625 C 5.191406 0.140625 4.34375 -0.0234375 3.59375 -0.359375 C 2.84375 -0.691406 2.253906 -1.15625 1.828125 -1.75 C 1.410156 -2.351562 1.191406 -3.046875 1.171875 -3.828125 L 3.171875 -3.828125 C 3.242188 -3.160156 3.519531 -2.59375 4 -2.125 C 4.488281 -1.664062 5.203125 -1.4375 6.140625 -1.4375 C 7.035156 -1.4375 7.738281 -1.660156 8.25 -2.109375 C 8.769531 -2.554688 9.03125 -3.128906 9.03125 -3.828125 C 9.03125 -4.378906 8.878906 -4.828125 8.578125 -5.171875 C 8.273438 -5.515625 7.894531 -5.773438 7.4375 -5.953125 C 6.988281 -6.128906 6.378906 -6.320312 5.609375 -6.53125 C 4.660156 -6.78125 3.898438 -7.023438 3.328125 -7.265625 C 2.753906 -7.515625 2.265625 -7.90625 1.859375 -8.4375 C 1.453125 -8.96875 1.25 -9.679688 1.25 -10.578125 C 1.25 -11.359375 1.445312 -12.050781 1.84375 -12.65625 C 2.25 -13.257812 2.8125 -13.722656 3.53125 -14.046875 C 4.25 -14.378906 5.078125 -14.546875 6.015625 -14.546875 C 7.359375 -14.546875 8.457031 -14.207031 9.3125 -13.53125 C 10.175781 -12.863281 10.664062 -11.972656 10.78125 -10.859375 L 8.71875 -10.859375 C 8.644531 -11.410156 8.351562 -11.894531 7.84375 -12.3125 C 7.34375 -12.726562 6.671875 -12.9375 5.828125 -12.9375 C 5.046875 -12.9375 4.40625 -12.734375 3.90625 -12.328125 C 3.414062 -11.929688 3.171875 -11.367188 3.171875 -10.640625 C 3.171875 -10.109375 3.316406 -9.675781 3.609375 -9.34375 C 3.910156 -9.019531 4.273438 -8.769531 4.703125 -8.59375 C 5.140625 -8.425781 5.75 -8.234375 6.53125 -8.015625 C 7.476562 -7.753906 8.238281 -7.492188 8.8125 -7.234375 C 9.394531 -6.984375 9.890625 -6.59375 10.296875 -6.0625 C 10.710938 -5.539062 10.921875 -4.828125 10.921875 -3.921875 C 10.921875 -3.210938 10.734375 -2.550781 10.359375 -1.9375 C 9.992188 -1.320312 9.445312 -0.820312 8.71875 -0.4375 C 7.988281 -0.0507812 7.128906 0.140625 6.140625 0.140625 Z M 6.140625 0.140625 "/></g></g></g><g fill="#2a2a2a" fill-opacity="1"><g transform="translate(138.634031, 153.047892)"><g><path d="M 8.09375 0.140625 C 6.757812 0.140625 5.539062 -0.171875 4.4375 -0.796875 C 3.34375 -1.421875 2.476562 -2.289062 1.84375 -3.40625 C 1.207031 -4.53125 0.890625 -5.789062 0.890625 -7.1875 C 0.890625 -8.59375 1.207031 -9.851562 1.84375 -10.96875 C 2.476562 -12.09375 3.34375 -12.96875 4.4375 -13.59375 C 5.539062 -14.21875 6.757812 -14.53125 8.09375 -14.53125 C 9.445312 -14.53125 10.671875 -14.21875 11.765625 -13.59375 C 12.867188 -12.96875 13.734375 -12.097656 14.359375 -10.984375 C 14.992188 -9.867188 15.3125 -8.601562 15.3125 -7.1875 C 15.3125 -5.769531 14.992188 -4.503906 14.359375 -3.390625 C 13.734375 -2.285156 12.867188 -1.421875 11.765625 -0.796875 C 10.671875 -0.171875 9.445312 0.140625 8.09375 0.140625 Z M 8.09375 -1.484375 C 9.101562 -1.484375 10.007812 -1.71875 10.8125 -2.1875 C 11.613281 -2.65625 12.242188 -3.320312 12.703125 -4.1875 C 13.160156 -5.050781 13.390625 -6.050781 13.390625 -7.1875 C 13.390625 -8.34375 13.160156 -9.347656 12.703125 -10.203125 C 12.242188 -11.066406 11.613281 -11.734375 10.8125 -12.203125 C 10.019531 -12.671875 9.113281 -12.90625 8.09375 -12.90625 C 7.082031 -12.90625 6.175781 -12.671875 5.375 -12.203125 C 4.582031 -11.734375 3.953125 -11.066406 3.484375 -10.203125 C 3.023438 -9.347656 2.796875 -8.34375 2.796875 -7.1875 C 2.796875 -6.050781 3.023438 -5.050781 3.484375 -4.1875 C 3.953125 -3.320312 4.585938 -2.65625 5.390625 -2.1875 C 6.191406 -1.71875 7.09375 -1.484375 8.09375 -1.484375 Z M 8.09375 -1.484375 "/></g></g></g><g fill="#2a2a2a" fill-opacity="1"><g transform="translate(159.000156, 153.047892)"><g><path d="M 3.46875 -1.53125 L 8.484375 -1.53125 L 8.484375 0 L 1.59375 0 L 1.59375 -14.359375 L 3.46875 -14.359375 Z M 3.46875 -1.53125 "/></g></g></g><g fill="#2a2a2a" fill-opacity="1"><g transform="translate(172.069107, 153.047892)"><g><path d="M 3.421875 -14.359375 L 3.421875 -5.28125 C 3.421875 -4 3.734375 -3.046875 4.359375 -2.421875 C 4.984375 -1.804688 5.851562 -1.5 6.96875 -1.5 C 8.0625 -1.5 8.921875 -1.804688 9.546875 -2.421875 C 10.171875 -3.046875 10.484375 -4 10.484375 -5.28125 L 10.484375 -14.359375 L 12.359375 -14.359375 L 12.359375 -5.296875 C 12.359375 -4.097656 12.117188 -3.085938 11.640625 -2.265625 C 11.160156 -1.453125 10.507812 -0.847656 9.6875 -0.453125 C 8.875 -0.0546875 7.960938 0.140625 6.953125 0.140625 C 5.929688 0.140625 5.007812 -0.0546875 4.1875 -0.453125 C 3.375 -0.847656 2.726562 -1.453125 2.25 -2.265625 C 1.78125 -3.085938 1.546875 -4.097656 1.546875 -5.296875 L 1.546875 -14.359375 Z M 3.421875 -14.359375 "/></g></g></g><g fill="#2a2a2a" fill-opacity="1"><g transform="translate(190.147141, 153.047892)"><g><path d="M 10.421875 -14.359375 L 10.421875 -12.84375 L 6.515625 -12.84375 L 6.515625 0 L 4.640625 0 L 4.640625 -12.84375 L 0.703125 -12.84375 L 0.703125 -14.359375 Z M 10.421875 -14.359375 "/></g></g></g><g fill="#2a2a2a" fill-opacity="1"><g transform="translate(205.462956, 153.047892)"><g><path d="M 3.46875 -14.359375 L 3.46875 0 L 1.59375 0 L 1.59375 -14.359375 Z M 3.46875 -14.359375 "/></g></g></g><g fill="#2a2a2a" fill-opacity="1"><g transform="translate(214.697794, 153.047892)"><g><path d="M 8.09375 0.140625 C 6.757812 0.140625 5.539062 -0.171875 4.4375 -0.796875 C 3.34375 -1.421875 2.476562 -2.289062 1.84375 -3.40625 C 1.207031 -4.53125 0.890625 -5.789062 0.890625 -7.1875 C 0.890625 -8.59375 1.207031 -9.851562 1.84375 -10.96875 C 2.476562 -12.09375 3.34375 -12.96875 4.4375 -13.59375 C 5.539062 -14.21875 6.757812 -14.53125 8.09375 -14.53125 C 9.445312 -14.53125 10.671875 -14.21875 11.765625 -13.59375 C 12.867188 -12.96875 13.734375 -12.097656 14.359375 -10.984375 C 14.992188 -9.867188 15.3125 -8.601562 15.3125 -7.1875 C 15.3125 -5.769531 14.992188 -4.503906 14.359375 -3.390625 C 13.734375 -2.285156 12.867188 -1.421875 11.765625 -0.796875 C 10.671875 -0.171875 9.445312 0.140625 8.09375 0.140625 Z M 8.09375 -1.484375 C 9.101562 -1.484375 10.007812 -1.71875 10.8125 -2.1875 C 11.613281 -2.65625 12.242188 -3.320312 12.703125 -4.1875 C 13.160156 -5.050781 13.390625 -6.050781 13.390625 -7.1875 C 13.390625 -8.34375 13.160156 -9.347656 12.703125 -10.203125 C 12.242188 -11.066406 11.613281 -11.734375 10.8125 -12.203125 C 10.019531 -12.671875 9.113281 -12.90625 8.09375 -12.90625 C 7.082031 -12.90625 6.175781 -12.671875 5.375 -12.203125 C 4.582031 -11.734375 3.953125 -11.066406 3.484375 -10.203125 C 3.023438 -9.347656 2.796875 -8.34375 2.796875 -7.1875 C 2.796875 -6.050781 3.023438 -5.050781 3.484375 -4.1875 C 3.953125 -3.320312 4.585938 -2.65625 5.390625 -2.1875 C 6.191406 -1.71875 7.09375 -1.484375 8.09375 -1.484375 Z M 8.09375 -1.484375 "/></g></g></g><g fill="#2a2a2a" fill-opacity="1"><g transform="translate(235.063908, 153.047892)"><g><path d="M 12.875 0 L 11 0 L 3.46875 -11.4375 L 3.46875 0 L 1.59375 0 L 1.59375 -14.390625 L 3.46875 -14.390625 L 11 -2.96875 L 11 -14.390625 L 12.875 -14.390625 Z M 12.875 0 "/></g></g></g><g fill="#2a2a2a" fill-opacity="1"><g transform="translate(253.719116, 153.047892)"><g><path d="M 6.140625 0.140625 C 5.191406 0.140625 4.34375 -0.0234375 3.59375 -0.359375 C 2.84375 -0.691406 2.253906 -1.15625 1.828125 -1.75 C 1.410156 -2.351562 1.191406 -3.046875 1.171875 -3.828125 L 3.171875 -3.828125 C 3.242188 -3.160156 3.519531 -2.59375 4 -2.125 C 4.488281 -1.664062 5.203125 -1.4375 6.140625 -1.4375 C 7.035156 -1.4375 7.738281 -1.660156 8.25 -2.109375 C 8.769531 -2.554688 9.03125 -3.128906 9.03125 -3.828125 C 9.03125 -4.378906 8.878906 -4.828125 8.578125 -5.171875 C 8.273438 -5.515625 7.894531 -5.773438 7.4375 -5.953125 C 6.988281 -6.128906 6.378906 -6.320312 5.609375 -6.53125 C 4.660156 -6.78125 3.898438 -7.023438 3.328125 -7.265625 C 2.753906 -7.515625 2.265625 -7.90625 1.859375 -8.4375 C 1.453125 -8.96875 1.25 -9.679688 1.25 -10.578125 C 1.25 -11.359375 1.445312 -12.050781 1.84375 -12.65625 C 2.25 -13.257812 2.8125 -13.722656 3.53125 -14.046875 C 4.25 -14.378906 5.078125 -14.546875 6.015625 -14.546875 C 7.359375 -14.546875 8.457031 -14.207031 9.3125 -13.53125 C 10.175781 -12.863281 10.664062 -11.972656 10.78125 -10.859375 L 8.71875 -10.859375 C 8.644531 -11.410156 8.351562 -11.894531 7.84375 -12.3125 C 7.34375 -12.726562 6.671875 -12.9375 5.828125 -12.9375 C 5.046875 -12.9375 4.40625 -12.734375 3.90625 -12.328125 C 3.414062 -11.929688 3.171875 -11.367188 3.171875 -10.640625 C 3.171875 -10.109375 3.316406 -9.675781 3.609375 -9.34375 C 3.910156 -9.019531 4.273438 -8.769531 4.703125 -8.59375 C 5.140625 -8.425781 5.75 -8.234375 6.53125 -8.015625 C 7.476562 -7.753906 8.238281 -7.492188 8.8125 -7.234375 C 9.394531 -6.984375 9.890625 -6.59375 10.296875 -6.0625 C 10.710938 -5.539062 10.921875 -4.828125 10.921875 -3.921875 C 10.921875 -3.210938 10.734375 -2.550781 10.359375 -1.9375 C 9.992188 -1.320312 9.445312 -0.820312 8.71875 -0.4375 C 7.988281 -0.0507812 7.128906 0.140625 6.140625 0.140625 Z M 6.140625 0.140625 "/></g></g></g><g fill="#2a2a2a" fill-opacity="1"><g transform="translate(46.657108, 189.428708)"><g><path d="M 1.703125 -6.296875 L 1.703125 -3.9375 L 4.265625 -3.9375 L 4.265625 -3.1875 L 1.703125 -3.1875 L 1.703125 -0.765625 L 4.5625 -0.765625 L 4.5625 0 L 0.78125 0 L 0.78125 -7.0625 L 4.5625 -7.0625 L 4.5625 -6.296875 Z M 1.703125 -6.296875 "/></g></g></g><g fill="#2a2a2a" fill-opacity="1"><g transform="translate(54.164972, 189.428708)"><g><path d="M 6.3125 0 L 5.390625 0 L 1.703125 -5.609375 L 1.703125 0 L 0.78125 0 L 0.78125 -7.0625 L 1.703125 -7.0625 L 5.390625 -1.453125 L 5.390625 -7.0625 L 6.3125 -7.0625 Z M 6.3125 0 "/></g></g></g><g fill="#2a2a2a" fill-opacity="1"><g transform="translate(63.592763, 189.428708)"><g><path d="M 6.59375 -7.046875 L 3.9375 0 L 2.875 0 L 0.21875 -7.046875 L 1.203125 -7.046875 L 3.421875 -0.96875 L 5.625 -7.046875 Z M 6.59375 -7.046875 "/></g></g></g><g fill="#2a2a2a" fill-opacity="1"><g transform="translate(72.747722, 189.428708)"><g><path d="M 1.703125 -7.046875 L 1.703125 0 L 0.78125 0 L 0.78125 -7.046875 Z M 1.703125 -7.046875 "/></g></g></g><g fill="#2a2a2a" fill-opacity="1"><g transform="translate(77.557607, 189.428708)"><g><path d="M 4.484375 0 L 2.8125 -2.875 L 1.703125 -2.875 L 1.703125 0 L 0.78125 0 L 0.78125 -7.046875 L 3.046875 -7.046875 C 3.585938 -7.046875 4.039062 -6.953125 4.40625 -6.765625 C 4.769531 -6.585938 5.039062 -6.34375 5.21875 -6.03125 C 5.40625 -5.71875 5.5 -5.363281 5.5 -4.96875 C 5.5 -4.488281 5.359375 -4.0625 5.078125 -3.6875 C 4.796875 -3.320312 4.378906 -3.078125 3.828125 -2.953125 L 5.59375 0 Z M 1.703125 -3.625 L 3.046875 -3.625 C 3.546875 -3.625 3.921875 -3.742188 4.171875 -3.984375 C 4.421875 -4.234375 4.546875 -4.5625 4.546875 -4.96875 C 4.546875 -5.382812 4.421875 -5.707031 4.171875 -5.9375 C 3.929688 -6.164062 3.554688 -6.28125 3.046875 -6.28125 L 1.703125 -6.28125 Z M 1.703125 -3.625 "/></g></g></g><g fill="#2a2a2a" fill-opacity="1"><g transform="translate(86.025436, 189.428708)"><g><path d="M 3.96875 0.078125 C 3.320312 0.078125 2.726562 -0.0703125 2.1875 -0.375 C 1.644531 -0.6875 1.21875 -1.117188 0.90625 -1.671875 C 0.59375 -2.222656 0.4375 -2.84375 0.4375 -3.53125 C 0.4375 -4.21875 0.59375 -4.832031 0.90625 -5.375 C 1.21875 -5.925781 1.644531 -6.351562 2.1875 -6.65625 C 2.726562 -6.96875 3.320312 -7.125 3.96875 -7.125 C 4.632812 -7.125 5.234375 -6.96875 5.765625 -6.65625 C 6.304688 -6.351562 6.734375 -5.925781 7.046875 -5.375 C 7.359375 -4.832031 7.515625 -4.21875 7.515625 -3.53125 C 7.515625 -2.832031 7.359375 -2.207031 7.046875 -1.65625 C 6.734375 -1.113281 6.304688 -0.6875 5.765625 -0.375 C 5.234375 -0.0703125 4.632812 0.078125 3.96875 0.078125 Z M 3.96875 -0.734375 C 4.46875 -0.734375 4.910156 -0.847656 5.296875 -1.078125 C 5.691406 -1.304688 6.003906 -1.628906 6.234375 -2.046875 C 6.460938 -2.472656 6.578125 -2.96875 6.578125 -3.53125 C 6.578125 -4.09375 6.460938 -4.582031 6.234375 -5 C 6.003906 -5.425781 5.691406 -5.753906 5.296875 -5.984375 C 4.910156 -6.210938 4.46875 -6.328125 3.96875 -6.328125 C 3.46875 -6.328125 3.019531 -6.210938 2.625 -5.984375 C 2.238281 -5.753906 1.929688 -5.425781 1.703125 -5 C 1.484375 -4.582031 1.375 -4.09375 1.375 -3.53125 C 1.375 -2.96875 1.484375 -2.472656 1.703125 -2.046875 C 1.929688 -1.628906 2.242188 -1.304688 2.640625 -1.078125 C 3.035156 -0.847656 3.476562 -0.734375 3.96875 -0.734375 Z M 3.96875 -0.734375 "/></g></g></g><g fill="#2a2a2a" fill-opacity="1"><g transform="translate(96.291925, 189.428708)"><g><path d="M 6.3125 0 L 5.390625 0 L 1.703125 -5.609375 L 1.703125 0 L 0.78125 0 L 0.78125 -7.0625 L 1.703125 -7.0625 L 5.390625 -1.453125 L 5.390625 -7.0625 L 6.3125 -7.0625 Z M 6.3125 0 "/></g></g></g><g fill="#2a2a2a" fill-opacity="1"><g transform="translate(105.719718, 189.428708)"><g><path d="M 7.921875 -7 L 7.921875 0 L 7 0 L 7 -5.21875 L 4.6875 0 L 4.03125 0 L 1.703125 -5.234375 L 1.703125 0 L 0.78125 0 L 0.78125 -7 L 1.765625 -7 L 4.359375 -1.21875 L 6.9375 -7 Z M 7.921875 -7 "/></g></g></g><g fill="#2a2a2a" fill-opacity="1"><g transform="translate(116.744072, 189.428708)"><g><path d="M 1.703125 -6.296875 L 1.703125 -3.9375 L 4.265625 -3.9375 L 4.265625 -3.1875 L 1.703125 -3.1875 L 1.703125 -0.765625 L 4.5625 -0.765625 L 4.5625 0 L 0.78125 0 L 0.78125 -7.0625 L 4.5625 -7.0625 L 4.5625 -6.296875 Z M 1.703125 -6.296875 "/></g></g></g><g fill="#2a2a2a" fill-opacity="1"><g transform="translate(124.251937, 189.428708)"><g><path d="M 6.3125 0 L 5.390625 0 L 1.703125 -5.609375 L 1.703125 0 L 0.78125 0 L 0.78125 -7.0625 L 1.703125 -7.0625 L 5.390625 -1.453125 L 5.390625 -7.0625 L 6.3125 -7.0625 Z M 6.3125 0 "/></g></g></g><g fill="#2a2a2a" fill-opacity="1"><g transform="translate(133.67973, 189.428708)"><g><path d="M 5.109375 -7.046875 L 5.109375 -6.296875 L 3.1875 -6.296875 L 3.1875 0 L 2.28125 0 L 2.28125 -6.296875 L 0.34375 -6.296875 L 0.34375 -7.046875 Z M 5.109375 -7.046875 "/></g></g></g><g fill="#2a2a2a" fill-opacity="1"><g transform="translate(141.470539, 189.428708)"><g><path d="M 4.9375 -1.5625 L 1.875 -1.5625 L 1.296875 0 L 0.328125 0 L 2.875 -7 L 3.9375 -7 L 6.484375 0 L 5.515625 0 Z M 4.6875 -2.3125 L 3.40625 -5.875 L 2.140625 -2.3125 Z M 4.6875 -2.3125 "/></g></g></g><g fill="#2a2a2a" fill-opacity="1"><g transform="translate(150.605288, 189.428708)"><g><path d="M 1.703125 -0.75 L 4.171875 -0.75 L 4.171875 0 L 0.78125 0 L 0.78125 -7.046875 L 1.703125 -7.046875 Z M 1.703125 -0.75 "/></g></g></g><g fill="#2a2a2a" fill-opacity="1"><g transform="translate(157.294668, 189.428708)"><g/></g></g><g fill="#2a2a2a" fill-opacity="1"><g transform="translate(162.316747, 189.428708)"><g><path d="M 5.484375 -4.984375 C 5.484375 -4.398438 5.28125 -3.910156 4.875 -3.515625 C 4.476562 -3.128906 3.867188 -2.9375 3.046875 -2.9375 L 1.703125 -2.9375 L 1.703125 0 L 0.78125 0 L 0.78125 -7.046875 L 3.046875 -7.046875 C 3.847656 -7.046875 4.453125 -6.851562 4.859375 -6.46875 C 5.273438 -6.082031 5.484375 -5.585938 5.484375 -4.984375 Z M 3.046875 -3.703125 C 3.566406 -3.703125 3.945312 -3.8125 4.1875 -4.03125 C 4.425781 -4.257812 4.546875 -4.578125 4.546875 -4.984375 C 4.546875 -5.847656 4.046875 -6.28125 3.046875 -6.28125 L 1.703125 -6.28125 L 1.703125 -3.703125 Z M 3.046875 -3.703125 "/></g></g></g><g fill="#2a2a2a" fill-opacity="1"><g transform="translate(170.491526, 189.428708)"><g><path d="M 4.484375 0 L 2.8125 -2.875 L 1.703125 -2.875 L 1.703125 0 L 0.78125 0 L 0.78125 -7.046875 L 3.046875 -7.046875 C 3.585938 -7.046875 4.039062 -6.953125 4.40625 -6.765625 C 4.769531 -6.585938 5.039062 -6.34375 5.21875 -6.03125 C 5.40625 -5.71875 5.5 -5.363281 5.5 -4.96875 C 5.5 -4.488281 5.359375 -4.0625 5.078125 -3.6875 C 4.796875 -3.320312 4.378906 -3.078125 3.828125 -2.953125 L 5.59375 0 Z M 1.703125 -3.625 L 3.046875 -3.625 C 3.546875 -3.625 3.921875 -3.742188 4.171875 -3.984375 C 4.421875 -4.234375 4.546875 -4.5625 4.546875 -4.96875 C 4.546875 -5.382812 4.421875 -5.707031 4.171875 -5.9375 C 3.929688 -6.164062 3.554688 -6.28125 3.046875 -6.28125 L 1.703125 -6.28125 Z M 1.703125 -3.625 "/></g></g></g><g fill="#2a2a2a" fill-opacity="1"><g transform="translate(178.959348, 189.428708)"><g><path d="M 3.96875 0.078125 C 3.320312 0.078125 2.726562 -0.0703125 2.1875 -0.375 C 1.644531 -0.6875 1.21875 -1.117188 0.90625 -1.671875 C 0.59375 -2.222656 0.4375 -2.84375 0.4375 -3.53125 C 0.4375 -4.21875 0.59375 -4.832031 0.90625 -5.375 C 1.21875 -5.925781 1.644531 -6.351562 2.1875 -6.65625 C 2.726562 -6.96875 3.320312 -7.125 3.96875 -7.125 C 4.632812 -7.125 5.234375 -6.96875 5.765625 -6.65625 C 6.304688 -6.351562 6.734375 -5.925781 7.046875 -5.375 C 7.359375 -4.832031 7.515625 -4.21875 7.515625 -3.53125 C 7.515625 -2.832031 7.359375 -2.207031 7.046875 -1.65625 C 6.734375 -1.113281 6.304688 -0.6875 5.765625 -0.375 C 5.234375 -0.0703125 4.632812 0.078125 3.96875 0.078125 Z M 3.96875 -0.734375 C 4.46875 -0.734375 4.910156 -0.847656 5.296875 -1.078125 C 5.691406 -1.304688 6.003906 -1.628906 6.234375 -2.046875 C 6.460938 -2.472656 6.578125 -2.96875 6.578125 -3.53125 C 6.578125 -4.09375 6.460938 -4.582031 6.234375 -5 C 6.003906 -5.425781 5.691406 -5.753906 5.296875 -5.984375 C 4.910156 -6.210938 4.46875 -6.328125 3.96875 -6.328125 C 3.46875 -6.328125 3.019531 -6.210938 2.625 -5.984375 C 2.238281 -5.753906 1.929688 -5.425781 1.703125 -5 C 1.484375 -4.582031 1.375 -4.09375 1.375 -3.53125 C 1.375 -2.96875 1.484375 -2.472656 1.703125 -2.046875 C 1.929688 -1.628906 2.242188 -1.304688 2.640625 -1.078125 C 3.035156 -0.847656 3.476562 -0.734375 3.96875 -0.734375 Z M 3.96875 -0.734375 "/></g></g></g><g fill="#2a2a2a" fill-opacity="1"><g transform="translate(189.225831, 189.428708)"><g><path d="M 5.109375 -7.046875 L 5.109375 -6.296875 L 3.1875 -6.296875 L 3.1875 0 L 2.28125 0 L 2.28125 -6.296875 L 0.34375 -6.296875 L 0.34375 -7.046875 Z M 5.109375 -7.046875 "/></g></g></g><g fill="#2a2a2a" fill-opacity="1"><g transform="translate(197.016635, 189.428708)"><g><path d="M 1.703125 -6.296875 L 1.703125 -3.9375 L 4.265625 -3.9375 L 4.265625 -3.1875 L 1.703125 -3.1875 L 1.703125 -0.765625 L 4.5625 -0.765625 L 4.5625 0 L 0.78125 0 L 0.78125 -7.0625 L 4.5625 -7.0625 L 4.5625 -6.296875 Z M 1.703125 -6.296875 "/></g></g></g><g fill="#2a2a2a" fill-opacity="1"><g transform="translate(204.524493, 189.428708)"><g><path d="M 0.4375 -3.53125 C 0.4375 -4.21875 0.585938 -4.832031 0.890625 -5.375 C 1.203125 -5.925781 1.625 -6.359375 2.15625 -6.671875 C 2.695312 -6.984375 3.296875 -7.140625 3.953125 -7.140625 C 4.722656 -7.140625 5.394531 -6.953125 5.96875 -6.578125 C 6.539062 -6.210938 6.957031 -5.6875 7.21875 -5 L 6.109375 -5 C 5.921875 -5.425781 5.640625 -5.753906 5.265625 -5.984375 C 4.898438 -6.210938 4.460938 -6.328125 3.953125 -6.328125 C 3.460938 -6.328125 3.019531 -6.210938 2.625 -5.984375 C 2.238281 -5.753906 1.929688 -5.425781 1.703125 -5 C 1.484375 -4.582031 1.375 -4.09375 1.375 -3.53125 C 1.375 -2.96875 1.484375 -2.472656 1.703125 -2.046875 C 1.929688 -1.628906 2.238281 -1.304688 2.625 -1.078125 C 3.019531 -0.847656 3.460938 -0.734375 3.953125 -0.734375 C 4.460938 -0.734375 4.898438 -0.847656 5.265625 -1.078125 C 5.640625 -1.304688 5.921875 -1.628906 6.109375 -2.046875 L 7.21875 -2.046875 C 6.957031 -1.378906 6.539062 -0.859375 5.96875 -0.484375 C 5.394531 -0.117188 4.722656 0.0625 3.953125 0.0625 C 3.296875 0.0625 2.695312 -0.0859375 2.15625 -0.390625 C 1.625 -0.703125 1.203125 -1.128906 0.890625 -1.671875 C 0.585938 -2.222656 0.4375 -2.84375 0.4375 -3.53125 Z M 0.4375 -3.53125 "/></g></g></g><g fill="#2a2a2a" fill-opacity="1"><g transform="translate(214.64951, 189.428708)"><g><path d="M 5.109375 -7.046875 L 5.109375 -6.296875 L 3.1875 -6.296875 L 3.1875 0 L 2.28125 0 L 2.28125 -6.296875 L 0.34375 -6.296875 L 0.34375 -7.046875 Z M 5.109375 -7.046875 "/></g></g></g><g fill="#2a2a2a" fill-opacity="1"><g transform="translate(222.440313, 189.428708)"><g><path d="M 1.703125 -7.046875 L 1.703125 0 L 0.78125 0 L 0.78125 -7.046875 Z M 1.703125 -7.046875 "/></g></g></g><g fill="#2a2a2a" fill-opacity="1"><g transform="translate(227.250194, 189.428708)"><g><path d="M 3.96875 0.078125 C 3.320312 0.078125 2.726562 -0.0703125 2.1875 -0.375 C 1.644531 -0.6875 1.21875 -1.117188 0.90625 -1.671875 C 0.59375 -2.222656 0.4375 -2.84375 0.4375 -3.53125 C 0.4375 -4.21875 0.59375 -4.832031 0.90625 -5.375 C 1.21875 -5.925781 1.644531 -6.351562 2.1875 -6.65625 C 2.726562 -6.96875 3.320312 -7.125 3.96875 -7.125 C 4.632812 -7.125 5.234375 -6.96875 5.765625 -6.65625 C 6.304688 -6.351562 6.734375 -5.925781 7.046875 -5.375 C 7.359375 -4.832031 7.515625 -4.21875 7.515625 -3.53125 C 7.515625 -2.832031 7.359375 -2.207031 7.046875 -1.65625 C 6.734375 -1.113281 6.304688 -0.6875 5.765625 -0.375 C 5.234375 -0.0703125 4.632812 0.078125 3.96875 0.078125 Z M 3.96875 -0.734375 C 4.46875 -0.734375 4.910156 -0.847656 5.296875 -1.078125 C 5.691406 -1.304688 6.003906 -1.628906 6.234375 -2.046875 C 6.460938 -2.472656 6.578125 -2.96875 6.578125 -3.53125 C 6.578125 -4.09375 6.460938 -4.582031 6.234375 -5 C 6.003906 -5.425781 5.691406 -5.753906 5.296875 -5.984375 C 4.910156 -6.210938 4.46875 -6.328125 3.96875 -6.328125 C 3.46875 -6.328125 3.019531 -6.210938 2.625 -5.984375 C 2.238281 -5.753906 1.929688 -5.425781 1.703125 -5 C 1.484375 -4.582031 1.375 -4.09375 1.375 -3.53125 C 1.375 -2.96875 1.484375 -2.472656 1.703125 -2.046875 C 1.929688 -1.628906 2.242188 -1.304688 2.640625 -1.078125 C 3.035156 -0.847656 3.476562 -0.734375 3.96875 -0.734375 Z M 3.96875 -0.734375 "/></g></g></g><g fill="#2a2a2a" fill-opacity="1"><g transform="translate(237.516677, 189.428708)"><g><path d="M 6.3125 0 L 5.390625 0 L 1.703125 -5.609375 L 1.703125 0 L 0.78125 0 L 0.78125 -7.0625 L 1.703125 -7.0625 L 5.390625 -1.453125 L 5.390625 -7.0625 L 6.3125 -7.0625 Z M 6.3125 0 "/></g></g></g></svg>