<svg xmlns="http://www.w3.org/2000/svg" xmlns:xlink="http://www.w3.org/1999/xlink" width="296" zoomAndPan="magnify" viewBox="0 0 222 38.249999" height="51" preserveAspectRatio="xMidYMid meet" version="1.0"><defs><g/><clipPath id="0197b1cec8"><path d="M 59.480469 32.914062 L 195.933594 32.914062 L 195.933594 34 L 59.480469 34 Z M 59.480469 32.914062 " clip-rule="nonzero"/></clipPath><clipPath id="ac987c3382"><path d="M 3 2 L 36 2 L 36 36.820312 L 3 36.820312 Z M 3 2 " clip-rule="nonzero"/></clipPath><clipPath id="b7f050c315"><path d="M 2.132812 3 L 26 3 L 26 36 L 2.132812 36 Z M 2.132812 3 " clip-rule="nonzero"/></clipPath></defs><g clip-path="url(#0197b1cec8)"><path fill="#4a7c59" d="M 59.480469 32.914062 L 195.933594 32.914062 L 195.933594 34 L 59.480469 34 Z M 59.480469 32.914062 " fill-opacity="1" fill-rule="nonzero"/></g><g clip-path="url(#ac987c3382)"><path fill="#68b0ab" d="M 19.984375 37.160156 C 33.914062 31.074219 23.71875 21.824219 31.320312 10.578125 C 31.992188 15.96875 33.34375 21.816406 30.351562 27.519531 C 33.410156 22.699219 34.890625 12.566406 30.554688 8.097656 C 29.425781 6.933594 28.109375 5.90625 26.628906 5.0625 C 18.707031 0.578125 8.757812 2.960938 3.6875 10.324219 C 8.648438 2.589844 18.855469 0 26.945312 4.589844 C 28.597656 5.519531 30.03125 6.683594 31.242188 8.011719 C 31.617188 8.425781 31.976562 8.855469 32.300781 9.300781 C 36.359375 14.679688 37.082031 22.164062 33.550781 28.394531 C 30.625 33.554688 25.472656 36.648438 19.984375 37.160156 " fill-opacity="1" fill-rule="evenodd"/></g><g clip-path="url(#b7f050c315)"><path fill="#4a7c59" d="M 10.65625 6.152344 C 10.605469 6.402344 10.683594 6.652344 10.796875 6.804688 C 10.898438 6.769531 11.035156 6.660156 11.113281 6.589844 C 11.109375 6.425781 11.039062 6.414062 10.972656 6.285156 C 10.875 6.109375 10.863281 6.140625 10.65625 6.152344 Z M 10.027344 6.667969 C 10.164062 6.734375 10.300781 6.734375 10.371094 6.589844 C 10.480469 6.214844 10.074219 6.109375 9.898438 6.355469 C 9.796875 6.507812 9.898438 6.601562 10.027344 6.667969 Z M 9.875 8.886719 C 9.910156 8.753906 9.949219 8.859375 9.921875 8.550781 C 9.730469 8.488281 9.582031 8.515625 9.445312 8.660156 C 9.238281 8.886719 9.40625 8.925781 9.339844 9.121094 C 9.167969 9.140625 9.191406 9.082031 9.003906 9.140625 C 8.875 9.488281 9.167969 9.460938 9.316406 9.582031 C 9.371094 9.628906 9.394531 9.671875 9.445312 9.714844 C 10.0625 9.625 9.84375 9.023438 9.875 8.886719 Z M 10.996094 8.316406 C 10.820312 8.265625 10.621094 8.148438 10.300781 8.328125 C 10.152344 8.402344 10.136719 8.796875 10.136719 8.960938 L 10.148438 9.148438 L 10.441406 9.164062 C 10.546875 8.722656 10.503906 8.980469 10.773438 8.773438 C 10.871094 8.695312 10.859375 8.632812 10.914062 8.550781 C 11.003906 8.414062 11 8.5 10.996094 8.316406 Z M 10.871094 7.414062 C 10.871094 7.71875 10.859375 7.761719 10.988281 7.972656 L 12.417969 7.785156 C 12.597656 7.769531 12.996094 7.917969 12.996094 7.316406 C 12.996094 7.152344 12.835938 7.0625 12.640625 7.0625 C 12.304688 7.0625 11.925781 7.488281 11.566406 7.367188 C 11.375 7.304688 11.570312 7.335938 11.289062 7.300781 L 11.265625 7.296875 L 11.226562 7.285156 C 11.304688 7.109375 11.375 7.339844 11.375 7.085938 C 11.375 6.921875 11.179688 6.917969 11.027344 6.910156 C 10.859375 6.90625 10.710938 6.882812 10.570312 6.898438 C 10.394531 6.925781 10.441406 7.109375 10.546875 7.203125 C 10.644531 7.289062 10.800781 7.289062 10.871094 7.414062 Z M 9.25 7.464844 C 9.191406 7.703125 9.230469 7.808594 9.535156 8.019531 C 9.605469 8.070312 9.722656 8.085938 9.832031 8.058594 C 10.074219 7.996094 10.050781 7.867188 10.054688 7.820312 L 10.367188 8.046875 C 10.667969 7.960938 10.792969 7.855469 10.632812 7.578125 L 10.363281 7.554688 C 10.261719 7.367188 10.230469 7.089844 9.921875 7.289062 C 9.699219 7.429688 9.582031 7.464844 9.25 7.464844 Z M 7.074219 8.464844 C 7.15625 8.792969 7.757812 8.933594 8.078125 8.773438 C 8.316406 8.660156 8.257812 8.519531 8.484375 8.453125 C 8.671875 8.402344 8.582031 8.417969 8.710938 8.324219 C 8.785156 8.265625 8.910156 8.238281 8.972656 8.1875 C 8.964844 7.945312 8.933594 7.96875 8.773438 7.875 C 8.808594 7.785156 8.800781 7.820312 8.78125 7.65625 C 8.367188 7.640625 8.566406 7.859375 8.40625 8.148438 L 8.035156 7.9375 C 7.875 7.816406 7.839844 7.769531 7.644531 7.917969 C 7.464844 8.050781 7.148438 8.273438 7.074219 8.464844 Z M 14.507812 25.914062 C 14.273438 25.777344 13.578125 25.675781 13.480469 26.285156 C 13.644531 26.316406 13.640625 26.261719 13.796875 26.332031 C 14.085938 26.445312 14.476562 26.324219 14.644531 26.203125 C 14.644531 26.089844 14.628906 25.980469 14.507812 25.914062 Z M 13.425781 25.671875 C 13.292969 25.625 13.214844 25.546875 13.074219 25.472656 C 12.949219 25.410156 12.800781 25.355469 12.691406 25.296875 C 11.667969 24.8125 11.742188 25.078125 11.375 25.082031 L 11.375 25.386719 C 11.898438 25.347656 11.996094 25.332031 12.578125 25.640625 C 12.910156 25.824219 12.773438 25.863281 12.984375 25.878906 L 13.058594 25.886719 C 13.097656 25.898438 13.394531 26.183594 13.425781 25.671875 Z M 23.808594 12.070312 C 23.957031 12.035156 23.992188 11.992188 24.109375 12.15625 C 24.085938 12.25 24.148438 12.199219 23.984375 12.238281 C 24.085938 12.78125 24.113281 12.363281 24.136719 12.695312 C 24.328125 12.734375 24.273438 12.691406 24.328125 12.894531 C 24.804688 12.960938 24.601562 13.058594 24.84375 13.058594 C 25.003906 13.058594 25.285156 12.929688 25.386719 12.859375 C 25.527344 12.769531 25.6875 12.574219 25.804688 12.527344 C 25.804688 12.238281 25.753906 12.09375 25.59375 11.929688 C 25.183594 11.503906 25.273438 11.820312 25.074219 11.820312 L 24.351562 11.820312 C 24.183594 11.820312 24.378906 11.695312 24.011719 11.652344 C 23.894531 11.808594 23.84375 11.796875 23.808594 12.070312 Z M 17.53125 8.3125 C 17.59375 8.679688 17.253906 8.714844 17.507812 9.023438 C 17.753906 9.007812 17.65625 8.886719 17.9375 8.859375 C 17.972656 8.917969 17.984375 8.917969 18.011719 8.980469 C 18.050781 9.074219 18.007812 9.050781 18.074219 9.121094 C 18.171875 9.222656 18.328125 9.109375 18.246094 9.390625 C 18.023438 9.367188 18.113281 9.238281 17.90625 9.238281 C 17.386719 9.238281 17.578125 10.074219 17.835938 10.074219 C 18.011719 10.074219 18.097656 10.011719 18.234375 9.957031 C 18.234375 9.816406 18.222656 9.816406 18.164062 9.71875 L 18.335938 9.71875 C 18.527344 10.3125 17.988281 10.183594 17.886719 10.464844 C 17.867188 10.53125 17.804688 10.582031 17.804688 10.671875 C 17.816406 12.121094 17.859375 11.253906 17.988281 11.808594 C 18.019531 11.933594 18.046875 12.148438 18.058594 12.300781 C 18.238281 12.289062 18.289062 12.214844 18.441406 12.265625 C 18.4375 12.363281 18.335938 12.398438 18.335938 12.578125 C 18.335938 12.960938 18.375 13.03125 18.617188 13.3125 C 18.691406 13.398438 18.769531 13.4375 18.804688 13.523438 C 18.886719 13.765625 18.742188 13.757812 19.082031 13.839844 C 19.671875 13.980469 19.664062 14.472656 20.132812 14.113281 C 20.136719 13.769531 20.25 13.675781 20.261719 13.402344 C 20.273438 13.070312 20.328125 12.949219 20.539062 12.816406 C 20.539062 12.601562 20.519531 12.414062 20.578125 12.226562 C 20.664062 11.96875 20.707031 12.125 20.78125 11.808594 C 21.132812 11.742188 21.351562 11.753906 21.617188 11.554688 C 21.945312 11.308594 22.082031 10.972656 22.199219 10.882812 C 22.207031 10.878906 22.265625 10.835938 22.277344 10.832031 C 22.449219 10.730469 22.679688 10.714844 22.90625 10.664062 C 23.777344 10.488281 23.265625 10.300781 23.792969 10.300781 C 23.847656 10.195312 23.917969 10.132812 23.972656 10.03125 C 24.042969 9.90625 24.023438 9.808594 24.132812 9.730469 L 24.03125 9.417969 C 23.992188 9.195312 23.96875 9.351562 23.878906 9.1875 C 23.84375 9.058594 23.929688 8.773438 23.917969 8.703125 C 23.890625 8.542969 23.828125 8.71875 23.828125 8.53125 C 23.828125 8.398438 23.871094 8.429688 23.894531 8.40625 C 23.945312 8.351562 23.960938 8.34375 23.957031 8.351562 C 23.984375 8.316406 23.949219 8.355469 23.984375 8.300781 C 24.03125 8.226562 24.003906 8.25 24.0625 8.175781 C 24.390625 7.746094 24.082031 7.820312 24.03125 7.550781 C 24.1875 7.566406 24.15625 7.671875 24.324219 7.734375 C 24.4375 7.621094 24.472656 7.59375 24.453125 7.378906 C 23.96875 7.265625 24.238281 7.304688 23.949219 7.058594 C 23.933594 7.046875 23.363281 6.65625 23.726562 6.65625 C 23.871094 6.65625 23.921875 6.753906 24.058594 6.65625 C 24.1875 6.492188 23.84375 6.328125 23.78125 6.277344 C 23.65625 6.1875 23.476562 6.089844 23.476562 5.898438 C 23.476562 5.363281 23.921875 5.210938 23.929688 4.796875 C 22.328125 4.292969 22.894531 4.707031 22.59375 4.730469 L 22.605469 4.417969 C 22.144531 4.261719 22.386719 4.351562 22.023438 4.503906 C 21.945312 4.402344 22.011719 4.4375 21.949219 4.316406 C 21.90625 4.226562 21.898438 4.261719 21.855469 4.1875 C 21.816406 4.128906 21.804688 4.066406 21.777344 4.035156 C 21.726562 3.964844 21.683594 3.976562 21.652344 3.921875 L 24.054688 4.644531 C 22.785156 4.152344 21.453125 3.8125 20.0625 3.648438 C 20.070312 3.65625 20.074219 3.65625 20.074219 3.65625 C 19.929688 3.964844 19.621094 3.71875 19.480469 3.71875 C 19.222656 3.71875 19.417969 3.792969 19.125 3.824219 C 18.59375 3.894531 18.070312 3.882812 17.542969 3.847656 C 17.261719 3.832031 17.089844 3.960938 16.796875 3.914062 C 16.59375 3.882812 16.429688 3.796875 16.199219 3.824219 C 15.578125 3.910156 15.046875 4.039062 14.4375 4.140625 C 13.835938 4.242188 13.433594 4.554688 12.796875 4.554688 C 12.679688 4.683594 12.769531 4.710938 12.539062 4.730469 C 12.375 4.746094 12.289062 4.773438 12.238281 4.910156 C 12.316406 5.074219 12.375 4.972656 12.433594 5.136719 C 12.140625 5.140625 12.289062 5.0625 12.113281 5.0625 L 11.847656 5.0625 C 11.773438 5.109375 11.339844 5.519531 11.269531 5.589844 C 11.148438 5.722656 11.199219 5.804688 11.277344 5.976562 C 11.46875 6.390625 11.566406 6.277344 11.796875 6.183594 C 11.914062 6.316406 11.886719 6.265625 11.882812 6.566406 C 11.78125 6.640625 11.644531 6.71875 11.554688 6.820312 C 11.558594 6.824219 11.585938 6.867188 11.597656 6.875 C 11.808594 7.109375 12.589844 6.898438 12.734375 6.761719 C 12.90625 6.84375 12.886719 6.886719 13.121094 6.808594 C 13.660156 6.609375 13.355469 6.53125 13.558594 6.160156 C 13.683594 5.9375 13.699219 5.984375 13.886719 5.945312 C 14.097656 5.894531 14.203125 5.289062 14.691406 5.050781 C 14.988281 4.910156 15.089844 4.8125 15.351562 4.597656 C 15.550781 4.441406 15.527344 4.519531 15.53125 4.214844 C 15.695312 4.203125 15.835938 4.226562 16.039062 4.164062 C 16.171875 4.125 16.367188 4.050781 16.519531 4.125 C 16.515625 4.261719 16.53125 4.203125 16.316406 4.277344 C 16.0625 4.363281 15.875 4.496094 15.628906 4.570312 L 15.632812 4.808594 C 15.757812 4.8125 15.832031 4.824219 15.894531 4.910156 C 15.832031 5.046875 15.808594 4.914062 15.703125 5.136719 C 15.226562 5.136719 15.179688 5.332031 14.8125 5.441406 C 14.667969 5.488281 14.566406 5.425781 14.566406 5.570312 C 14.566406 6.1875 15.148438 5.773438 15.628906 5.925781 C 15.496094 6.273438 15.046875 6.011719 14.847656 6.0625 C 14.769531 6.085938 14.722656 6.136719 14.667969 6.175781 C 14.683594 6.496094 14.761719 6.351562 14.917969 6.425781 C 15.007812 6.464844 15.035156 6.632812 15.085938 6.722656 C 15.507812 6.667969 15.925781 6.605469 16.355469 6.605469 C 16.632812 6.605469 17.050781 7.070312 17.148438 7.277344 C 17.203125 7.402344 17.171875 7.328125 17.238281 7.417969 C 17.3125 7.527344 17.515625 8.222656 17.53125 8.3125 Z M 12.972656 9.855469 C 13.136719 9.980469 13.222656 10.222656 13.222656 10.476562 C 13.386719 10.476562 13.644531 10.492188 13.644531 10.652344 C 13.53125 10.753906 13.277344 10.664062 13.101562 10.730469 C 12.972656 10.816406 12.914062 11.253906 13.289062 11.226562 C 13.628906 11.199219 13.644531 10.898438 13.875 10.917969 C 13.910156 11.511719 13.730469 11.226562 13.570312 11.707031 C 13.542969 11.796875 13.558594 11.855469 13.542969 11.96875 C 13.007812 11.996094 12.796875 12.019531 12.796875 12.476562 C 13.289062 12.632812 13.128906 12.519531 13.59375 12.402344 C 14.171875 12.847656 13.710938 12.910156 14.671875 13.339844 C 14.886719 13.4375 14.964844 13.515625 15.164062 13.398438 C 15.109375 12.992188 14.71875 12.996094 14.695312 12.792969 C 14.988281 12.816406 15.179688 13.019531 15.476562 13.085938 C 15.679688 12.503906 15.515625 12.492188 15.324219 12.265625 C 15.023438 11.917969 14.957031 11.957031 14.972656 11.480469 C 15.390625 11.550781 15.25 12.085938 15.703125 12.074219 C 16.027344 12.070312 16.171875 11.300781 16.160156 11.277344 C 16.074219 11.082031 15.988281 11.195312 15.847656 11.082031 L 15.570312 10.832031 C 15.046875 10.390625 15.074219 10.714844 15.070312 10.300781 C 15.160156 10.296875 15.175781 10.289062 15.222656 10.261719 C 15.222656 10.238281 15.128906 9.605469 15.085938 9.679688 C 15.078125 9.691406 15.058594 9.667969 15.039062 9.65625 C 14.863281 9.5625 14.949219 9.601562 14.835938 9.492188 C 14.683594 9.355469 14.683594 9.480469 14.53125 9.339844 C 14.253906 9.082031 14.402344 8.96875 13.949219 9.058594 C 13.898438 8.984375 13.847656 8.945312 13.78125 8.871094 C 13.691406 8.765625 13.589844 8.539062 13.519531 8.402344 C 13.433594 8.234375 13.464844 8.386719 13.46875 8.160156 C 12.988281 8.039062 13.417969 8.074219 12.640625 8.074219 C 12.496094 8.074219 12.59375 8.136719 12.339844 8.148438 C 12.273438 8.152344 12.261719 8.140625 12.199219 8.164062 C 12.113281 8.195312 12.21875 8.183594 12.066406 8.242188 C 11.75 7.84375 11.1875 8.554688 11.039062 8.878906 C 10.996094 8.960938 10.914062 9.238281 10.875 9.304688 C 11.066406 9.460938 11.089844 9.351562 11.25 9.578125 C 11.128906 9.777344 11.136719 9.652344 11.050781 9.960938 C 11.492188 10.0625 12.128906 10.070312 12.605469 10.011719 C 12.894531 9.972656 12.800781 9.921875 12.972656 9.855469 Z M 10.242188 15.601562 C 10.566406 15.714844 10.851562 15.878906 11.136719 16.058594 C 11.402344 16.226562 11.621094 16.074219 11.796875 16.277344 C 11.894531 16.5 11.640625 17.109375 11.996094 17.300781 L 12.277344 17.464844 C 12.679688 17.269531 12.339844 16.96875 12.339844 16.65625 L 12.390625 16.347656 C 12.445312 16.167969 12.367188 16.269531 12.542969 16.199219 C 12.757812 16.125 12.691406 16.097656 12.792969 15.894531 C 12.898438 15.6875 12.875 15.726562 12.824219 15.460938 C 12.742188 14.984375 12.445312 14.882812 12.605469 14.6875 C 12.757812 14.492188 12.746094 14.601562 12.742188 14.257812 C 12.742188 14.070312 12.746094 13.882812 12.742188 13.695312 C 12.742188 13.238281 12.582031 13.328125 13.757812 13.339844 C 13.835938 13.460938 14.058594 13.695312 14.152344 13.765625 C 14.289062 13.847656 14.328125 13.792969 14.394531 13.953125 C 14.59375 14.402344 14.335938 14.644531 14.316406 14.816406 C 14.4375 14.816406 14.527344 14.777344 14.601562 14.800781 C 14.808594 14.855469 14.796875 15.054688 15.078125 14.753906 C 15.328125 14.492188 15.148438 14.398438 15.292969 14.21875 C 15.492188 13.972656 15.660156 14.386719 15.722656 14.527344 C 15.820312 14.726562 15.933594 14.890625 16.011719 15.097656 C 16.023438 15.125 16.035156 15.15625 16.046875 15.195312 C 16.074219 15.261719 16.089844 15.269531 16.101562 15.308594 C 16.164062 15.523438 15.867188 15.523438 16.242188 15.816406 C 16.363281 15.90625 16.425781 16.011719 16.519531 16.125 L 16.933594 16.148438 L 17.074219 16.464844 C 17.085938 16.5 17.101562 16.554688 17.125 16.585938 C 17.238281 16.730469 17.113281 16.589844 17.214844 16.652344 C 17.289062 16.699219 17.261719 16.664062 17.304688 16.726562 C 17.476562 16.941406 17.402344 17.308594 17.402344 17.613281 C 17.402344 17.804688 17.277344 17.707031 17.304688 18.015625 C 17.492188 18.082031 17.476562 18.070312 17.714844 18.074219 C 17.78125 18.238281 17.773438 18.132812 17.808594 18.371094 C 17.832031 18.535156 17.871094 18.539062 17.960938 18.648438 C 18.109375 18.820312 18.085938 19.097656 17.804688 19.035156 C 17.363281 18.941406 17.464844 18.703125 16.515625 18.703125 C 16.558594 18.539062 16.652344 18.449219 16.710938 18.296875 C 16.792969 18.105469 16.976562 17.777344 16.960938 17.601562 C 16.644531 17.535156 16.628906 17.691406 16.601562 17.820312 C 16.507812 17.832031 15.917969 17.90625 15.867188 17.941406 C 15.90625 17.992188 15.957031 17.996094 16.035156 17.996094 L 16.027344 18.300781 C 15.558594 18.300781 15.695312 18.296875 15.492188 18.046875 C 15.351562 17.871094 15.074219 17.972656 14.886719 18.054688 C 14.589844 18.171875 14.582031 18.160156 14.4375 18.425781 C 14.3125 18.648438 14.101562 18.667969 14.085938 18.914062 C 14.367188 18.882812 14.328125 18.613281 14.667969 18.390625 C 14.804688 18.300781 15.128906 18.09375 15.3125 18.160156 C 15.667969 18.289062 15.160156 18.535156 15.519531 18.84375 C 15.601562 18.90625 15.707031 18.921875 15.792969 18.96875 C 16.046875 19.082031 16.199219 19.042969 16.464844 18.984375 C 16.464844 19.3125 16.476562 19.257812 16.300781 19.433594 C 16.164062 19.558594 16.101562 19.585938 15.894531 19.617188 C 15.707031 19.648438 15.679688 19.75 15.53125 19.851562 C 15.351562 19.976562 15.351562 19.96875 15.085938 19.96875 C 15.027344 19.652344 15.191406 19.8125 15.191406 19.574219 C 14.855469 19.550781 15.035156 19.660156 14.757812 19.730469 C 14.605469 19.769531 14.53125 19.78125 14.417969 19.882812 L 14.164062 20.121094 C 14.101562 20.222656 14.160156 20.402344 14.160156 20.550781 C 13.972656 20.613281 13.796875 20.675781 13.644531 20.792969 C 13.425781 20.957031 13.457031 21.015625 13.339844 21.28125 C 13.261719 21.460938 13.179688 21.613281 13.113281 21.84375 C 12.933594 22.460938 12.988281 22.257812 12.667969 22.578125 C 12.484375 22.761719 12.160156 22.90625 12.027344 23.128906 C 11.761719 23.589844 12.292969 23.773438 12.289062 24.523438 L 12.28125 24.652344 C 12.1875 24.652344 12.085938 24.652344 12.011719 24.625 C 11.882812 24.574219 11.742188 24.207031 11.691406 24.058594 C 11.484375 23.511719 11.484375 23.394531 10.417969 23.523438 L 10.371094 23.714844 C 9.988281 23.773438 9.984375 23.5625 9.644531 23.5625 C 9.457031 23.5625 9.046875 23.902344 9.046875 24.066406 C 9.046875 25.179688 8.949219 24.878906 9.269531 25.488281 C 9.355469 25.648438 9.421875 25.828125 9.609375 25.875 C 10.023438 25.96875 10.328125 25.722656 10.390625 25.308594 C 10.761719 25.308594 10.695312 25.269531 10.949219 25.421875 C 10.933594 25.738281 10.84375 25.78125 10.84375 26.382812 C 11.046875 26.507812 11.378906 26.527344 11.617188 26.632812 C 11.898438 26.753906 11.808594 27.144531 11.808594 27.519531 C 11.851562 27.597656 11.960938 27.691406 12.023438 27.738281 C 12.164062 27.855469 12.175781 27.816406 12.351562 27.800781 C 12.898438 27.738281 12.667969 27.878906 13.035156 27.96875 C 13.179688 27.878906 13.238281 27.703125 13.453125 27.609375 C 13.542969 27.574219 13.65625 27.546875 13.753906 27.511719 C 14.089844 27.386719 13.605469 27.089844 14.617188 27.582031 L 14.894531 27.726562 C 15.210938 27.875 15.773438 27.675781 15.976562 27.800781 C 16.109375 27.878906 16.019531 27.902344 16.121094 27.988281 C 16.199219 28.042969 16.390625 28.070312 16.566406 28.203125 C 16.695312 28.296875 17.050781 28.621094 17.148438 28.644531 C 17.617188 28.753906 18.125 28.5625 18.476562 29.28125 C 18.742188 29.839844 18.367188 29.675781 19.011719 29.800781 C 19.148438 29.824219 19.226562 29.859375 19.367188 29.902344 C 19.90625 30.066406 19.816406 30.175781 20.203125 30.117188 C 20.511719 30.074219 21.265625 30.480469 21.550781 30.582031 C 21.550781 31.242188 21.480469 31.140625 21.097656 31.5 C 20.957031 31.632812 20.796875 31.703125 20.734375 31.835938 C 20.695312 31.898438 20.640625 32.253906 20.59375 32.382812 C 20.492188 32.671875 20.277344 33.027344 20.023438 33.191406 C 19.886719 33.28125 19.53125 33.164062 18.957031 33.542969 C 18.796875 33.648438 18.785156 33.925781 18.328125 34.292969 C 18.246094 34.359375 18.199219 34.367188 18.136719 34.433594 C 18.011719 34.570312 18.132812 34.542969 17.921875 34.585938 C 17.25 34.71875 17.515625 34.949219 16.984375 35.015625 C 16.820312 35.039062 16.554688 35.101562 16.441406 35.167969 C 16.160156 35.34375 16.023438 35.59375 15.78125 35.726562 C 15.71875 35.761719 15.773438 35.726562 15.71875 35.769531 C 15.679688 35.796875 15.566406 35.886719 15.316406 35.761719 C 15.160156 35.6875 14.972656 35.746094 14.792969 35.699219 C 14.773438 35.421875 14.660156 35.683594 14.773438 35.417969 C 14.835938 35.265625 14.835938 35.195312 14.742188 35.09375 C 14.488281 34.832031 14.492188 34.832031 14.640625 34.484375 C 14.808594 34.078125 14.570312 34.085938 14.671875 33.800781 C 14.707031 33.722656 14.707031 33.789062 14.71875 33.644531 L 14.734375 32.6875 C 14.710938 32.570312 14.742188 32.675781 14.679688 32.59375 C 14.546875 32.421875 14.605469 32.417969 14.378906 32.328125 C 13.667969 32.03125 13.617188 31.890625 13.1875 31.316406 C 13.125 31.230469 13.097656 31.167969 13.039062 31.101562 C 12.152344 29.980469 12.582031 30.550781 12.496094 29.867188 C 12.484375 29.746094 12.484375 29.621094 12.492188 29.492188 C 12.632812 29.367188 12.996094 29.011719 12.996094 28.800781 C 12.996094 28.597656 12.8125 28.171875 12.605469 28.171875 C 11.976562 28.171875 12.328125 28.335938 11.71875 27.980469 C 11.363281 27.765625 11.191406 27.207031 10.8125 27.070312 C 10.679688 27.027344 10.679688 27.027344 10.558594 26.964844 C 10.421875 26.890625 10.382812 26.929688 10.28125 26.886719 C 10.1875 26.839844 10.214844 26.789062 10.085938 26.722656 C 9.9375 26.636719 9.984375 26.683594 9.871094 26.570312 C 9.722656 26.417969 9.507812 26.460938 9.3125 26.445312 C 9.128906 26.425781 9.011719 26.296875 8.835938 26.222656 C 8.332031 26.007812 7.851562 25.726562 7.699219 25.183594 C 7.597656 24.816406 7.332031 24.601562 7.128906 24.308594 L 6.367188 23.09375 C 6.28125 22.980469 6.355469 23.042969 6.253906 23.015625 C 6.214844 23.132812 6.226562 23.148438 6.292969 23.234375 C 6.460938 23.457031 6.316406 23.457031 6.457031 23.570312 L 6.609375 23.804688 C 6.660156 23.925781 6.71875 24.015625 6.796875 24.144531 C 6.914062 24.335938 7.308594 24.550781 7.011719 24.789062 C 6.710938 24.75 6.480469 24.117188 6.320312 23.894531 C 6.203125 23.738281 6.128906 23.558594 6.042969 23.386719 C 5.886719 23.078125 5.8125 22.5 5.53125 22.285156 C 5.226562 22.066406 4.714844 20.980469 4.714844 20.710938 C 4.714844 20.296875 4.664062 19.882812 4.757812 19.464844 C 4.785156 19.320312 4.847656 19.339844 4.769531 19.171875 C 4.632812 18.890625 4.824219 18.855469 4.570312 18.546875 C 4.214844 18.109375 4.523438 17.96875 4.320312 17.578125 C 4.269531 17.484375 4.246094 17.433594 4.15625 17.363281 C 4 17.246094 4.394531 16.804688 3.808594 16.804688 C 3.808594 16.578125 3.664062 16.328125 3.636719 16.09375 C 3.621094 15.960938 3.660156 16.007812 3.59375 15.90625 L 3.398438 15.628906 C 3.269531 15.511719 3.230469 15.574219 3.140625 15.644531 C 3.003906 15.757812 3.066406 15.679688 2.953125 15.730469 C 2.839844 15.777344 2.800781 15.945312 2.761719 16.058594 C 2.644531 16.414062 2.816406 16.703125 2.441406 16.800781 C 2.328125 16.601562 2.457031 16.425781 2.34375 16.308594 C 2.277344 16.675781 2.203125 16.476562 2.144531 16.730469 C 2.457031 15.109375 3.011719 13.574219 3.765625 12.15625 C 3.746094 12.210938 3.738281 12.257812 3.746094 12.285156 C 3.863281 12.359375 4 12.214844 4.140625 12.171875 C 4.328125 12.113281 4.453125 12.132812 4.675781 12.121094 C 4.726562 12.035156 4.734375 11.984375 4.785156 11.898438 C 4.835938 11.816406 4.898438 11.765625 4.949219 11.703125 C 5.179688 11.441406 5.226562 11.515625 5.53125 11.515625 C 5.710938 11.515625 5.988281 11.308594 6.15625 11.300781 C 6.289062 11.300781 6.546875 11.367188 6.683594 11.429688 C 6.785156 11.46875 6.769531 11.460938 6.832031 11.515625 L 6.800781 11.78125 C 6.871094 11.816406 7.125 11.695312 7.40625 11.695312 C 7.542969 11.695312 7.515625 11.808594 7.617188 11.878906 C 7.660156 11.910156 7.667969 11.90625 7.726562 11.917969 C 7.734375 11.664062 7.785156 11.691406 7.636719 11.527344 C 7.507812 11.378906 7.582031 11.414062 7.371094 11.414062 C 7.238281 11.414062 7.28125 11.601562 7.054688 11.351562 C 6.871094 11.144531 6.898438 11.277344 6.6875 11.171875 C 6.648438 10.960938 6.761719 10.886719 6.925781 10.84375 C 7.167969 10.78125 7.117188 10.804688 7.265625 10.640625 C 7.066406 10.542969 7.039062 10.714844 6.761719 10.65625 C 6.683594 10.550781 6.761719 10.652344 6.722656 10.566406 L 6.574219 10.316406 C 6.492188 10.441406 6.441406 10.425781 6.328125 10.542969 C 6.226562 10.65625 6.1875 10.679688 5.988281 10.640625 C 5.972656 10.238281 6.320312 9.632812 6.597656 9.335938 C 6.707031 9.222656 7 9.1875 7.175781 9.1875 C 7.339844 9.1875 7.59375 9.402344 7.675781 9.476562 C 7.769531 9.550781 7.8125 9.601562 7.890625 9.664062 L 8 9.753906 C 8.085938 9.84375 7.972656 9.816406 8.128906 9.84375 C 8.136719 9.835938 8.140625 9.820312 8.140625 9.828125 C 8.15625 9.886719 8.15625 9.785156 8.15625 9.777344 C 8.230469 9.554688 8.25 9.328125 8.351562 9.113281 C 8.433594 8.949219 8.847656 8.605469 8.847656 8.996094 C 8.847656 9.140625 8.746094 9.242188 8.617188 9.277344 C 8.617188 9.480469 8.605469 9.71875 8.617188 9.917969 C 8.632812 10.335938 9.074219 10.050781 8.949219 10.488281 C 8.921875 10.59375 8.851562 10.617188 8.773438 10.671875 C 8.863281 11.136719 8.644531 11.011719 8.441406 11.082031 L 8.371094 11.109375 L 8.351562 11.121094 L 8.308594 11.144531 L 8.289062 11.152344 C 8.289062 11.152344 8.277344 11.160156 8.269531 11.164062 C 8.308594 11.25 8.445312 11.316406 8.523438 11.398438 L 8.921875 11.390625 C 9.046875 11.261719 9.125 11.203125 9.207031 10.996094 C 9.292969 10.785156 9.28125 10.679688 9.441406 10.511719 C 9.757812 10.511719 9.554688 10.59375 9.746094 10.65625 C 9.84375 10.65625 10.015625 10.667969 9.953125 10.527344 C 9.933594 10.46875 9.730469 10.417969 9.730469 10.277344 C 9.730469 9.679688 9.847656 9.820312 9.953125 9.632812 C 10.0625 9.449219 9.945312 9.492188 10.269531 9.492188 C 10.40625 9.492188 10.492188 9.910156 10.492188 10.046875 C 10.492188 10.300781 10.40625 10.164062 10.546875 10.390625 C 10.636719 10.539062 10.609375 10.640625 10.667969 10.777344 C 10.792969 10.734375 10.847656 10.5625 10.882812 10.429688 C 10.902344 10.453125 10.914062 10.460938 10.921875 10.460938 C 10.921875 10.464844 10.921875 10.476562 10.9375 10.503906 C 10.949219 10.53125 10.953125 10.570312 10.964844 10.601562 C 11.066406 10.589844 11.039062 10.566406 11.117188 10.605469 C 11.117188 10.785156 11 11.03125 11.078125 11.210938 C 11.1875 11.246094 11.210938 11.222656 11.300781 11.175781 C 11.324219 11.058594 11.316406 10.945312 11.367188 10.84375 C 11.425781 10.71875 11.496094 10.703125 11.554688 10.605469 C 11.609375 10.375 11.34375 9.933594 12.273438 10.3125 C 12.277344 10.46875 12.238281 10.632812 12.238281 10.769531 C 12.238281 11.183594 12.378906 11.199219 12.058594 11.503906 C 11.953125 11.59375 11.976562 11.652344 11.835938 11.792969 C 11.851562 11.917969 11.875 11.882812 11.871094 11.980469 C 11.859375 12.082031 11.824219 12.058594 11.808594 12.183594 C 11.972656 12.390625 12.3125 12.566406 12.265625 12.894531 C 12.0625 13 12.023438 12.839844 11.746094 12.808594 C 11.691406 13.035156 11.710938 12.980469 11.453125 13.011719 C 11.289062 13.035156 11.128906 12.949219 11.109375 12.820312 C 11.066406 12.628906 11.25 12.617188 11.25 12.449219 C 11.25 12.316406 11.230469 12.246094 11.160156 12.1875 C 10.996094 12.347656 11.289062 12.449219 10.699219 12.84375 C 10.191406 13.1875 10.535156 13.316406 10.1875 13.449219 C 9.785156 13.601562 10.023438 13.542969 9.710938 14.097656 C 9.554688 14.386719 9.417969 14.5625 9.609375 14.953125 C 9.800781 15.058594 9.769531 14.882812 9.835938 15.148438 C 9.902344 15.441406 9.960938 15.511719 10.242188 15.601562 " fill-opacity="1" fill-rule="evenodd"/></g><g fill="#2a2a2a" fill-opacity="1"><g transform="translate(52.617226, 22.975156)"><g><path d="M 7.84375 -6.40625 C 7.59375 -6.9375 7.226562 -7.34375 6.75 -7.625 C 6.269531 -7.914062 5.71875 -8.0625 5.09375 -8.0625 C 4.457031 -8.0625 3.882812 -7.914062 3.375 -7.625 C 2.875 -7.34375 2.476562 -6.929688 2.1875 -6.390625 C 1.90625 -5.847656 1.765625 -5.222656 1.765625 -4.515625 C 1.765625 -3.804688 1.90625 -3.1875 2.1875 -2.65625 C 2.476562 -2.125 2.875 -1.710938 3.375 -1.421875 C 3.882812 -1.128906 4.457031 -0.984375 5.09375 -0.984375 C 5.96875 -0.984375 6.691406 -1.242188 7.265625 -1.765625 C 7.835938 -2.296875 8.171875 -3.007812 8.265625 -3.90625 L 4.65625 -3.90625 L 4.65625 -4.875 L 9.515625 -4.875 L 9.515625 -3.96875 C 9.453125 -3.21875 9.21875 -2.535156 8.8125 -1.921875 C 8.414062 -1.304688 7.894531 -0.816406 7.25 -0.453125 C 6.601562 -0.0976562 5.882812 0.078125 5.09375 0.078125 C 4.25 0.078125 3.484375 -0.113281 2.796875 -0.5 C 2.109375 -0.894531 1.5625 -1.441406 1.15625 -2.140625 C 0.757812 -2.847656 0.5625 -3.640625 0.5625 -4.515625 C 0.5625 -5.398438 0.757812 -6.191406 1.15625 -6.890625 C 1.5625 -7.597656 2.109375 -8.144531 2.796875 -8.53125 C 3.484375 -8.925781 4.25 -9.125 5.09375 -9.125 C 6.050781 -9.125 6.898438 -8.882812 7.640625 -8.40625 C 8.378906 -7.9375 8.914062 -7.269531 9.25 -6.40625 Z M 7.84375 -6.40625 "/></g></g></g><g fill="#2a2a2a" fill-opacity="1"><g transform="translate(65.306826, 22.975156)"><g><path d="M 5.75 0 L 3.59375 -3.6875 L 2.171875 -3.6875 L 2.171875 0 L 1 0 L 1 -9.03125 L 3.90625 -9.03125 C 4.59375 -9.03125 5.171875 -8.910156 5.640625 -8.671875 C 6.109375 -8.441406 6.457031 -8.128906 6.6875 -7.734375 C 6.925781 -7.335938 7.046875 -6.882812 7.046875 -6.375 C 7.046875 -5.75 6.863281 -5.195312 6.5 -4.71875 C 6.144531 -4.25 5.609375 -3.9375 4.890625 -3.78125 L 7.15625 0 Z M 2.171875 -4.640625 L 3.90625 -4.640625 C 4.550781 -4.640625 5.03125 -4.796875 5.34375 -5.109375 C 5.664062 -5.421875 5.828125 -5.84375 5.828125 -6.375 C 5.828125 -6.90625 5.671875 -7.316406 5.359375 -7.609375 C 5.046875 -7.910156 4.5625 -8.0625 3.90625 -8.0625 L 2.171875 -8.0625 Z M 2.171875 -4.640625 "/></g></g></g><g fill="#2a2a2a" fill-opacity="1"><g transform="translate(75.795171, 22.975156)"><g><path d="M 2.171875 -8.0625 L 2.171875 -5.046875 L 5.46875 -5.046875 L 5.46875 -4.078125 L 2.171875 -4.078125 L 2.171875 -0.96875 L 5.859375 -0.96875 L 5.859375 0 L 1 0 L 1 -9.046875 L 5.859375 -9.046875 L 5.859375 -8.0625 Z M 2.171875 -8.0625 "/></g></g></g><g fill="#2a2a2a" fill-opacity="1"><g transform="translate(85.053398, 22.975156)"><g><path d="M 2.171875 -8.0625 L 2.171875 -5.046875 L 5.46875 -5.046875 L 5.46875 -4.078125 L 2.171875 -4.078125 L 2.171875 -0.96875 L 5.859375 -0.96875 L 5.859375 0 L 1 0 L 1 -9.046875 L 5.859375 -9.046875 L 5.859375 -8.0625 Z M 2.171875 -8.0625 "/></g></g></g><g fill="#2a2a2a" fill-opacity="1"><g transform="translate(94.311624, 22.975156)"><g><path d="M 8.09375 0 L 6.921875 0 L 2.171875 -7.1875 L 2.171875 0 L 1 0 L 1 -9.046875 L 2.171875 -9.046875 L 6.921875 -1.859375 L 6.921875 -9.046875 L 8.09375 -9.046875 Z M 8.09375 0 "/></g></g></g><g fill="#2a2a2a" fill-opacity="1"><g transform="translate(106.03008, 22.975156)"><g/></g></g><g fill="#2a2a2a" fill-opacity="1"><g transform="translate(112.102956, 22.975156)"><g><path d="M 3.859375 0.09375 C 3.265625 0.09375 2.726562 -0.0078125 2.25 -0.21875 C 1.78125 -0.4375 1.410156 -0.734375 1.140625 -1.109375 C 0.878906 -1.484375 0.742188 -1.914062 0.734375 -2.40625 L 2 -2.40625 C 2.039062 -1.988281 2.210938 -1.632812 2.515625 -1.34375 C 2.828125 -1.050781 3.273438 -0.90625 3.859375 -0.90625 C 4.421875 -0.90625 4.863281 -1.046875 5.1875 -1.328125 C 5.507812 -1.609375 5.671875 -1.96875 5.671875 -2.40625 C 5.671875 -2.75 5.578125 -3.03125 5.390625 -3.25 C 5.203125 -3.46875 4.960938 -3.628906 4.671875 -3.734375 C 4.390625 -3.847656 4.003906 -3.972656 3.515625 -4.109375 C 2.921875 -4.265625 2.441406 -4.421875 2.078125 -4.578125 C 1.722656 -4.734375 1.421875 -4.972656 1.171875 -5.296875 C 0.921875 -5.628906 0.796875 -6.078125 0.796875 -6.640625 C 0.796875 -7.140625 0.921875 -7.578125 1.171875 -7.953125 C 1.421875 -8.328125 1.769531 -8.617188 2.21875 -8.828125 C 2.675781 -9.035156 3.195312 -9.140625 3.78125 -9.140625 C 4.625 -9.140625 5.316406 -8.925781 5.859375 -8.5 C 6.398438 -8.082031 6.707031 -7.523438 6.78125 -6.828125 L 5.484375 -6.828125 C 5.441406 -7.171875 5.257812 -7.472656 4.9375 -7.734375 C 4.613281 -8.003906 4.191406 -8.140625 3.671875 -8.140625 C 3.171875 -8.140625 2.765625 -8.007812 2.453125 -7.75 C 2.148438 -7.5 2 -7.144531 2 -6.6875 C 2 -6.351562 2.085938 -6.082031 2.265625 -5.875 C 2.453125 -5.664062 2.679688 -5.507812 2.953125 -5.40625 C 3.234375 -5.300781 3.617188 -5.175781 4.109375 -5.03125 C 4.703125 -4.875 5.179688 -4.710938 5.546875 -4.546875 C 5.910156 -4.390625 6.21875 -4.144531 6.46875 -3.8125 C 6.726562 -3.476562 6.859375 -3.03125 6.859375 -2.46875 C 6.859375 -2.019531 6.742188 -1.601562 6.515625 -1.21875 C 6.285156 -0.832031 5.941406 -0.515625 5.484375 -0.265625 C 5.023438 -0.0234375 4.484375 0.09375 3.859375 0.09375 Z M 3.859375 0.09375 "/></g></g></g><g fill="#2a2a2a" fill-opacity="1"><g transform="translate(122.319379, 22.975156)"><g><path d="M 5.09375 0.09375 C 4.25 0.09375 3.484375 -0.101562 2.796875 -0.5 C 2.109375 -0.894531 1.5625 -1.441406 1.15625 -2.140625 C 0.757812 -2.847656 0.5625 -3.640625 0.5625 -4.515625 C 0.5625 -5.398438 0.757812 -6.191406 1.15625 -6.890625 C 1.5625 -7.597656 2.109375 -8.144531 2.796875 -8.53125 C 3.484375 -8.925781 4.25 -9.125 5.09375 -9.125 C 5.9375 -9.125 6.703125 -8.925781 7.390625 -8.53125 C 8.085938 -8.144531 8.632812 -7.601562 9.03125 -6.90625 C 9.425781 -6.207031 9.625 -5.410156 9.625 -4.515625 C 9.625 -3.628906 9.425781 -2.835938 9.03125 -2.140625 C 8.632812 -1.441406 8.085938 -0.894531 7.390625 -0.5 C 6.703125 -0.101562 5.9375 0.09375 5.09375 0.09375 Z M 5.09375 -0.9375 C 5.71875 -0.9375 6.28125 -1.082031 6.78125 -1.375 C 7.289062 -1.664062 7.691406 -2.082031 7.984375 -2.625 C 8.273438 -3.175781 8.421875 -3.804688 8.421875 -4.515625 C 8.421875 -5.242188 8.273438 -5.878906 7.984375 -6.421875 C 7.691406 -6.960938 7.296875 -7.378906 6.796875 -7.671875 C 6.296875 -7.960938 5.726562 -8.109375 5.09375 -8.109375 C 4.445312 -8.109375 3.875 -7.960938 3.375 -7.671875 C 2.875 -7.378906 2.476562 -6.960938 2.1875 -6.421875 C 1.90625 -5.878906 1.765625 -5.242188 1.765625 -4.515625 C 1.765625 -3.804688 1.90625 -3.175781 2.1875 -2.625 C 2.476562 -2.082031 2.875 -1.664062 3.375 -1.375 C 3.882812 -1.082031 4.457031 -0.9375 5.09375 -0.9375 Z M 5.09375 -0.9375 "/></g></g></g><g fill="#2a2a2a" fill-opacity="1"><g transform="translate(135.112569, 22.975156)"><g><path d="M 2.171875 -0.953125 L 5.34375 -0.953125 L 5.34375 0 L 1 0 L 1 -9.03125 L 2.171875 -9.03125 Z M 2.171875 -0.953125 "/></g></g></g><g fill="#2a2a2a" fill-opacity="1"><g transform="translate(143.321965, 22.975156)"><g><path d="M 2.15625 -9.03125 L 2.15625 -3.3125 C 2.15625 -2.507812 2.347656 -1.914062 2.734375 -1.53125 C 3.128906 -1.144531 3.675781 -0.953125 4.375 -0.953125 C 5.070312 -0.953125 5.613281 -1.144531 6 -1.53125 C 6.394531 -1.914062 6.59375 -2.507812 6.59375 -3.3125 L 6.59375 -9.03125 L 7.765625 -9.03125 L 7.765625 -3.328125 C 7.765625 -2.578125 7.613281 -1.941406 7.3125 -1.421875 C 7.007812 -0.910156 6.601562 -0.53125 6.09375 -0.28125 C 5.582031 -0.03125 5.003906 0.09375 4.359375 0.09375 C 3.722656 0.09375 3.144531 -0.03125 2.625 -0.28125 C 2.113281 -0.53125 1.707031 -0.910156 1.40625 -1.421875 C 1.113281 -1.941406 0.96875 -2.578125 0.96875 -3.328125 L 0.96875 -9.03125 Z M 2.15625 -9.03125 "/></g></g></g><g fill="#2a2a2a" fill-opacity="1"><g transform="translate(154.677867, 22.975156)"><g><path d="M 6.546875 -9.03125 L 6.546875 -8.0625 L 4.09375 -8.0625 L 4.09375 0 L 2.921875 0 L 2.921875 -8.0625 L 0.4375 -8.0625 L 0.4375 -9.03125 Z M 6.546875 -9.03125 "/></g></g></g><g fill="#2a2a2a" fill-opacity="1"><g transform="translate(164.298653, 22.975156)"><g><path d="M 2.171875 -9.03125 L 2.171875 0 L 1 0 L 1 -9.03125 Z M 2.171875 -9.03125 "/></g></g></g><g fill="#2a2a2a" fill-opacity="1"><g transform="translate(170.099612, 22.975156)"><g><path d="M 5.09375 0.09375 C 4.25 0.09375 3.484375 -0.101562 2.796875 -0.5 C 2.109375 -0.894531 1.5625 -1.441406 1.15625 -2.140625 C 0.757812 -2.847656 0.5625 -3.640625 0.5625 -4.515625 C 0.5625 -5.398438 0.757812 -6.191406 1.15625 -6.890625 C 1.5625 -7.597656 2.109375 -8.144531 2.796875 -8.53125 C 3.484375 -8.925781 4.25 -9.125 5.09375 -9.125 C 5.9375 -9.125 6.703125 -8.925781 7.390625 -8.53125 C 8.085938 -8.144531 8.632812 -7.601562 9.03125 -6.90625 C 9.425781 -6.207031 9.625 -5.410156 9.625 -4.515625 C 9.625 -3.628906 9.425781 -2.835938 9.03125 -2.140625 C 8.632812 -1.441406 8.085938 -0.894531 7.390625 -0.5 C 6.703125 -0.101562 5.9375 0.09375 5.09375 0.09375 Z M 5.09375 -0.9375 C 5.71875 -0.9375 6.28125 -1.082031 6.78125 -1.375 C 7.289062 -1.664062 7.691406 -2.082031 7.984375 -2.625 C 8.273438 -3.175781 8.421875 -3.804688 8.421875 -4.515625 C 8.421875 -5.242188 8.273438 -5.878906 7.984375 -6.421875 C 7.691406 -6.960938 7.296875 -7.378906 6.796875 -7.671875 C 6.296875 -7.960938 5.726562 -8.109375 5.09375 -8.109375 C 4.445312 -8.109375 3.875 -7.960938 3.375 -7.671875 C 2.875 -7.378906 2.476562 -6.960938 2.1875 -6.421875 C 1.90625 -5.878906 1.765625 -5.242188 1.765625 -4.515625 C 1.765625 -3.804688 1.90625 -3.175781 2.1875 -2.625 C 2.476562 -2.082031 2.875 -1.664062 3.375 -1.375 C 3.882812 -1.082031 4.457031 -0.9375 5.09375 -0.9375 Z M 5.09375 -0.9375 "/></g></g></g><g fill="#2a2a2a" fill-opacity="1"><g transform="translate(182.892795, 22.975156)"><g><path d="M 8.09375 0 L 6.921875 0 L 2.171875 -7.1875 L 2.171875 0 L 1 0 L 1 -9.046875 L 2.171875 -9.046875 L 6.921875 -1.859375 L 6.921875 -9.046875 L 8.09375 -9.046875 Z M 8.09375 0 "/></g></g></g><g fill="#2a2a2a" fill-opacity="1"><g transform="translate(194.611255, 22.975156)"><g><path d="M 3.859375 0.09375 C 3.265625 0.09375 2.726562 -0.0078125 2.25 -0.21875 C 1.78125 -0.4375 1.410156 -0.734375 1.140625 -1.109375 C 0.878906 -1.484375 0.742188 -1.914062 0.734375 -2.40625 L 2 -2.40625 C 2.039062 -1.988281 2.210938 -1.632812 2.515625 -1.34375 C 2.828125 -1.050781 3.273438 -0.90625 3.859375 -0.90625 C 4.421875 -0.90625 4.863281 -1.046875 5.1875 -1.328125 C 5.507812 -1.609375 5.671875 -1.96875 5.671875 -2.40625 C 5.671875 -2.75 5.578125 -3.03125 5.390625 -3.25 C 5.203125 -3.46875 4.960938 -3.628906 4.671875 -3.734375 C 4.390625 -3.847656 4.003906 -3.972656 3.515625 -4.109375 C 2.921875 -4.265625 2.441406 -4.421875 2.078125 -4.578125 C 1.722656 -4.734375 1.421875 -4.972656 1.171875 -5.296875 C 0.921875 -5.628906 0.796875 -6.078125 0.796875 -6.640625 C 0.796875 -7.140625 0.921875 -7.578125 1.171875 -7.953125 C 1.421875 -8.328125 1.769531 -8.617188 2.21875 -8.828125 C 2.675781 -9.035156 3.195312 -9.140625 3.78125 -9.140625 C 4.625 -9.140625 5.316406 -8.925781 5.859375 -8.5 C 6.398438 -8.082031 6.707031 -7.523438 6.78125 -6.828125 L 5.484375 -6.828125 C 5.441406 -7.171875 5.257812 -7.472656 4.9375 -7.734375 C 4.613281 -8.003906 4.191406 -8.140625 3.671875 -8.140625 C 3.171875 -8.140625 2.765625 -8.007812 2.453125 -7.75 C 2.148438 -7.5 2 -7.144531 2 -6.6875 C 2 -6.351562 2.085938 -6.082031 2.265625 -5.875 C 2.453125 -5.664062 2.679688 -5.507812 2.953125 -5.40625 C 3.234375 -5.300781 3.617188 -5.175781 4.109375 -5.03125 C 4.703125 -4.875 5.179688 -4.710938 5.546875 -4.546875 C 5.910156 -4.390625 6.21875 -4.144531 6.46875 -3.8125 C 6.726562 -3.476562 6.859375 -3.03125 6.859375 -2.46875 C 6.859375 -2.019531 6.742188 -1.601562 6.515625 -1.21875 C 6.285156 -0.832031 5.941406 -0.515625 5.484375 -0.265625 C 5.023438 -0.0234375 4.484375 0.09375 3.859375 0.09375 Z M 3.859375 0.09375 "/></g></g></g></svg>