<svg xmlns="http://www.w3.org/2000/svg" xmlns:xlink="http://www.w3.org/1999/xlink" width="300" zoomAndPan="magnify" viewBox="0 0 224.87999 225" height="300" preserveAspectRatio="xMidYMid meet" version="1.0"><defs><clipPath id="8956825daf"><path d="M 12 1 L 217 1 L 217 222.917969 L 12 222.917969 Z M 12 1 " clip-rule="nonzero"/></clipPath><clipPath id="7235e7c1da"><path d="M 2.621094 10 L 154 10 L 154 215 L 2.621094 215 Z M 2.621094 10 " clip-rule="nonzero"/></clipPath></defs><g clip-path="url(#8956825daf)"><path fill="#c8d5b9" d="M 116.101562 223.050781 C 204.660156 184.355469 139.851562 125.546875 188.171875 54.054688 C 192.445312 88.324219 201.03125 125.511719 182.027344 161.757812 C 201.464844 131.113281 210.878906 66.699219 183.320312 38.28125 C 176.136719 30.882812 167.765625 24.34375 158.351562 18.988281 C 107.984375 -9.535156 44.71875 5.625 12.492188 52.433594 C 44.035156 3.253906 108.917969 -13.199219 160.363281 15.972656 C 170.855469 21.898438 179.980469 29.300781 187.667969 37.742188 C 190.074219 40.363281 192.339844 43.09375 194.421875 45.933594 C 220.21875 80.132812 224.816406 127.703125 202.363281 167.328125 C 183.753906 200.128906 150.988281 219.816406 116.101562 223.050781 " fill-opacity="1" fill-rule="evenodd"/></g><g clip-path="url(#7235e7c1da)"><path fill="#4a7c59" d="M 56.789062 25.917969 C 56.46875 27.496094 56.96875 29.078125 57.6875 30.046875 C 58.335938 29.832031 59.199219 29.152344 59.699219 28.683594 C 59.664062 27.640625 59.234375 27.570312 58.800781 26.742188 C 58.191406 25.628906 58.121094 25.847656 56.789062 25.917969 Z M 52.800781 29.1875 C 53.664062 29.617188 54.527344 29.617188 54.996094 28.683594 C 55.675781 26.3125 53.089844 25.628906 51.976562 27.210938 C 51.328125 28.179688 51.976562 28.757812 52.800781 29.1875 Z M 51.832031 43.308594 C 52.046875 42.445312 52.300781 43.128906 52.121094 41.148438 C 50.898438 40.753906 49.964844 40.933594 49.101562 41.867188 C 47.773438 43.308594 48.851562 43.554688 48.417969 44.777344 C 47.339844 44.921875 47.484375 44.527344 46.300781 44.921875 C 45.472656 47.113281 47.339844 46.933594 48.277344 47.726562 C 48.636719 48.011719 48.777344 48.300781 49.101562 48.550781 C 53.019531 47.976562 51.617188 44.167969 51.832031 43.308594 Z M 58.945312 39.675781 C 57.832031 39.355469 56.574219 38.597656 54.527344 39.746094 C 53.59375 40.21875 53.484375 42.730469 53.484375 43.773438 L 53.558594 44.957031 L 55.425781 45.066406 C 56.105469 42.265625 55.820312 43.878906 57.542969 42.585938 C 58.15625 42.085938 58.082031 41.6875 58.441406 41.148438 C 59.015625 40.289062 58.980469 40.824219 58.945312 39.675781 Z M 58.15625 33.929688 C 58.15625 35.867188 58.082031 36.15625 58.910156 37.488281 L 68 36.300781 C 69.148438 36.191406 71.664062 37.128906 71.664062 33.316406 C 71.664062 32.277344 70.65625 31.703125 69.398438 31.703125 C 67.28125 31.703125 64.875 34.398438 62.574219 33.640625 C 61.351562 33.246094 62.609375 33.425781 60.8125 33.210938 L 60.667969 33.175781 L 60.417969 33.101562 C 60.921875 31.988281 61.351562 33.460938 61.351562 31.847656 C 61.351562 30.804688 60.132812 30.765625 59.160156 30.730469 C 58.082031 30.695312 57.148438 30.550781 56.25 30.660156 C 55.136719 30.839844 55.425781 31.988281 56.105469 32.597656 C 56.71875 33.136719 57.722656 33.136719 58.15625 33.929688 Z M 47.84375 34.253906 C 47.484375 35.761719 47.738281 36.445312 49.675781 37.773438 C 50.109375 38.097656 50.863281 38.207031 51.542969 38.027344 C 53.089844 37.628906 52.945312 36.804688 52.980469 36.515625 L 54.957031 37.953125 C 56.863281 37.414062 57.652344 36.730469 56.648438 34.96875 L 54.921875 34.824219 C 54.277344 33.640625 54.09375 31.882812 52.121094 33.136719 C 50.71875 34.039062 49.964844 34.253906 47.84375 34.253906 Z M 34.011719 40.613281 C 34.550781 42.695312 38.359375 43.59375 40.40625 42.585938 C 41.917969 41.867188 41.558594 40.96875 42.996094 40.539062 C 44.179688 40.21875 43.605469 40.324219 44.433594 39.714844 C 44.898438 39.355469 45.6875 39.175781 46.085938 38.851562 C 46.046875 37.308594 45.832031 37.449219 44.828125 36.875 C 45.042969 36.300781 45.007812 36.515625 44.863281 35.472656 C 42.238281 35.367188 43.496094 36.765625 42.492188 38.597656 L 40.121094 37.269531 C 39.113281 36.480469 38.898438 36.191406 37.640625 37.128906 C 36.492188 37.988281 34.480469 39.390625 34.011719 40.613281 Z M 81.292969 151.550781 C 79.78125 150.6875 75.363281 150.042969 74.753906 153.921875 C 75.796875 154.101562 75.757812 153.777344 76.765625 154.210938 C 78.597656 154.925781 81.074219 154.175781 82.152344 153.382812 C 82.152344 152.664062 82.046875 151.984375 81.292969 151.550781 Z M 74.394531 150.003906 C 73.566406 149.71875 73.0625 149.214844 72.167969 148.75 C 71.375 148.355469 70.441406 147.992188 69.722656 147.632812 C 63.222656 144.542969 63.6875 146.234375 61.351562 146.269531 L 61.351562 148.210938 C 64.695312 147.957031 65.304688 147.851562 69.003906 149.824219 C 71.125 150.976562 70.261719 151.226562 71.589844 151.335938 L 72.058594 151.371094 C 72.308594 151.445312 74.214844 153.273438 74.394531 150.003906 Z M 140.425781 63.53125 C 141.359375 63.316406 141.574219 63.027344 142.332031 64.070312 C 142.1875 64.679688 142.582031 64.359375 141.539062 64.609375 C 142.1875 68.058594 142.367188 65.398438 142.511719 67.519531 C 143.730469 67.769531 143.371094 67.484375 143.730469 68.777344 C 146.75 69.207031 145.457031 69.820312 147 69.820312 C 148.007812 69.820312 149.800781 68.992188 150.449219 68.5625 C 151.347656 67.984375 152.351562 66.730469 153.109375 66.441406 C 153.109375 64.609375 152.785156 63.675781 151.777344 62.632812 C 149.15625 59.9375 149.730469 61.953125 148.472656 61.953125 L 143.875 61.953125 C 142.796875 61.953125 144.054688 61.160156 141.71875 60.875 C 140.964844 61.878906 140.640625 61.808594 140.425781 63.53125 Z M 100.511719 39.640625 C 100.90625 41.976562 98.75 42.191406 100.367188 44.167969 C 101.914062 44.058594 101.300781 43.308594 103.097656 43.128906 C 103.3125 43.484375 103.386719 43.484375 103.566406 43.878906 C 103.816406 44.492188 103.53125 44.347656 103.960938 44.777344 C 104.570312 45.425781 105.578125 44.707031 105.039062 46.503906 C 103.636719 46.359375 104.210938 45.535156 102.882812 45.535156 C 99.578125 45.535156 100.800781 50.851562 102.453125 50.851562 C 103.566406 50.851562 104.105469 50.457031 104.964844 50.097656 C 104.964844 49.195312 104.894531 49.195312 104.535156 48.585938 L 105.613281 48.585938 C 106.835938 52.359375 103.421875 51.535156 102.773438 53.328125 C 102.632812 53.757812 102.238281 54.082031 102.238281 54.65625 C 102.308594 63.855469 102.59375 58.359375 103.421875 61.878906 C 103.601562 62.667969 103.78125 64.035156 103.855469 65.003906 C 105.003906 64.933594 105.328125 64.46875 106.296875 64.789062 C 106.261719 65.398438 105.613281 65.613281 105.613281 66.765625 C 105.613281 69.207031 105.867188 69.640625 107.410156 71.433594 C 107.875 71.976562 108.378906 72.226562 108.59375 72.765625 C 109.132812 74.308594 108.199219 74.273438 110.355469 74.777344 C 114.128906 75.675781 114.054688 78.800781 117.039062 76.535156 C 117.074219 74.34375 117.792969 73.734375 117.863281 72.011719 C 117.9375 69.890625 118.292969 69.136719 119.625 68.273438 C 119.625 66.910156 119.515625 65.722656 119.875 64.539062 C 120.414062 62.886719 120.703125 63.890625 121.171875 61.878906 C 123.398438 61.449219 124.796875 61.519531 126.484375 60.261719 C 128.570312 58.683594 129.433594 56.5625 130.1875 55.988281 C 130.222656 55.953125 130.617188 55.699219 130.691406 55.664062 C 131.769531 55.015625 133.242188 54.910156 134.679688 54.585938 C 140.210938 53.472656 136.976562 52.285156 140.316406 52.285156 C 140.679688 51.605469 141.109375 51.210938 141.46875 50.5625 C 141.898438 49.773438 141.792969 49.160156 142.472656 48.65625 L 141.828125 46.683594 C 141.574219 45.246094 141.429688 46.25 140.855469 45.210938 C 140.640625 44.382812 141.179688 42.585938 141.109375 42.121094 C 140.929688 41.113281 140.53125 42.226562 140.53125 41.042969 C 140.53125 40.179688 140.820312 40.398438 140.964844 40.25 C 141.289062 39.894531 141.394531 39.855469 141.359375 39.894531 C 141.539062 39.675781 141.324219 39.929688 141.539062 39.570312 C 141.828125 39.101562 141.648438 39.246094 142.042969 38.777344 C 144.125 36.046875 142.152344 36.515625 141.828125 34.792969 C 142.832031 34.898438 142.617188 35.582031 143.695312 35.976562 C 144.414062 35.257812 144.628906 35.078125 144.519531 33.714844 C 141.429688 32.996094 143.15625 33.246094 141.324219 31.667969 C 141.214844 31.59375 137.589844 29.117188 139.886719 29.117188 C 140.820312 29.117188 141.144531 29.726562 142.007812 29.117188 C 142.832031 28.074219 140.640625 27.03125 140.246094 26.707031 C 139.457031 26.132812 138.304688 25.523438 138.304688 24.300781 C 138.304688 20.886719 141.144531 19.917969 141.179688 17.296875 C 131.011719 14.097656 134.605469 16.71875 132.699219 16.863281 L 132.773438 14.886719 C 129.828125 13.882812 131.371094 14.457031 129.074219 15.425781 C 128.570312 14.78125 129.003906 14.996094 128.605469 14.242188 C 128.320312 13.667969 128.28125 13.882812 127.996094 13.414062 C 127.742188 13.058594 127.671875 12.660156 127.492188 12.445312 C 127.171875 12.015625 126.917969 12.085938 126.699219 11.726562 L 141.972656 16.324219 C 133.921875 13.199219 125.445312 11.042969 116.605469 10 C 116.640625 10.039062 116.679688 10.039062 116.679688 10.039062 C 115.746094 12.015625 113.804688 10.433594 112.90625 10.433594 C 111.253906 10.433594 112.511719 10.898438 110.640625 11.117188 C 107.265625 11.546875 103.925781 11.476562 100.582031 11.257812 C 98.789062 11.152344 97.710938 11.980469 95.839844 11.691406 C 94.546875 11.476562 93.507812 10.9375 92.035156 11.117188 C 88.082031 11.65625 84.703125 12.480469 80.824219 13.125 C 77.015625 13.777344 74.464844 15.75 70.40625 15.75 C 69.652344 16.578125 70.226562 16.757812 68.753906 16.863281 C 67.710938 16.972656 67.171875 17.152344 66.851562 18.015625 C 67.351562 19.054688 67.710938 18.40625 68.105469 19.449219 C 66.238281 19.488281 67.171875 18.984375 66.058594 18.984375 L 64.371094 18.984375 C 63.902344 19.269531 61.136719 21.894531 60.707031 22.324219 C 59.914062 23.1875 60.238281 23.691406 60.742188 24.804688 C 61.964844 27.425781 62.574219 26.707031 64.046875 26.097656 C 64.800781 26.957031 64.621094 26.636719 64.585938 28.539062 C 63.941406 29.003906 63.078125 29.507812 62.503906 30.15625 C 62.539062 30.191406 62.71875 30.445312 62.789062 30.515625 C 64.117188 31.988281 69.078125 30.660156 70.011719 29.796875 C 71.089844 30.300781 70.980469 30.585938 72.453125 30.085938 C 75.902344 28.824219 73.960938 28.324219 75.257812 25.953125 C 76.046875 24.550781 76.152344 24.839844 77.339844 24.585938 C 78.667969 24.265625 79.351562 20.421875 82.441406 18.910156 C 84.34375 18.015625 84.992188 17.402344 86.644531 16.035156 C 87.902344 15.03125 87.757812 15.535156 87.792969 13.59375 C 88.835938 13.523438 89.734375 13.667969 91.027344 13.273438 C 91.855469 13.019531 93.109375 12.554688 94.082031 13.019531 C 94.046875 13.882812 94.152344 13.523438 92.789062 13.988281 C 91.171875 14.527344 89.984375 15.390625 88.40625 15.859375 L 88.441406 17.367188 C 89.230469 17.402344 89.699219 17.476562 90.09375 18.015625 C 89.699219 18.878906 89.554688 18.050781 88.871094 19.449219 C 85.855469 19.449219 85.566406 20.707031 83.230469 21.390625 C 82.296875 21.675781 81.652344 21.285156 81.652344 22.214844 C 81.652344 26.132812 85.351562 23.511719 88.40625 24.480469 C 87.578125 26.671875 84.703125 25.019531 83.445312 25.34375 C 82.945312 25.488281 82.65625 25.808594 82.296875 26.0625 C 82.40625 28.109375 82.90625 27.175781 83.878906 27.640625 C 84.453125 27.894531 84.632812 28.972656 84.957031 29.546875 C 87.652344 29.1875 90.308594 28.792969 93.039062 28.792969 C 94.800781 28.792969 97.457031 31.734375 98.070312 33.066406 C 98.429688 33.855469 98.210938 33.390625 98.644531 33.964844 C 99.109375 34.644531 100.402344 39.066406 100.511719 39.640625 Z M 71.519531 49.449219 C 72.5625 50.238281 73.101562 51.785156 73.101562 53.402344 C 74.144531 53.402344 75.796875 53.507812 75.796875 54.515625 C 75.078125 55.160156 73.460938 54.585938 72.347656 55.015625 C 71.519531 55.554688 71.160156 58.359375 73.53125 58.179688 C 75.6875 58 75.796875 56.097656 77.269531 56.203125 C 77.484375 59.976562 76.332031 58.179688 75.328125 61.234375 C 75.148438 61.808594 75.257812 62.164062 75.148438 62.886719 C 71.734375 63.066406 70.40625 63.207031 70.40625 66.117188 C 73.53125 67.125 72.527344 66.40625 75.472656 65.652344 C 79.136719 68.488281 76.226562 68.886719 82.335938 71.617188 C 83.699219 72.226562 84.203125 72.730469 85.460938 71.976562 C 85.101562 69.386719 82.621094 69.425781 82.476562 68.128906 C 84.34375 68.273438 85.566406 69.566406 87.433594 69.996094 C 88.726562 66.296875 87.6875 66.226562 86.464844 64.789062 C 84.5625 62.5625 84.128906 62.8125 84.238281 59.792969 C 86.894531 60.226562 86 63.640625 88.871094 63.566406 C 90.957031 63.53125 91.855469 58.644531 91.78125 58.503906 C 91.242188 57.246094 90.703125 57.964844 89.804688 57.246094 L 88.046875 55.664062 C 84.703125 52.863281 84.882812 54.910156 84.847656 52.285156 C 85.421875 52.25 85.53125 52.214844 85.820312 52.035156 C 85.820312 51.890625 85.242188 47.867188 84.957031 48.335938 C 84.917969 48.40625 84.777344 48.265625 84.667969 48.191406 C 83.554688 47.582031 84.09375 47.832031 83.375 47.148438 C 82.40625 46.285156 82.40625 47.078125 81.433594 46.179688 C 79.675781 44.527344 80.609375 43.808594 77.734375 44.382812 C 77.410156 43.914062 77.089844 43.664062 76.65625 43.199219 C 76.082031 42.515625 75.4375 41.078125 75.003906 40.21875 C 74.464844 39.136719 74.644531 40.109375 74.679688 38.671875 C 71.628906 37.914062 74.359375 38.132812 69.398438 38.132812 C 68.503906 38.132812 69.113281 38.527344 67.496094 38.597656 C 67.066406 38.636719 66.992188 38.5625 66.597656 38.707031 C 66.058594 38.886719 66.742188 38.816406 65.769531 39.210938 C 63.761719 36.660156 60.167969 41.1875 59.234375 43.234375 C 58.945312 43.773438 58.441406 45.535156 58.191406 45.964844 C 59.414062 46.933594 59.558594 46.25 60.5625 47.6875 C 59.808594 48.949219 59.84375 48.15625 59.304688 50.132812 C 62.105469 50.777344 66.167969 50.816406 69.183594 50.457031 C 71.015625 50.203125 70.441406 49.878906 71.519531 49.449219 Z M 54.167969 85.984375 C 56.214844 86.707031 58.046875 87.746094 59.84375 88.894531 C 61.53125 89.972656 62.933594 89.003906 64.046875 90.296875 C 64.660156 91.699219 63.042969 95.578125 65.304688 96.800781 L 67.101562 97.839844 C 69.652344 96.585938 67.496094 94.679688 67.496094 92.707031 L 67.820312 90.726562 C 68.179688 89.578125 67.675781 90.226562 68.789062 89.796875 C 70.152344 89.324219 69.722656 89.148438 70.371094 87.855469 C 71.054688 86.527344 70.910156 86.773438 70.585938 85.085938 C 70.046875 82.070312 68.179688 81.421875 69.183594 80.164062 C 70.152344 78.945312 70.082031 79.625 70.046875 77.433594 C 70.046875 76.25 70.082031 75.066406 70.046875 73.878906 C 70.046875 70.96875 69.042969 71.542969 76.515625 71.617188 C 77.015625 72.371094 78.417969 73.878906 79.027344 74.308594 C 79.890625 74.847656 80.140625 74.488281 80.574219 75.496094 C 81.832031 78.371094 80.179688 79.914062 80.070312 80.992188 C 80.824219 80.992188 81.398438 80.742188 81.867188 80.886719 C 83.195312 81.242188 83.125 82.5 84.917969 80.59375 C 86.5 78.945312 85.351562 78.332031 86.285156 77.183594 C 87.542969 75.640625 88.621094 78.261719 89.015625 79.160156 C 89.625 80.417969 90.34375 81.460938 90.847656 82.789062 C 90.917969 82.96875 90.992188 83.148438 91.0625 83.398438 C 91.242188 83.828125 91.351562 83.867188 91.421875 84.117188 C 91.816406 85.484375 89.914062 85.484375 92.320312 87.351562 C 93.074219 87.925781 93.472656 88.609375 94.082031 89.324219 L 96.703125 89.472656 L 97.601562 91.484375 C 97.675781 91.699219 97.78125 92.058594 97.925781 92.234375 C 98.644531 93.171875 97.855469 92.273438 98.5 92.667969 C 98.96875 92.957031 98.789062 92.738281 99.074219 93.136719 C 100.152344 94.5 99.683594 96.835938 99.683594 98.773438 C 99.683594 99.996094 98.894531 99.386719 99.074219 101.324219 C 100.261719 101.757812 100.152344 101.683594 101.660156 101.722656 C 102.09375 102.761719 102.058594 102.082031 102.273438 103.589844 C 102.417969 104.632812 102.667969 104.667969 103.242188 105.347656 C 104.175781 106.464844 104.03125 108.226562 102.238281 107.828125 C 99.433594 107.21875 100.082031 105.710938 94.046875 105.710938 C 94.332031 104.667969 94.90625 104.09375 95.300781 103.125 C 95.804688 101.902344 96.992188 99.816406 96.882812 98.703125 C 94.871094 98.273438 94.765625 99.277344 94.585938 100.105469 C 94.007812 100.175781 90.238281 100.644531 89.914062 100.859375 C 90.164062 101.183594 90.488281 101.21875 90.992188 101.21875 L 90.957031 103.15625 C 87.972656 103.15625 88.835938 103.125 87.542969 101.542969 C 86.644531 100.425781 84.882812 101.074219 83.699219 101.578125 C 81.792969 102.332031 81.757812 102.261719 80.824219 103.949219 C 80.035156 105.347656 78.707031 105.496094 78.597656 107.039062 C 80.394531 106.859375 80.140625 105.136719 82.296875 103.734375 C 83.160156 103.15625 85.242188 101.828125 86.394531 102.261719 C 88.65625 103.085938 85.421875 104.632812 87.722656 106.605469 C 88.226562 107.003906 88.910156 107.109375 89.445312 107.398438 C 91.0625 108.117188 92.035156 107.863281 93.722656 107.503906 C 93.722656 109.589844 93.792969 109.230469 92.679688 110.34375 C 91.816406 111.136719 91.421875 111.316406 90.09375 111.527344 C 88.910156 111.707031 88.726562 112.355469 87.792969 113.003906 C 86.644531 113.792969 86.644531 113.753906 84.957031 113.753906 C 84.597656 111.742188 85.636719 112.75 85.636719 111.242188 C 83.484375 111.097656 84.632812 111.78125 82.871094 112.246094 C 81.902344 112.5 81.433594 112.570312 80.714844 113.21875 L 79.101562 114.726562 C 78.707031 115.375 79.0625 116.523438 79.0625 117.457031 C 77.878906 117.851562 76.765625 118.246094 75.796875 119.003906 C 74.394531 120.042969 74.609375 120.402344 73.855469 122.089844 C 73.351562 123.242188 72.847656 124.210938 72.417969 125.683594 C 71.269531 129.601562 71.628906 128.304688 69.578125 130.351562 C 68.429688 131.503906 66.347656 132.4375 65.519531 133.839844 C 63.832031 136.785156 67.207031 137.933594 67.171875 142.714844 L 67.136719 143.539062 C 66.527344 143.539062 65.878906 143.539062 65.414062 143.359375 C 64.585938 143.035156 63.6875 140.703125 63.363281 139.765625 C 62.070312 136.28125 62.070312 135.527344 55.28125 136.355469 L 54.996094 137.574219 C 52.550781 137.933594 52.515625 136.605469 50.359375 136.605469 C 49.175781 136.605469 46.550781 138.761719 46.550781 139.804688 C 46.550781 146.882812 45.941406 144.976562 47.988281 148.855469 C 48.527344 149.863281 48.957031 151.011719 50.144531 151.300781 C 52.765625 151.910156 54.707031 150.328125 55.101562 147.707031 C 57.472656 147.707031 57.042969 147.453125 58.660156 148.425781 C 58.550781 150.4375 57.976562 150.722656 57.976562 154.535156 C 59.269531 155.324219 61.386719 155.464844 62.898438 156.113281 C 64.695312 156.90625 64.117188 159.382812 64.117188 161.753906 C 64.40625 162.257812 65.089844 162.867188 65.484375 163.152344 C 66.382812 163.910156 66.453125 163.65625 67.566406 163.550781 C 71.054688 163.152344 69.578125 164.054688 71.914062 164.628906 C 72.847656 164.054688 73.207031 162.9375 74.574219 162.328125 C 75.148438 162.113281 75.867188 161.933594 76.476562 161.71875 C 78.632812 160.925781 75.542969 159.023438 81.972656 162.148438 L 83.734375 163.082031 C 85.746094 164.015625 89.339844 162.757812 90.632812 163.550781 C 91.457031 164.054688 90.882812 164.195312 91.53125 164.734375 C 92.035156 165.09375 93.253906 165.273438 94.367188 166.101562 C 95.195312 166.710938 97.457031 168.757812 98.070312 168.902344 C 101.050781 169.621094 104.285156 168.402344 106.511719 172.964844 C 108.199219 176.519531 105.828125 175.476562 109.925781 176.265625 C 110.785156 176.414062 111.289062 176.628906 112.1875 176.914062 C 115.601562 177.957031 115.027344 178.640625 117.503906 178.28125 C 119.445312 177.992188 124.261719 180.578125 126.054688 181.226562 C 126.054688 185.429688 125.625 184.78125 123.183594 187.082031 C 122.28125 187.90625 121.277344 188.375 120.878906 189.203125 C 120.632812 189.597656 120.273438 191.859375 119.984375 192.683594 C 119.335938 194.519531 117.972656 196.78125 116.355469 197.824219 C 115.492188 198.398438 113.230469 197.644531 109.566406 200.050781 C 108.558594 200.734375 108.488281 202.492188 105.578125 204.828125 C 105.039062 205.261719 104.75 205.296875 104.355469 205.726562 C 103.566406 206.589844 104.320312 206.410156 102.992188 206.695312 C 98.714844 207.523438 100.402344 208.996094 97.027344 209.425781 C 95.984375 209.570312 94.296875 209.964844 93.578125 210.398438 C 91.78125 211.511719 90.917969 213.089844 89.375 213.953125 C 88.980469 214.171875 89.339844 213.953125 88.980469 214.203125 C 88.726562 214.386719 88.007812 214.960938 86.429688 214.171875 C 85.421875 213.703125 84.238281 214.0625 83.089844 213.773438 C 82.980469 212.011719 82.261719 213.667969 82.980469 211.980469 C 83.375 211.007812 83.375 210.578125 82.765625 209.929688 C 81.148438 208.242188 81.183594 208.242188 82.117188 206.050781 C 83.195312 203.464844 81.6875 203.5 82.335938 201.703125 C 82.550781 201.199219 82.550781 201.632812 82.621094 200.695312 L 82.726562 194.625 C 82.585938 193.871094 82.765625 194.554688 82.371094 194.015625 C 81.542969 192.9375 81.902344 192.902344 80.464844 192.328125 C 75.9375 190.457031 75.617188 189.5625 72.886719 185.894531 C 72.488281 185.355469 72.308594 184.964844 71.949219 184.53125 C 66.308594 177.417969 69.042969 181.046875 68.503906 176.699219 C 68.429688 175.910156 68.429688 175.117188 68.464844 174.292969 C 69.363281 173.503906 71.664062 171.238281 71.664062 169.910156 C 71.664062 168.613281 70.515625 165.921875 69.183594 165.921875 C 65.195312 165.921875 67.425781 166.964844 63.542969 164.699219 C 61.28125 163.332031 60.203125 159.777344 57.796875 158.914062 C 56.933594 158.628906 56.933594 158.628906 56.179688 158.234375 C 55.316406 157.765625 55.066406 158.015625 54.417969 157.730469 C 53.808594 157.441406 53.988281 157.121094 53.160156 156.6875 C 52.226562 156.148438 52.515625 156.4375 51.796875 155.71875 C 50.863281 154.746094 49.496094 155.035156 48.238281 154.925781 C 47.089844 154.820312 46.335938 153.992188 45.222656 153.527344 C 42.023438 152.160156 38.972656 150.363281 38 146.914062 C 37.355469 144.582031 35.667969 143.214844 34.371094 141.347656 L 29.523438 133.625 C 28.984375 132.902344 29.449219 133.300781 28.804688 133.121094 C 28.550781 133.875 28.625 133.984375 29.054688 134.523438 C 30.132812 135.921875 29.199219 135.921875 30.097656 136.640625 L 31.066406 138.152344 C 31.390625 138.902344 31.75 139.480469 32.253906 140.304688 C 33.007812 141.527344 35.523438 142.894531 33.617188 144.402344 C 31.714844 144.148438 30.242188 140.125 29.234375 138.722656 C 28.480469 137.71875 28.011719 136.570312 27.472656 135.492188 C 26.46875 133.515625 26 129.851562 24.207031 128.484375 C 22.265625 127.082031 19.03125 120.1875 19.03125 118.464844 C 19.03125 115.839844 18.707031 113.21875 19.28125 110.558594 C 19.464844 109.625 19.859375 109.769531 19.355469 108.691406 C 18.492188 106.894531 19.714844 106.679688 18.097656 104.703125 C 15.835938 101.9375 17.8125 101.039062 16.519531 98.558594 C 16.195312 97.949219 16.050781 97.625 15.476562 97.195312 C 14.46875 96.441406 16.984375 93.636719 13.246094 93.636719 C 13.246094 92.203125 12.351562 90.621094 12.171875 89.113281 C 12.0625 88.285156 12.3125 88.574219 11.882812 87.925781 L 10.660156 86.164062 C 9.835938 85.410156 9.582031 85.804688 9.007812 86.273438 C 8.144531 86.992188 8.542969 86.488281 7.824219 86.8125 C 7.105469 87.097656 6.855469 88.175781 6.601562 88.894531 C 5.847656 91.160156 6.960938 92.992188 4.554688 93.601562 C 3.835938 92.34375 4.660156 91.230469 3.941406 90.476562 C 3.511719 92.8125 3.046875 91.554688 2.6875 93.171875 C 4.660156 82.859375 8.183594 73.085938 12.996094 64.070312 C 12.851562 64.429688 12.816406 64.71875 12.851562 64.894531 C 13.609375 65.367188 14.46875 64.46875 15.367188 64.179688 C 16.554688 63.820312 17.34375 63.925781 18.78125 63.855469 C 19.105469 63.316406 19.140625 62.992188 19.464844 62.457031 C 19.785156 61.917969 20.183594 61.59375 20.503906 61.195312 C 21.976562 59.546875 22.265625 60.011719 24.207031 60.011719 C 25.355469 60.011719 27.117188 58.683594 28.191406 58.644531 C 29.019531 58.644531 30.671875 59.074219 31.535156 59.472656 C 32.179688 59.722656 32.074219 59.652344 32.46875 60.011719 L 32.289062 61.699219 C 32.71875 61.917969 34.335938 61.160156 36.132812 61.160156 C 36.996094 61.160156 36.816406 61.878906 37.460938 62.308594 C 37.75 62.523438 37.785156 62.488281 38.179688 62.5625 C 38.214844 60.945312 38.539062 61.125 37.605469 60.082031 C 36.78125 59.148438 37.246094 59.367188 35.917969 59.367188 C 35.054688 59.367188 35.34375 60.550781 33.90625 58.96875 C 32.71875 57.640625 32.898438 58.503906 31.570312 57.820312 C 31.320312 56.488281 32.039062 56.023438 33.078125 55.734375 C 34.625 55.339844 34.300781 55.484375 35.234375 54.445312 C 33.976562 53.832031 33.796875 54.910156 32.039062 54.550781 C 31.535156 53.867188 32.039062 54.515625 31.785156 53.976562 L 30.851562 52.394531 C 30.3125 53.1875 29.988281 53.078125 29.269531 53.832031 C 28.625 54.550781 28.375 54.695312 27.117188 54.445312 C 27.007812 51.890625 29.234375 48.046875 30.996094 46.144531 C 31.675781 45.425781 33.546875 45.210938 34.660156 45.210938 C 35.703125 45.210938 37.320312 46.574219 37.855469 47.042969 C 38.429688 47.507812 38.71875 47.832031 39.222656 48.226562 L 39.90625 48.800781 C 40.445312 49.375 39.726562 49.195312 40.730469 49.375 C 40.765625 49.339844 40.804688 49.234375 40.804688 49.269531 C 40.910156 49.664062 40.910156 49.015625 40.910156 48.949219 C 41.378906 47.546875 41.484375 46.109375 42.132812 44.742188 C 42.671875 43.699219 45.292969 41.507812 45.292969 43.988281 C 45.292969 44.921875 44.648438 45.566406 43.820312 45.785156 C 43.820312 47.078125 43.75 48.585938 43.820312 49.84375 C 43.929688 52.503906 46.730469 50.707031 45.941406 53.472656 C 45.761719 54.15625 45.328125 54.296875 44.828125 54.65625 C 45.402344 57.605469 44 56.8125 42.707031 57.246094 L 42.277344 57.425781 L 42.132812 57.496094 L 41.882812 57.640625 L 41.738281 57.710938 C 41.738281 57.710938 41.664062 57.746094 41.628906 57.785156 C 41.882812 58.324219 42.742188 58.753906 43.246094 59.253906 L 45.761719 59.222656 C 46.550781 58.394531 47.054688 58.035156 47.59375 56.707031 C 48.132812 55.375 48.058594 54.695312 49.066406 53.617188 C 51.078125 53.617188 49.785156 54.15625 51.003906 54.550781 C 51.617188 54.550781 52.730469 54.621094 52.335938 53.726562 C 52.191406 53.367188 50.898438 53.042969 50.898438 52.144531 C 50.898438 48.335938 51.652344 49.234375 52.335938 48.046875 C 53.019531 46.863281 52.261719 47.148438 54.347656 47.148438 C 55.210938 47.148438 55.75 49.808594 55.75 50.667969 C 55.75 52.285156 55.210938 51.425781 56.105469 52.863281 C 56.683594 53.796875 56.503906 54.445312 56.863281 55.304688 C 57.652344 55.054688 58.011719 53.941406 58.226562 53.113281 C 58.371094 53.253906 58.441406 53.292969 58.480469 53.292969 C 58.480469 53.328125 58.480469 53.402344 58.585938 53.578125 C 58.660156 53.757812 58.695312 54.011719 58.765625 54.191406 C 59.414062 54.121094 59.234375 53.976562 59.734375 54.226562 C 59.734375 55.375 58.980469 56.921875 59.484375 58.070312 C 60.167969 58.285156 60.3125 58.144531 60.886719 57.855469 C 61.03125 57.101562 60.992188 56.382812 61.316406 55.734375 C 61.675781 54.945312 62.144531 54.835938 62.503906 54.226562 C 62.863281 52.753906 61.171875 49.953125 67.066406 52.359375 C 67.101562 53.367188 66.851562 54.40625 66.851562 55.269531 C 66.851562 57.890625 67.746094 58 65.699219 59.9375 C 65.050781 60.515625 65.195312 60.875 64.296875 61.773438 C 64.40625 62.5625 64.550781 62.34375 64.515625 62.957031 C 64.441406 63.605469 64.226562 63.460938 64.117188 64.25 C 65.160156 65.578125 67.316406 66.695312 67.027344 68.777344 C 65.734375 69.460938 65.484375 68.417969 63.722656 68.238281 C 63.363281 69.675781 63.507812 69.316406 61.855469 69.53125 C 60.8125 69.675781 59.808594 69.136719 59.664062 68.308594 C 59.414062 67.085938 60.5625 67.015625 60.5625 65.9375 C 60.5625 65.113281 60.453125 64.644531 59.988281 64.285156 C 58.945312 65.292969 60.8125 65.9375 57.078125 68.453125 C 53.84375 70.644531 56.035156 71.472656 53.808594 72.296875 C 51.257812 73.265625 52.765625 72.90625 50.789062 76.429688 C 49.785156 78.261719 48.921875 79.375 50.144531 81.855469 C 51.367188 82.535156 51.148438 81.421875 51.582031 83.113281 C 52.011719 84.980469 52.371094 85.410156 54.167969 85.984375 " fill-opacity="1" fill-rule="evenodd"/></g></svg>