<svg xmlns="http://www.w3.org/2000/svg" xmlns:xlink="http://www.w3.org/1999/xlink" width="600" zoomAndPan="magnify" viewBox="0 0 450 449.999984" height="600" preserveAspectRatio="xMidYMid meet" version="1.0"><defs><clipPath id="3a775a7122"><path d="M 58 8 L 418 8 L 418 432 L 58 432 Z M 58 8 " clip-rule="nonzero"/></clipPath><clipPath id="615270821c"><path d="M -29.484375 111.851562 L 354.632812 -42.582031 L 500.113281 319.269531 L 115.996094 473.703125 Z M -29.484375 111.851562 " clip-rule="nonzero"/></clipPath><clipPath id="642f735793"><path d="M -29.484375 111.851562 L 354.632812 -42.582031 L 500.113281 319.269531 L 115.996094 473.703125 Z M -29.484375 111.851562 " clip-rule="nonzero"/></clipPath></defs><g clip-path="url(#3a775a7122)"><g clip-path="url(#615270821c)"><g clip-path="url(#642f735793)"><path fill="#8fc0a9" d="M 238.09375 424.773438 C 218.074219 432.824219 199.253906 431.546875 179.222656 429.945312 C 165.65625 428.839844 146.71875 424.648438 133.902344 418.589844 L 127.339844 415.3125 C 120.589844 412.222656 107.390625 403.332031 101.679688 398.214844 C 100.835938 397.453125 100.175781 397.019531 99.414062 396.328125 C 89.617188 387.605469 81.238281 378.070312 74.390625 366.65625 C 72.394531 363.289062 68.722656 356.109375 67.960938 352.867188 C 67.578125 351.246094 65.195312 345.046875 64.320312 341.746094 L 61.828125 331.269531 C 59.695312 321.613281 58.160156 308.574219 59.019531 298.742188 C 59.128906 297.675781 59.109375 296.695312 59.199219 295.582031 C 59.628906 290.566406 60.207031 285.578125 61.121094 280.640625 L 65.054688 266.75 C 65.933594 263.597656 68.859375 256.691406 70.628906 253.539062 C 71.621094 251.796875 72.386719 250.148438 73.457031 248.394531 C 78.136719 240.785156 83.074219 233.34375 89.070312 226.660156 L 95.136719 219.816406 C 96.433594 218.351562 97.738281 216.859375 99.191406 215.390625 L 121.0625 193.238281 C 128.214844 185.820312 134.628906 178.832031 139.597656 169.789062 L 142.886719 163.253906 C 144.378906 160.285156 145.679688 157.15625 146.621094 153.957031 C 148.300781 148.304688 149.417969 142.53125 150.363281 136.722656 L 152.828125 118.769531 C 154.742188 105.152344 157.128906 91.554688 160.636719 78.289062 L 163.648438 68.53125 C 164.257812 66.703125 165.195312 64.953125 165.761719 63.085938 C 166.171875 61.710938 166.871094 60.4375 167.46875 59.121094 C 168.746094 56.484375 169.855469 53.882812 171.371094 51.371094 C 176.617188 42.675781 182.554688 35.316406 190.792969 28.320312 C 195.082031 24.683594 205.804688 17.523438 211.597656 15.277344 C 213.105469 14.671875 213.644531 14.210938 215.035156 13.652344 C 219.617188 11.808594 224.695312 10.332031 229.5 9.453125 C 233.53125 8.71875 238.535156 8.59375 242.378906 8.578125 C 243.484375 8.589844 244.519531 8.625 245.582031 8.660156 C 252.578125 8.9375 259.457031 9.617188 265.925781 12.386719 C 269.5625 13.9375 272.964844 15.390625 276.46875 17.347656 L 284.304688 21.050781 C 285.210938 21.4375 286.035156 21.671875 287.023438 21.921875 C 290.796875 22.957031 294.910156 23.210938 298.824219 23.523438 C 300.933594 23.695312 302.851562 23.789062 304.9375 24.019531 C 311.140625 24.726562 317.230469 24.773438 323.46875 24.769531 C 324.703125 24.757812 325.46875 24.796875 326.761719 24.65625 C 330.046875 24.335938 333.117188 23.957031 336.339844 23.871094 C 341.027344 23.761719 345.582031 23.785156 350.199219 24.566406 L 362.925781 27.808594 C 367.53125 29.292969 371.792969 32.148438 375.589844 35.03125 C 376.464844 35.675781 377.074219 36.183594 377.921875 36.808594 C 387.9375 44.476562 392.773438 52.023438 397.621094 64.082031 C 401.234375 73.0625 400.894531 90.128906 400.378906 100.019531 C 400.296875 101.691406 400.039062 102.976562 399.910156 104.667969 L 399.027344 111.773438 C 396.933594 126.621094 394.722656 141.519531 393.507812 156.496094 C 393.105469 161.308594 392.800781 166.242188 393.113281 171.089844 L 393.472656 176.269531 C 393.664062 178.078125 393.871094 179.605469 394.125 181.4375 C 394.625 185.023438 395.425781 188.550781 396.230469 192.226562 C 396.691406 194.246094 397.078125 195.808594 397.636719 197.875 C 400.402344 207.757812 404.53125 217.230469 408.488281 227.007812 L 410.613281 232.960938 C 411.078125 234.65625 411.847656 236.898438 412.285156 238.523438 C 415.804688 252.160156 416.214844 255.84375 417.105469 270.296875 C 417.664062 279.507812 417.839844 290.589844 416.664062 299.828125 C 416.265625 302.972656 415.824219 306.027344 415.175781 309.085938 L 409.394531 329.019531 C 407.773438 332.871094 406.84375 335.640625 404.8125 339.410156 C 404.058594 340.816406 403.460938 341.945312 402.59375 343.316406 C 399.191406 348.691406 395.109375 353.257812 389.464844 357.542969 C 386.269531 359.960938 381.613281 363.015625 377.632812 364.828125 C 371.460938 367.660156 366.261719 370.097656 359.585938 371.761719 C 353.390625 373.339844 347.679688 374.640625 341.386719 375.640625 C 326.523438 377.984375 310.410156 378.894531 296.148438 384.628906 C 288.789062 387.585938 284.808594 390.535156 279.359375 395.167969 C 275.214844 398.6875 271.15625 402.039062 266.929688 405.433594 C 257.648438 412.902344 249.804688 420.066406 238.09375 424.773438 Z M 238.09375 424.773438 " fill-opacity="1" fill-rule="evenodd"/></g></g></g></svg>