<svg xmlns="http://www.w3.org/2000/svg" xmlns:xlink="http://www.w3.org/1999/xlink" width="600" zoomAndPan="magnify" viewBox="0 0 450 449.999984" height="600" preserveAspectRatio="xMidYMid meet" version="1.0"><defs><clipPath id="277ff129f3"><path d="M 7 70 L 444 70 L 444 387 L 7 387 Z M 7 70 " clip-rule="nonzero"/></clipPath><clipPath id="5a55624d86"><path d="M 359.128906 458.039062 L -40.992188 291.230469 L 80.507812 -0.207031 L 480.628906 166.601562 Z M 359.128906 458.039062 " clip-rule="nonzero"/></clipPath><clipPath id="bfc236d868"><path d="M 359.128906 458.039062 L -40.992188 291.230469 L 80.507812 -0.207031 L 480.628906 166.601562 Z M 359.128906 458.039062 " clip-rule="nonzero"/></clipPath></defs><g clip-path="url(#277ff129f3)"><g clip-path="url(#5a55624d86)"><g clip-path="url(#bfc236d868)"><path fill="#c8d5b9" d="M 255.695312 89.617188 C 273.976562 97.417969 293.378906 107.703125 312.441406 114.835938 C 332.703125 122.378906 354.539062 123.675781 375.425781 128.722656 C 411.933594 138.324219 433.882812 174.5 440.886719 209.558594 C 446.359375 234.613281 441.292969 260.941406 428.824219 283.269531 C 425.058594 290.902344 418.960938 296.449219 413.136719 302.222656 C 405.347656 309.949219 397.191406 317.328125 387.53125 322.726562 C 356.261719 339.246094 320.316406 342.820312 286.898438 353.222656 C 283.671875 354.128906 280.949219 355.929688 278.390625 358.066406 C 264.023438 370.765625 248.777344 384.769531 228.523438 385.542969 C 194.46875 389.371094 160.0625 369.828125 145.210938 338.921875 C 141.558594 331.097656 139.261719 322.761719 135.480469 315.023438 C 124.910156 291.878906 116 265.347656 94.164062 250.285156 C 69.726562 237.53125 48.691406 250.871094 25.085938 230.984375 C 1.675781 213.101562 5.523438 178.808594 16.84375 154.90625 C 28 133.644531 45.628906 116.328125 65.207031 102.738281 C 126.699219 63.609375 189.277344 60.503906 255.695312 89.617188 Z M 255.695312 89.617188 " fill-opacity="1" fill-rule="nonzero"/></g></g></g></svg>